<mxfile host="app.diagrams.net" modified="2024-04-09T17:00:52.423Z" agent="Mozilla/5.0 (X11; Linux x86_64) AppleWebKit/537.36 (KHTML, like Gecko) Chrome/123.0.0.0 Safari/537.36" etag="xMEXsbUWvHO7FacuE00L" version="24.2.3" type="device">
  <diagram name="Page-1" id="AIJUqaptLlaZqkofsXYG">
    <mxGraphModel dx="1226" dy="230" grid="1" gridSize="10" guides="1" tooltips="1" connect="1" arrows="1" fold="1" page="1" pageScale="1" pageWidth="850" pageHeight="1100" math="0" shadow="0">
      <root>
        <mxCell id="0" />
        <mxCell id="1" parent="0" />
        <mxCell id="VbjRo9HtqSkB1Ggf5Mw8-105" value="" style="rounded=1;whiteSpace=wrap;html=1;arcSize=2;dashed=1;fillColor=none;" parent="1" vertex="1">
          <mxGeometry x="570" y="110" width="410" height="450" as="geometry" />
        </mxCell>
        <mxCell id="VbjRo9HtqSkB1Ggf5Mw8-138" style="edgeStyle=orthogonalEdgeStyle;rounded=0;orthogonalLoop=1;jettySize=auto;html=1;exitX=1;exitY=0.5;exitDx=0;exitDy=0;entryX=1;entryY=0.5;entryDx=0;entryDy=0;" parent="1" source="VbjRo9HtqSkB1Ggf5Mw8-19" target="VbjRo9HtqSkB1Ggf5Mw8-121" edge="1">
          <mxGeometry relative="1" as="geometry">
            <Array as="points">
              <mxPoint x="960" y="241" />
              <mxPoint x="960" y="535" />
            </Array>
          </mxGeometry>
        </mxCell>
        <mxCell id="VbjRo9HtqSkB1Ggf5Mw8-40" value="" style="rounded=1;whiteSpace=wrap;html=1;arcSize=5;dashed=1;fillColor=none;" parent="1" vertex="1">
          <mxGeometry x="160" y="110" width="310" height="290" as="geometry" />
        </mxCell>
        <mxCell id="VbjRo9HtqSkB1Ggf5Mw8-111" value="SSH" style="text;html=1;align=center;verticalAlign=middle;whiteSpace=wrap;rounded=0;rotation=0;fontColor=#5C5C5C;" parent="1" vertex="1">
          <mxGeometry x="477" y="122" width="90" height="15" as="geometry" />
        </mxCell>
        <mxCell id="VbjRo9HtqSkB1Ggf5Mw8-117" style="edgeStyle=orthogonalEdgeStyle;rounded=0;orthogonalLoop=1;jettySize=auto;html=1;endArrow=none;endFill=0;" parent="1" source="VbjRo9HtqSkB1Ggf5Mw8-65" target="VbjRo9HtqSkB1Ggf5Mw8-136" edge="1">
          <mxGeometry relative="1" as="geometry">
            <Array as="points">
              <mxPoint x="370" y="230" />
              <mxPoint x="370" y="230" />
            </Array>
          </mxGeometry>
        </mxCell>
        <mxCell id="VbjRo9HtqSkB1Ggf5Mw8-104" style="edgeStyle=orthogonalEdgeStyle;rounded=0;orthogonalLoop=1;jettySize=auto;html=1;entryX=1;entryY=0.5;entryDx=0;entryDy=0;" parent="1" source="VbjRo9HtqSkB1Ggf5Mw8-23" target="VbjRo9HtqSkB1Ggf5Mw8-26" edge="1">
          <mxGeometry relative="1" as="geometry">
            <Array as="points">
              <mxPoint x="850" y="400" />
              <mxPoint x="790" y="400" />
              <mxPoint x="790" y="340" />
            </Array>
          </mxGeometry>
        </mxCell>
        <mxCell id="VbjRo9HtqSkB1Ggf5Mw8-102" style="edgeStyle=orthogonalEdgeStyle;rounded=0;orthogonalLoop=1;jettySize=auto;html=1;" parent="1" source="VbjRo9HtqSkB1Ggf5Mw8-18" target="VbjRo9HtqSkB1Ggf5Mw8-23" edge="1">
          <mxGeometry relative="1" as="geometry" />
        </mxCell>
        <mxCell id="VbjRo9HtqSkB1Ggf5Mw8-101" style="edgeStyle=orthogonalEdgeStyle;rounded=0;orthogonalLoop=1;jettySize=auto;html=1;" parent="1" source="VbjRo9HtqSkB1Ggf5Mw8-17" target="VbjRo9HtqSkB1Ggf5Mw8-18" edge="1">
          <mxGeometry relative="1" as="geometry" />
        </mxCell>
        <mxCell id="VbjRo9HtqSkB1Ggf5Mw8-5" value="Zaledna aplikacija" style="text;html=1;align=center;verticalAlign=middle;whiteSpace=wrap;rounded=0;" parent="1" vertex="1">
          <mxGeometry x="235" y="90" width="100" height="20" as="geometry" />
        </mxCell>
        <mxCell id="VbjRo9HtqSkB1Ggf5Mw8-134" style="edgeStyle=orthogonalEdgeStyle;rounded=0;orthogonalLoop=1;jettySize=auto;html=1;endArrow=none;endFill=0;" parent="1" source="VbjRo9HtqSkB1Ggf5Mw8-136" edge="1">
          <mxGeometry relative="1" as="geometry">
            <mxPoint x="300" y="280" as="targetPoint" />
            <Array as="points">
              <mxPoint x="370" y="280" />
            </Array>
          </mxGeometry>
        </mxCell>
        <mxCell id="VbjRo9HtqSkB1Ggf5Mw8-6" value="GET /api/v1/models" style="text;html=1;align=left;verticalAlign=middle;whiteSpace=wrap;rounded=0;" parent="1" vertex="1">
          <mxGeometry x="200" y="120" width="110" height="10" as="geometry" />
        </mxCell>
        <mxCell id="VbjRo9HtqSkB1Ggf5Mw8-7" value="POST /api/v1/model/train" style="text;html=1;align=left;verticalAlign=middle;whiteSpace=wrap;rounded=0;" parent="1" vertex="1">
          <mxGeometry x="200" y="150" width="140" height="10" as="geometry" />
        </mxCell>
        <mxCell id="VbjRo9HtqSkB1Ggf5Mw8-8" value="POST /api/v1/model/classify" style="text;html=1;align=left;verticalAlign=middle;whiteSpace=wrap;rounded=0;" parent="1" vertex="1">
          <mxGeometry x="200" y="180" width="160" height="10" as="geometry" />
        </mxCell>
        <mxCell id="VbjRo9HtqSkB1Ggf5Mw8-9" value="POST /api/v1/llm/generate" style="text;html=1;align=left;verticalAlign=middle;whiteSpace=wrap;rounded=0;" parent="1" vertex="1">
          <mxGeometry x="200" y="210" width="150" height="10" as="geometry" />
        </mxCell>
        <mxCell id="VbjRo9HtqSkB1Ggf5Mw8-10" value="&lt;p style=&quot;line-height: 120%;&quot;&gt;POST /api/v1/llm/embedding&lt;/p&gt;" style="text;html=1;align=left;verticalAlign=middle;whiteSpace=wrap;rounded=0;" parent="1" vertex="1">
          <mxGeometry x="200" y="240" width="160" height="10" as="geometry" />
        </mxCell>
        <mxCell id="VbjRo9HtqSkB1Ggf5Mw8-13" value="" style="shape=image;verticalLabelPosition=bottom;labelBackgroundColor=default;verticalAlign=top;aspect=fixed;imageAspect=0;image=https://upload.wikimedia.org/wikipedia/commons/thumb/c/c3/Python-logo-notext.svg/800px-Python-logo-notext.svg.png;direction=north;" parent="1" vertex="1">
          <mxGeometry x="167.12" y="203.25" width="32.88" height="30" as="geometry" />
        </mxCell>
        <mxCell id="VbjRo9HtqSkB1Ggf5Mw8-14" value="" style="shape=image;verticalLabelPosition=bottom;labelBackgroundColor=default;verticalAlign=top;aspect=fixed;imageAspect=0;image=https://fastapi.tiangolo.com/img/logo-margin/logo-teal.png;direction=north;" parent="1" vertex="1">
          <mxGeometry x="167.115" y="120.005" width="30" height="83.25" as="geometry" />
        </mxCell>
        <mxCell id="VbjRo9HtqSkB1Ggf5Mw8-100" style="edgeStyle=orthogonalEdgeStyle;rounded=0;orthogonalLoop=1;jettySize=auto;html=1;" parent="1" source="VbjRo9HtqSkB1Ggf5Mw8-25" target="VbjRo9HtqSkB1Ggf5Mw8-17" edge="1">
          <mxGeometry relative="1" as="geometry" />
        </mxCell>
        <mxCell id="VbjRo9HtqSkB1Ggf5Mw8-25" value="Seznam kategorij&lt;div&gt;(npr. vrste odpadkov)&lt;/div&gt;" style="shape=parallelogram;perimeter=parallelogramPerimeter;whiteSpace=wrap;html=1;fixedSize=1;" parent="1" vertex="1">
          <mxGeometry x="590" y="120.01" width="190" height="40" as="geometry" />
        </mxCell>
        <mxCell id="VbjRo9HtqSkB1Ggf5Mw8-26" value="Model" style="shape=parallelogram;perimeter=parallelogramPerimeter;whiteSpace=wrap;html=1;fixedSize=1;" parent="1" vertex="1">
          <mxGeometry x="590" y="320" width="190" height="40" as="geometry" />
        </mxCell>
        <mxCell id="VbjRo9HtqSkB1Ggf5Mw8-27" value="&lt;font style=&quot;font-size: 8px;&quot;&gt;Vhod&lt;/font&gt;" style="text;html=1;align=center;verticalAlign=middle;whiteSpace=wrap;rounded=0;rotation=0;" parent="1" vertex="1">
          <mxGeometry x="660" y="160" width="30" height="10" as="geometry" />
        </mxCell>
        <mxCell id="VbjRo9HtqSkB1Ggf5Mw8-28" value="Prompti za generacijo slik" style="text;html=1;strokeColor=none;fillColor=none;align=right;verticalAlign=middle;whiteSpace=wrap;rounded=0;fontSize=8;direction=west;rotation=0;" parent="1" vertex="1">
          <mxGeometry x="850" y="186" width="60" height="30" as="geometry" />
        </mxCell>
        <mxCell id="VbjRo9HtqSkB1Ggf5Mw8-29" value="Podatkovna zbirka (sliki)" style="text;html=1;strokeColor=none;fillColor=none;align=right;verticalAlign=middle;whiteSpace=wrap;rounded=0;fontSize=8;direction=west;rotation=0;" parent="1" vertex="1">
          <mxGeometry x="850" y="276" width="60" height="30" as="geometry" />
        </mxCell>
        <mxCell id="VbjRo9HtqSkB1Ggf5Mw8-30" value="Naučen model in uteži" style="text;html=1;strokeColor=none;fillColor=none;align=right;verticalAlign=middle;whiteSpace=wrap;rounded=0;fontSize=8;direction=west;rotation=0;" parent="1" vertex="1">
          <mxGeometry x="850" y="366" width="60" height="30" as="geometry" />
        </mxCell>
        <mxCell id="VbjRo9HtqSkB1Ggf5Mw8-31" value="&lt;font style=&quot;font-size: 8px;&quot;&gt;Izhod&lt;/font&gt;" style="text;html=1;align=center;verticalAlign=middle;whiteSpace=wrap;rounded=0;rotation=0;" parent="1" vertex="1">
          <mxGeometry x="660" y="360" width="30" height="14" as="geometry" />
        </mxCell>
        <mxCell id="VbjRo9HtqSkB1Ggf5Mw8-38" value="DB" style="shape=cylinder3;whiteSpace=wrap;html=1;boundedLbl=1;backgroundOutline=1;size=15;" parent="1" vertex="1">
          <mxGeometry x="180.00000000000003" y="300" width="60" height="80" as="geometry" />
        </mxCell>
        <mxCell id="VbjRo9HtqSkB1Ggf5Mw8-39" value="Vector DB" style="shape=cylinder3;whiteSpace=wrap;html=1;boundedLbl=1;backgroundOutline=1;size=15;" parent="1" vertex="1">
          <mxGeometry x="390" y="303" width="60" height="80" as="geometry" />
        </mxCell>
        <mxCell id="VbjRo9HtqSkB1Ggf5Mw8-46" value="S3 bucket" style="shape=cylinder3;whiteSpace=wrap;html=1;boundedLbl=1;backgroundOutline=1;size=15;" parent="1" vertex="1">
          <mxGeometry x="320" y="303" width="60" height="80" as="geometry" />
        </mxCell>
        <mxCell id="VbjRo9HtqSkB1Ggf5Mw8-54" value="" style="shape=waypoint;sketch=0;fillStyle=solid;size=6;pointerEvents=1;points=[];fillColor=none;resizable=0;rotatable=0;perimeter=centerPerimeter;snapToPoint=1;" parent="1" vertex="1">
          <mxGeometry x="340" y="270" width="20" height="20" as="geometry" />
        </mxCell>
        <mxCell id="VbjRo9HtqSkB1Ggf5Mw8-58" style="edgeStyle=orthogonalEdgeStyle;rounded=0;orthogonalLoop=1;jettySize=auto;html=1;entryX=0.5;entryY=0;entryDx=0;entryDy=0;entryPerimeter=0;" parent="1" source="VbjRo9HtqSkB1Ggf5Mw8-54" target="VbjRo9HtqSkB1Ggf5Mw8-46" edge="1">
          <mxGeometry relative="1" as="geometry" />
        </mxCell>
        <mxCell id="VbjRo9HtqSkB1Ggf5Mw8-59" style="edgeStyle=orthogonalEdgeStyle;rounded=0;orthogonalLoop=1;jettySize=auto;html=1;entryX=0.5;entryY=0;entryDx=0;entryDy=0;entryPerimeter=0;jumpStyle=none;" parent="1" source="-vIotHG_nZlyd3AYU9EI-53" target="VbjRo9HtqSkB1Ggf5Mw8-38" edge="1">
          <mxGeometry relative="1" as="geometry" />
        </mxCell>
        <mxCell id="VbjRo9HtqSkB1Ggf5Mw8-61" value="&lt;font color=&quot;#949494&quot; style=&quot;font-size: 10px;&quot;&gt;Ločeni strežnik&lt;/font&gt;" style="text;html=1;align=center;verticalAlign=middle;whiteSpace=wrap;rounded=0;" parent="1" vertex="1">
          <mxGeometry x="250" y="80" width="70" height="10" as="geometry" />
        </mxCell>
        <mxCell id="VbjRo9HtqSkB1Ggf5Mw8-65" value="" style="shape=waypoint;sketch=0;fillStyle=solid;size=6;pointerEvents=1;points=[];fillColor=none;resizable=0;rotatable=0;perimeter=centerPerimeter;snapToPoint=1;" parent="1" vertex="1">
          <mxGeometry x="360" y="175" width="20" height="20" as="geometry" />
        </mxCell>
        <mxCell id="VbjRo9HtqSkB1Ggf5Mw8-74" value="CLI aplikacija" style="text;html=1;align=center;verticalAlign=middle;whiteSpace=wrap;rounded=0;" parent="1" vertex="1">
          <mxGeometry x="720" y="90" width="80" height="20" as="geometry" />
        </mxCell>
        <mxCell id="VbjRo9HtqSkB1Ggf5Mw8-75" value="&lt;font color=&quot;#949494&quot;&gt;&lt;span style=&quot;font-size: 10px;&quot;&gt;Arnesova gruča&lt;/span&gt;&lt;/font&gt;" style="text;html=1;align=center;verticalAlign=middle;whiteSpace=wrap;rounded=0;" parent="1" vertex="1">
          <mxGeometry x="722.5" y="80" width="75" height="10" as="geometry" />
        </mxCell>
        <mxCell id="VbjRo9HtqSkB1Ggf5Mw8-81" value="" style="group" parent="1" vertex="1" connectable="0">
          <mxGeometry x="810" y="125" width="110" height="60" as="geometry" />
        </mxCell>
        <mxCell id="VbjRo9HtqSkB1Ggf5Mw8-17" value="" style="rounded=0;whiteSpace=wrap;html=1;" parent="VbjRo9HtqSkB1Ggf5Mw8-81" vertex="1">
          <mxGeometry width="80" height="30" as="geometry" />
        </mxCell>
        <mxCell id="VbjRo9HtqSkB1Ggf5Mw8-32" value="" style="rounded=0;whiteSpace=wrap;html=1;" parent="VbjRo9HtqSkB1Ggf5Mw8-81" vertex="1">
          <mxGeometry x="10" y="10" width="80" height="30" as="geometry" />
        </mxCell>
        <mxCell id="VbjRo9HtqSkB1Ggf5Mw8-33" value="" style="rounded=0;whiteSpace=wrap;html=1;" parent="VbjRo9HtqSkB1Ggf5Mw8-81" vertex="1">
          <mxGeometry x="20" y="20" width="80" height="30" as="geometry" />
        </mxCell>
        <mxCell id="VbjRo9HtqSkB1Ggf5Mw8-34" value="LLM" style="rounded=0;whiteSpace=wrap;html=1;" parent="VbjRo9HtqSkB1Ggf5Mw8-81" vertex="1">
          <mxGeometry x="30" y="30" width="80" height="30" as="geometry" />
        </mxCell>
        <mxCell id="VbjRo9HtqSkB1Ggf5Mw8-82" value="" style="group" parent="1" vertex="1" connectable="0">
          <mxGeometry x="805" y="216" width="120" height="60" as="geometry" />
        </mxCell>
        <mxCell id="VbjRo9HtqSkB1Ggf5Mw8-18" value="" style="rounded=0;whiteSpace=wrap;html=1;" parent="VbjRo9HtqSkB1Ggf5Mw8-82" vertex="1">
          <mxGeometry width="90" height="30" as="geometry" />
        </mxCell>
        <mxCell id="VbjRo9HtqSkB1Ggf5Mw8-19" value="" style="rounded=0;whiteSpace=wrap;html=1;" parent="VbjRo9HtqSkB1Ggf5Mw8-82" vertex="1">
          <mxGeometry x="10" y="10" width="90" height="30" as="geometry" />
        </mxCell>
        <mxCell id="VbjRo9HtqSkB1Ggf5Mw8-20" value="" style="rounded=0;whiteSpace=wrap;html=1;" parent="VbjRo9HtqSkB1Ggf5Mw8-82" vertex="1">
          <mxGeometry x="20" y="20" width="90" height="30" as="geometry" />
        </mxCell>
        <mxCell id="VbjRo9HtqSkB1Ggf5Mw8-21" value="stable-diffusion" style="rounded=0;whiteSpace=wrap;html=1;" parent="VbjRo9HtqSkB1Ggf5Mw8-82" vertex="1">
          <mxGeometry x="30" y="30" width="90" height="30" as="geometry" />
        </mxCell>
        <mxCell id="VbjRo9HtqSkB1Ggf5Mw8-86" value="" style="group" parent="1" vertex="1" connectable="0">
          <mxGeometry x="790" y="306" width="150" height="60" as="geometry" />
        </mxCell>
        <mxCell id="VbjRo9HtqSkB1Ggf5Mw8-23" value="" style="rounded=0;whiteSpace=wrap;html=1;" parent="VbjRo9HtqSkB1Ggf5Mw8-86" vertex="1">
          <mxGeometry width="120" height="30" as="geometry" />
        </mxCell>
        <mxCell id="VbjRo9HtqSkB1Ggf5Mw8-83" value="" style="rounded=0;whiteSpace=wrap;html=1;" parent="VbjRo9HtqSkB1Ggf5Mw8-86" vertex="1">
          <mxGeometry x="10" y="10" width="120" height="30" as="geometry" />
        </mxCell>
        <mxCell id="VbjRo9HtqSkB1Ggf5Mw8-84" value="" style="rounded=0;whiteSpace=wrap;html=1;" parent="VbjRo9HtqSkB1Ggf5Mw8-86" vertex="1">
          <mxGeometry x="20" y="20" width="120" height="30" as="geometry" />
        </mxCell>
        <mxCell id="VbjRo9HtqSkB1Ggf5Mw8-85" value="Klasifikacijski model" style="rounded=0;whiteSpace=wrap;html=1;" parent="VbjRo9HtqSkB1Ggf5Mw8-86" vertex="1">
          <mxGeometry x="30" y="30" width="120" height="30" as="geometry" />
        </mxCell>
        <mxCell id="VbjRo9HtqSkB1Ggf5Mw8-93" value="&lt;font color=&quot;#5c5c5c&quot; style=&quot;font-size: 8px;&quot;&gt;Seznam dostopnih modelov&lt;/font&gt;" style="text;html=1;align=left;verticalAlign=middle;whiteSpace=wrap;rounded=0;labelPosition=center;verticalLabelPosition=middle;" parent="1" vertex="1">
          <mxGeometry x="205" y="130" width="105" height="10" as="geometry" />
        </mxCell>
        <mxCell id="VbjRo9HtqSkB1Ggf5Mw8-94" value="&lt;font color=&quot;#5c5c5c&quot;&gt;&lt;span style=&quot;font-size: 8px;&quot;&gt;Učenje oz. nadgradnja modela&lt;/span&gt;&lt;/font&gt;" style="text;html=1;align=left;verticalAlign=middle;whiteSpace=wrap;rounded=0;labelPosition=center;verticalLabelPosition=middle;" parent="1" vertex="1">
          <mxGeometry x="205" y="160" width="115" height="10" as="geometry" />
        </mxCell>
        <mxCell id="VbjRo9HtqSkB1Ggf5Mw8-95" value="&lt;font color=&quot;#5c5c5c&quot;&gt;&lt;span style=&quot;font-size: 8px;&quot;&gt;Klasificiranje sliki&lt;/span&gt;&lt;/font&gt;" style="text;html=1;align=left;verticalAlign=middle;whiteSpace=wrap;rounded=0;labelPosition=center;verticalLabelPosition=middle;" parent="1" vertex="1">
          <mxGeometry x="205" y="190" width="115" height="10" as="geometry" />
        </mxCell>
        <mxCell id="VbjRo9HtqSkB1Ggf5Mw8-96" value="&lt;font color=&quot;#5c5c5c&quot;&gt;&lt;span style=&quot;font-size: 8px;&quot;&gt;Generacija odgovora LLM modela&lt;/span&gt;&lt;/font&gt;" style="text;html=1;align=left;verticalAlign=middle;whiteSpace=wrap;rounded=0;labelPosition=center;verticalLabelPosition=middle;" parent="1" vertex="1">
          <mxGeometry x="205" y="220" width="125" height="10" as="geometry" />
        </mxCell>
        <mxCell id="VbjRo9HtqSkB1Ggf5Mw8-99" value="&lt;font color=&quot;#5c5c5c&quot;&gt;&lt;span style=&quot;font-size: 8px;&quot;&gt;Generacija embeddinga sliki&lt;/span&gt;&lt;/font&gt;" style="text;html=1;align=left;verticalAlign=middle;whiteSpace=wrap;rounded=0;labelPosition=center;verticalLabelPosition=middle;" parent="1" vertex="1">
          <mxGeometry x="205" y="250" width="125" height="10" as="geometry" />
        </mxCell>
        <mxCell id="VbjRo9HtqSkB1Ggf5Mw8-114" style="edgeStyle=orthogonalEdgeStyle;rounded=0;orthogonalLoop=1;jettySize=auto;html=1;" parent="1" source="VbjRo9HtqSkB1Ggf5Mw8-113" target="VbjRo9HtqSkB1Ggf5Mw8-46" edge="1">
          <mxGeometry relative="1" as="geometry" />
        </mxCell>
        <mxCell id="VbjRo9HtqSkB1Ggf5Mw8-115" style="edgeStyle=orthogonalEdgeStyle;rounded=0;orthogonalLoop=1;jettySize=auto;html=1;" parent="1" source="-vIotHG_nZlyd3AYU9EI-48" target="VbjRo9HtqSkB1Ggf5Mw8-38" edge="1">
          <mxGeometry relative="1" as="geometry" />
        </mxCell>
        <mxCell id="VbjRo9HtqSkB1Ggf5Mw8-113" value="" style="shape=waypoint;sketch=0;fillStyle=solid;size=6;pointerEvents=1;points=[];fillColor=none;resizable=0;rotatable=0;perimeter=centerPerimeter;snapToPoint=1;" parent="1" vertex="1">
          <mxGeometry x="340" y="410" width="20" height="20" as="geometry" />
        </mxCell>
        <mxCell id="VbjRo9HtqSkB1Ggf5Mw8-119" value="" style="group" parent="1" vertex="1" connectable="0">
          <mxGeometry x="590" y="204" width="144.28999999999996" height="82" as="geometry" />
        </mxCell>
        <mxCell id="VbjRo9HtqSkB1Ggf5Mw8-108" value="" style="shape=image;verticalLabelPosition=bottom;labelBackgroundColor=default;verticalAlign=top;aspect=fixed;imageAspect=0;image=https://miro.medium.com/v2/resize:fit:512/1*IMGOKBIN8qkOBt5CH55NSw.png;" parent="VbjRo9HtqSkB1Ggf5Mw8-119" vertex="1">
          <mxGeometry x="29" width="80" height="40" as="geometry" />
        </mxCell>
        <mxCell id="VbjRo9HtqSkB1Ggf5Mw8-109" value="" style="shape=image;verticalLabelPosition=bottom;labelBackgroundColor=default;verticalAlign=top;aspect=fixed;imageAspect=0;image=https://upload.wikimedia.org/wikipedia/commons/thumb/c/c3/Python-logo-notext.svg/800px-Python-logo-notext.svg.png;direction=east;" parent="VbjRo9HtqSkB1Ggf5Mw8-119" vertex="1">
          <mxGeometry y="17" width="30" height="32.88" as="geometry" />
        </mxCell>
        <mxCell id="VbjRo9HtqSkB1Ggf5Mw8-118" value="" style="shape=image;verticalLabelPosition=bottom;labelBackgroundColor=default;verticalAlign=top;aspect=fixed;imageAspect=0;image=data:image/png,iVBORw0KGgoAAAANSUhEUgAADOQAAAehCAYAAAAYf78bAAAAGXRFWHRTb2Z0d2FyZQBBZG9iZSBJbWFnZVJlYWR5ccllPAAAs+pJREFUeNrswQEBAAAAgJD+r+4ICgAAAAAAAAAAAAAAAAAAAAAAAAAAAAAAAAAAAAAAAAAAAAAAAAAAAAAAAAAAAAAAAAAAAAAAAAAAAAAAAAAAAAAAAAAAAAAAAAAAAAAAAAAAAAAAAAAAAAAAAAAAAAAAAAAAAAAAAAAAAAAAAAAAAAAAAAAAAAAAAAAAAAAAAAAAAAAAAAAAAAAAAAAAAAAAAAAAAAAAAAAAAAAAAAAAAAAAAAAAAAAAAAAAAAAAAAAAAAAAAAAAAAAAAAAAAAAAAAAAAAAAAAAAAAAAAAAAAAAAAAAAAAAAAAAAAAAAAAAAAAAAAAAAAAAAAAAAAAAAAAAAAAAAAAAAAAAAAAAAAAAAAAAAAAAAAAAAAAAAAAAAAAAAAAAAAAAAAAAAAAAAAAAAAAAAAAAAAAAAAAAAAAAAAAAAAAAAAAAAAAAAAAAAAAAAAAAAAAAAAAAAAAAAAAAAAAAAAAAAAAAAAAAAAAAAAAAAAAAAAAAAAAAAAAAAAAAAAAAAAAAAAAAAAAAAAAAAAAAAAAAAAAAAAAAAAAAAAAAAAAAAAAAAAAAAAAAAAAAAAAAAAAAAAAAAAAAAAAAAAAAAAAAAAAAAAAAAAAAAAAAAAAAAAAAAAAAAAAAAAAAAAAAAAAAAAAAAAAAAAAAAAAAAAAAAAAAAAAAAAAAAAAAAAAAAAAAAAAAAAAAAAAAAAAAAAAAAAAAAAAAAAAAAAAAAAAAAAAAAAAAAAAAAAAAAAAAAAAAAAAAAAAAAAAAAAAAAAAAAAAAAAAAAAAAAAAAAAAAAAAAAAAAAAAAAAAAAAAAAAAAAAAAAAAAAAAAAAAAAAAAAAAAAAAAAAAAAAAAAAAAAAAAAAAAAAAAAAAAAAAAAAAAAAAAAAAAAAAAAAAAAAAAAAAAAAAAAAAAAAAAAAAAAAAAAAAAAAAAAAAAAAAAAAAAAAAAAAAAAAAAAAAAAAAAAAAAAAAAAAAAAAAAAAAAAAAAAAAAAAAAAAAAAAAAAAAAAAAAAAAAAAAAAAAAAAAAAAAAAAAAAAAAAAAAAAAAAAAAAAAAAAAAAAAAAAAAAAAAAAAAAAAAAAAAAAAAAAAAAAAAAAAAAAAAAAAAAAAAAAAAAAAAAAAAAAAAAAAAAAAAAAAAAAAAAAAAAAAAAAAAAAAAAAAAAAAAAAAAAAAAAAAAAAAAAAAAAAAAAAAAAAAAAAAAAAAAAAAAAAAAAAAAAAAAAAAAAAAAAAAAAAAAAAAAAAAAAAAAAAAAAAAAAAAAAAAAAAAAAAAAAAAAAAAAAAAAAAAAAAAAAAAAAAAAAAAAAAAAAAAAAAAAAAAAAAAAAAAAAAAAAAAAAAAAAAAAAAAAAAAAAAAAAAAAAAAAAAAAAAAAAAAAAAAAAAAAAAAAAAAAAAAAAAAAAAAAAAAAAAAAAAAAAAAAAAAAAAAAAAAAAAAAAAAAAAAAAAAAAAAAAAAAAAAAAAAAAAAAAAAAAAAAAAAAAAAAAAAAAAAAAAAAAAAAAAAAAAAAAAAAAAAAAAAAAAAAAAAAAAAAAAAAAAAAAAAAAAAAAAAAAAAAAAAAAAAAAAAAAAAAAAAAAAAAAAAAAAAAAAAAAAAAAAAAAAAAAAAAAAAAAAAAAAAAAAAAAAAAAAAAAAAAAAAAAAAAAAAAAAAAAAAAAAAAAAAAAAAAAAAAAAAAAAAAAAAAAAAAAAAAAAAAAAAAAAAAAAAAAAAAAAAAAAAAAAAAAAAAAAAAAAAAAAAAAAAAAAAAAAAAAAAAAAAAAAAAAAAAAAAAAAAAAAAAAAAAAAAAAAAAAAAAAAAAAAAAAAAAAAAAAAAAAAAAAAAAAAAAAAAAAAAAAAAAAAAAAAAAAAAAAAAAAAAAAAAAAAAAAAAAAAAAAAAAAAAAAAAAAAAAAAAAAAAAAAAAAAAAAAAAAAAAAAAAAAAAAAAAAAAAAAAAAAAAAAAAAAAAAAAAAAAAAAAAAAAAAAAAAAAAAAAAAAAAAAAAAAAAAAAAAAAAAAAAAAAAAAAAAAAAAAAAAAAAAAAAAAAAAAAAAAAAAAAAAAAAAAAAAAAAAAAAAAAAAAAAAAAAAAAAAAAAAAAAAAAAAAAAAAAAAAAAAAAAAAAAAAAAAAAAAAAAAAAAAAAAAAAAAAAAAAAAAAAAAAAAAAAAAAAAAAAAAAAAAAAAAAAAAAAAAAAAAAAAAAAAAAAAAAAAAAAAAAAAAAAAAAAAAAAAAAAAAAAAAAAAAAAAAAAAAAAAAAAAAAAAAAAAAAAAAAAAAAAAAAAAAAAAAAAAAAAAAAAAAAAAAAAAAAAAAAAAAAAAAAAAAAAAAAAAAAAAAAAAAAAAAAAAAAAAAAAAAAAAAAAAAAAAAAAAAAAAAAAAAAAAAAAAAAAAAAAAAAAAAAAAAAAAAAAAAAAAAAAAAAAAAAAAAAAAAAAAAAAAAAAAAAAAAAAAAAAAAAAAAAAAAAAAAAAAAAAAAAAAAAAAAAAAAAAAAAAAAAAAAAAAAAAAAAAAAAAAAAAAAAAAAAAAAAAAAAAAAAAAAAAAAAAAAAAAAAAAAAAAAAAAAAAAAAAAAAAAAAAAAAAAAAAAAAAAAAAAAAAAAAAAAAAAAAAAAAAAAAAAAAAAAAAAAAAAAAAAAAAAAAAAAAAAAAAAAAAAAAAAAAAAAAAAAAAAAAAAAAAAAAAAAAAAAAAAAAAAAAAAAAAAAAAAAAAAAAAAAAAAAAAAAAAAAAAAAAAAAAAAAAAAAAAAAAAAAAAAAAAAAAAAAAAAAAAAAAAAAAAAAAAAAAAAAAAAAAAAAAAAAAAAAAAAAAAAAAAAAAAAAAAAAAAAAAAAAAAAAAAAAAAAAAAAAAAAAAAAAAAAAAAAAAAAAAAAAAAAAAAAAAAAAAAAAAAAAAAAAAAAAAAAAAAAAAAAAAAAAAAAAAAAAAAAAAAAAAAAAAAAAAAAAAAAAAAAAAAAAAAAAAAAAAAAAAAAAAAAAAAAAAAAAAAAAAAAAAAAAAAAAAAAAAAAAAAAAAAAAAAAAAAAAAAAAAAAAAAAAAAAAAAAAAAAAAAAAAAAAAAAAAAAAAAAAAAAAAAAAAAAAAAAAAAAAAAAAAAAAAAAAAAAAAAAAAAAAAAAAAAAAAAAAAAAAAAAAAAAAAAAAAAAAAAAAAAAAAAAAAAAAAAAAAAAAAAAAAAAAAAAAAAAAAAAAAAAAAAAAAAAAAAAAAAAAAAAAAAAAAAAAAAAAAAAAAAAAAAAAAAAAAAAAAAAAAAAAAAAAAAAAAAAAAAAAAAAAAAAAAAAAAAAAAAAAAAAAAAAAAAAAAAAAAAAAAAAAAAAAAAAAAAAAAAAAAAAAAAAAAAAAAAAAAAAAAAAAAAAAAAAAAAAAAAAAAAAAAAAAAAAAAAAAAAAAAAAAAAAAAAAAAAAAAAAAAAAAAAAAAAAAAAAAAAAAAAAAAAAAAAAAAAAAAAAAAAAAAAAAAAAAAAAAAAAAAAAAAAAAAAAAAAAAAAAAAAAAAAAAAAAAAAAAAAAAAAAAAAAAAAAAAAAAAAAAAAAAAAAAAAAAAAAAAAAAAAAAAAAAAAAAAAAAAAAAAAAAAAAAAAAAAAAAAAAAAAAAAAAAAAAAAAAAAAAAAAAAAAAAAAAAAAAAAAAAAAAAAAAAAAAAAAAAAAAAAAAAAAAAAAAAAAAAAAAAAAAAAAAAAAAAAAAAAAAAAAAAAAAAAAAAAAAAAAAAAAAAAAAAAAAAAAAAAAAAAAAAAAAAAAAAAAAAAAAAAAAAAAAAAAAAAAAAAAAAAAAAAAAAAAAAAAAAAAAAAAAAAAAAAAAAAAAAAAAAAAAAAAAAAAAAAAAAAAAAAAAAAAAAAAAAAAAAAAAAAAAAAAAAAAAAAAAAAAAAAAAAAAAAAAAAAAAAAAAAAAAAAAAAAAAAAAAAAAAAAAAAAAAAAAAAAAAAAAAAAAAAAAAAAAAAAAAAAAAAAAAAAAAAAAAAAAAAAAAAAAAAAAAAAAAAAAAAAAAAAAAAAAAAAAAAAAAAAAAAAAAAAAAAAAAAAAAAAAAAAAAAAAAAAAAAAAAAAAAAAAAAAAAAAAAAAAAAAAAAAAAAAAAAAAAAAAAAAAAAAAAAAAAAAAAAAAAAAAAAAAAAAAAAAAAAAAAAAAAAAAAAAAAAAAAAAAAAAAAAAAAAAAAAAAAAAAAAAAAAAAAAAAAAAAAAAAAAAAAAAAAAAAAAAAAAAAAAAAAAAAAAAAAAAAAAAAAAAAAAAAAAAAAAAAAAAAAAAAAAAAAAAAAAAAAAAAAAAAAAAAAAAAAAAAAAAAAAAAAAAAAAAAAAAAAAAAAAAAAAAAAAAAAAAAAAAAAAAAAAAAAAAAAAAAAAAAAAAAAAAAAAAAAAAAAAAAAAAAAAAAAAAAAAAAAAAAAAAAAAAAAAAAAAAAAAAAAAAAAAAAAAAAAAAAAAAAAAAAAAAAAAAAAAAAAAAAAAAAAAAAAAAAAAAAAAAAAAAAAAAAAAAAAAAAAAAAAAAAAAAAAAAAAAAAAAAAAAAAAAAAAAAAAAAAAAAAAAAAAAAAAAAAAAAAAAAAAAAAAAAAAAAAAAAAAAAAAAAAAAAAAAAAAAAAAAAAAAAAAAAAAAAAAAAAAAAAAAAAAAAAAAAAAAAAAAAAAAAAAAAAAAAAAAAAAAAAAAAAAAAAAAAAAAAAAAAAAAAAAAAAAAAAAAAAAAAAAAAAAAAAAAAAAAAAAAAAAAAAAAAAAAAAAAAAAAAAAAAAAAAAAAAAAAAAAAAAAAAAAAAAAAAAAAAAAAAAAAAAAAAAAAAAAAAAAAAAAAAAAAAAAAAAAAAAAAAAAAAAAAAAAAAAAAAAAAAAAAAAAAAAAAAAAAAAAAAAAAAAAAAAAAAAAAAAAAAAAAAAAAAAAAAAAAAAAAAAAAAAAAAAAAAAAAAAAAAAAAAAAAAAAAAAAAAAAAAAAAAAAAAAAAAAAAAAAAAAAAAAAAAAAAAAAAAAAAAAAAAAAAAAAAAAAAAAAAAAAAAAAAAAAAAAAAAAAAAAAAAAAAAAAAAAAAAAAAAAAAAAAAAAAAAAAAAAAAAAAAAAAAAAAAAAAAAAAAAAAAAAAAAAAAAAAAAAAAAAAAAAAAAAAAAAAAAAAAAAAAAAAAAAAAAAAAAAAAAAAAAAAAAAAAAAAAAAAAAAAAAAAAAAAAAAAAAAAAAAAAAAAAAAAAAAAAAAAAAAAAAAAAAAAAAAAAAAAAAAAAAAAAAAAAAAAAAAAAAAAAAAAAAAAAAAAAAAAAAAAAAAAAAAAAAAAAAAAAAAAAAAAAAAAAAAAAAAAAAAAAAAAAAAAAAAAAAAAAAAAAAAAAAAAAAAAAAAAAAAAAAAAAAAAAAAAAAAAAAAAAAAAAAAAAAAAAAAAAAAAAAAAAAAAAAAAAAAAAAAAAAAAAAAAAAAAAAAAAAAAAAAAAAAAAAAAAAAAAAAAAAAAAAAAAAAAAAAAAAAAAAAAAAAAAAAAAAAAAAAAAAAAAAAAAAAAAAAAAAAAAAAAAgNmDAxIAAAAAQf9f9yNUAAAAAAAAAAAAAAAAAAAAAAAAAAAAAAAAAAAAAAAAAAAAAAAAAAAAAAAAAAAAAAAAAAAAAAAAAAAAAAAAAAAAAAAAAAAAAAAAAAAAAAAAAAAAAAAAAAAAAAAAAAAAAAAAAAAAAAAAAAAAAAAAAAAAAAAAAAAAAAAAAAAAAAAAAAAAAAAAAAAAAAAAAAAAAAAAAAAAAAAAAAAAAAAAAAAAAAAAAAAAAAAAAAAAAAAAAAAAAAAAAAAAAAAAAAAAAAAAAAAAAAAAAAAAAAAAAAAAAAAAAAAAAAAAAAAAAAAAAAAAAAAAAAAAAAAAAAAAAAAAAAAAAAAAAAAAAAAAAAAAAAAAAAAAAAAAAAAAAAAAAAAAAAAAAAAAAAAAAAAAAAAAAAAAAAAAAAAAAAAAAAAAAAAAAAAAAAAAAAAAAAAAAAAAAAAAAAAAAAAAAAAAAAAAAAAAAAAAAAAAAAAAAAAAAAAAAAAAAAAAAAAAAAAAAAAAAAAAAAAAAAAAAAAAAAAAAAAAAAAAAAAAAAAAAAAAAAAAAAAAAAAAAAAAAAAAAAAAAAAAAAAAAAAAAAAAAAAAAAAAAAAAAAAAAAAAAAAAAAAAAAAAAAAAAAAAAAAAAAAAAAAAAAAAAAAAAAAAAAAAAAAAAAAAAAAAAAAAAAAAAAAAAAAAAAAAAAAAAAAAAAAAAAAAAAAAAAAAAAAAAAAAAAAAAAAAAAAAAAAAAAAAAAAAAAAAAAAAAAAAAAAAAAAAAAAAAAAAAAAAAAAAAAAAAAAAAAAAAAAAAAAAAAAAAAAAAAAAAAAAAAAAAAAAAAAAAAAAAAAAAAAAAAAAAAAAAAAAAAAAAAAAAAAAAAAAAAAAAAAAAAAAAAAAAAAAAAAAAAAAAAAAAAAAAAAAAAAAAAAAAAAAAAAAAAAAAAAAAAAAAAAAAAAAAAAAAAAAAAAAAAAAAAAAAAAAAAAAAAAAAAAAAAAAAAAAAAAAAAAAAAAAAAAAAAAAAAAAAAAAAAAAAAAAAAAAAAAAAAAAAAAAAAAAAAAAAAAAAAAAAAAAAAAAAAAAAAAAAAAAAAAAAAAAAAAAAAAAAAAAAAAAAAAAAAAAAAAAAAAAAAAAAAAAAAAAAAAAAAAAAAAAAAAAAAAAAAAAAAAAAAAAAAAAAAAAAAAAAAAAAAAAAAAAAAAAAAAAAAAAAAAAAAAAAAAAAAAAAAAAAAAAAAAAAAAAAAAAAAAAAAAAAAAAAAAAAAAAAAAAAAAAAAAAAAAAAAAAAAAAAAAAAAAAAAAAAAAAAAAAAAAAAAAAAAAAAAAAAAAAAAAAAAAAAAAAAAAAAAAAAAAAAAAAAAAAAAAAAAAAAAAAAAAAAAAAAAAAAAAAAAAAAAAAAAAAAAAAAAAAAAAAAAAAAAAAAAAAAAAAAAAAAAAAAAAAAAAAAAAAAAAAAAAAAAAAAAAAAAAAAAAAAAAAAAAAAAAAAAAAAAAAAAAAAAAAAAAAAAAAAAAAAAAAAAAAAAAAAAAAAAAAAAAAAAAAAAAAAAAAAAAAAAAAAAAAAAAAAAAAAAAAAAAAAAAAAAAAAAAAAAAAAAAAAAAAAAAAAAAAAAAAAAAAAAAAAAAAAAAAAAAAAAAAAAAAAAAAAAAAAAAAAAAAAAAAAAAAAAAAAAAAAAAAAAAAAAAAAAAAAAAAAAAAAAAAAAAAAAAAAAAAAAAAAAAAAAAAAAAAAAAAAAAAAAAAAAAAAAAAAAAAAAAAAAAAAAAAAAAAAAAAAAAAAAAAAAAAAAAAAAAAAAAAAAAAAAAAAAAAAAAAAAAAAAAAAAAAAAAAAAAAAAAAAAAAAAAAAAAAAAAAAAAAAAAAAAAAAAAAAAAAAAAAAAAAAAAAAAAAAAAAAAAAAAAAAAAAAAAAAAAAAAAAAAAAAAAAAAAAAAAAAAAAAAAAAAAAAAAAAAAAAAAAAAAAAAAAAAAAAAAAAAAAAAAAAAAAAAAAAAAAAAAAAAAAAAAAAAAAAAAAAAAAAAAAAAAAAAAAAAAAAAAAAAAAAAAAAAAAAAAAAAAAAAAAAAAAAAAAAAAAAAAAAAAAAAAAAAAAAAAAAAAAAAAAAAAAAAAAAAAAAAAAAAAAAAAAAAAAAAAAAAAAAAAAAAAAAAAAAAAAAAAAAAAAAAAAAAAAAAAAAAAAAAAAAAAAAAAAAAAAAAAAAAAAAAAAAAAAAAAAAAAAAAAAAAAAAAAAAAAAAAAAAAAAAAAAAAAAAAAAAAAAAAAAAAAAAAAAAAAAAAAAAAAAAAAAAAAAAAAAAAAAAAAAAAAAAAAAAAAAAAAAAAAAAAAAAAAAAAAAAAAAAAAAAAAAAAAAAAAAAAAAAAAAAAAAAAAAAAAAAAAAAAAAAAAAAAAAAAAAAAAAAAAAAAAAAAAAAAAAAAAAAAAAAAAAAAAAAAAAAAAAAAAAAAAAAAAAAAAAAAAAAAAAAAAAAAAAAAAAAAAAAAAAAAAAAAAAAAAAAAAAAAAAAAAAAAAAAAAAAAAAAAAAAAAAAAAAAAAAAAAAAAAAAAAAAAAAAAAAAAAAAAAAAAAAAAAAAAAAAAAAAAAAAAAAAAAAAAAAAAAAAAAAAAAAAAAAAAAAAAAAAAAAAAAAAAAAAAAAAAAAAAAAAAAAAAAAAAAAAAAAAAAAAAAAAAAAAAAAAAAAAAAAAAAAAAAAAAAAAAAAAAAAAAAAAAAAAAAAAAAAAAAAAAAAAAAAAAAAAAAAAAAAAAAAAAAAAAAAAAAAAAAAAAAAAAAAAAAAAAAAAAAAAAAAAAAAAAAAAAAAAAAAAAAAAAAAAAAAAAAAAAAAAAAAAAAAAAAAAAAAAAAAAAAAAAAAAAAAAAAAAAAAAAAAAAAAAAAAAAAAAAAAAAAAAAAAAAAAAAAAAAAAAAAAAAAAAAAAAAAAAAAAAAAAAAAAAAAAAAAAAAAAAAAAAAAAAAAAAAAAAAAAAAAAAAAAAAAAAAAAAAAAAAAAAAAAAAAAAAAAAAAAAAAAAAAAAAAAAAAAAAAAAAAAAAAAAAAAAAAAAAAAAAAAAAAAAAAAAAAAAAAAAAAAAAAAAAAAAAAAAAAAAAAAAAAAAAAAAAAAAAAAAAAAAAAAAAAAAAAAAAAAAAAAAAAAAAAAAAAAAAAAAAAAAAAAAAAAAAAAAAAAAAAAAAAAAAAAAAAAAAAAAAAAAAAAAAAAAAAAAAAAAAAAAAAAAAAAAAAAAAAAAAAAAAAAAAAAAAAAAAAAAAAAAAAAAAAAAAAAAAAAAAAAAAAAAAAAAAAAAAAAAAAAAAAAAAAAAAAAAAAAAAAAAAAAAAAAAAAAAAAAAAAAAAAAAAAAAAAAAAAAAAAAAAAAAAAAAAAAAAAAAAAAAAAAAAAAAAAAAAAAAAAAAAAAAAAAAAAAAAAAAAAAAAAAAAAAAAAAAAAAAAAAAAAAAAAAAAAAAAAAAAAAAAAAAAAAAAAAAAAAAAAAAAAAAAAAAAAAAAAAAAAAAAAAAAAAAAAAAAAAAAAAAAAAAAAAAAAAAAAAAAAAAAAAAAAAAAAAAAAAAAAAAAAAAAAAAAAAAAAAAAAAAAAAAAAAAAAAAAAAAAAAAAAAAAAAAAAAAAAAAAAAAAAAAAAAAAAAAAAAAAAAAAAAAAAAAAAAAAAAAAAAAAAAAAAAAAAAAAAAAAAAAAAAAAAAAAAAAAAAAAAAAAAAAAAAAAAAAAAAAAAAAAAAAAAAAAAAAAAAAAAAAAAAAAAAAAAAAAAAAAAAAAAAAAAAAAAAAAAAAAAAAAAAAAAAAAAAAAAAAAAAAAAAAAAAAAAAAAAAAAAAAAAAAAAAAAAAAAAAAAAAAAAAAAAAAAAAAAAAAAAAAAAAAAAAAAAAAAAAAAAAAAAAAAAAAAAAAAAAAAAAAAAAAAAAAAAAAAAAAAAAAAAAAAAAAAAAAAAAAAAAAAAAAAAAAAAAAAAAAAAAAAAAAAAAAAAAAAAAAAAAAAAAAAAAAAAAAAAAAAAAAAAAAAAAAAAAAAAAAAAAAAAAAAAAAAAAAAAAAAAAAAAAAAAAAAAAAAAAAAAAAAAAAAAAAAAAAAAAAAAAAAAAAAAAAAAAAAAAAAAAAAAAAAAAAAAAAAAAAAAAAAAAAAAAAAAAAAAAAAAAAAAAAAAAAAAAAAAAAAAAAAAAAAAAAAAAAAAAAAAAAAAAAAAAAAAAAAAAAAAAAAAAAAAAAAAAAAAAAAAAAAAAAAAAAAAAAAAAAAAAAAAAAAAAAAAAAAAAAAAAAAAAAAAAAAAAAAAAAAAAAAAAAAAAAAAAAAAAAAAAAAAAAAAAAAAAAAAAAAAAAAAAAAAAAAAAAAAAAAAAAAAAAAAAAAAAAAAAAAAAAAAAAAAAAAAAAAAAAAAAAAAAAAAAAAAAAAAAAAAAAAAAAAAAAAAAAAAAAAAAAAAAAAAAAAAAAAAAAAAAAAAAAAAAAAAAAAAAAAAAAAAAAAAAAAAAAAAAAAAAAAAAAAAAAAAAAAAAAAAAAAAAAAAAAAAAAAAAAAAAAAAAAAAAAAAAAAAAAAAAAAAAAAAAAAAAAAAAAAAAAAAAAAAAAAAAAAAAAAAAAAAAAAAAAAAAAAAAAAAAAAAAAAAAAAAAAAAAAAAAAAAAAAAAAAAAAAAAAAAAAAAAAAAAAAAAAAAAAAAAAAAAAAAAAAAAAAAAAAAAAAAAAAAAAAAAAAAAAAAAAAAAAAAAAAAAAAAAAAAAAAAAAAAAAAAAAAAAAAAAAAAAAAAAAAAAAAAAAAAAAAAAAAAAAAAAAAAAAAAAAAAAAAAAAAAAAAAAAAAAAAAAAAAAAAAAAAAAAAAAAAAAAAAAAAAAAAAAAAAAAAAAAAAAAAAAAAAAAAAAAAAAAAAAAAAAAAAAAAAAAAAAAAAAAAAAAAAAAAAAAAAAAAAAAAAAAAAAAAAAAAAAAAAAAAAAAAAAAAAAAAAAAAAAAAAAAAAAAAAAAAAAAAAAAAAAAAAAAAAAAAAAAAAAAAAAAAAAAAAAAAAAAAAAAAAAAAAAAAAAAAAAAAAAAAAAAAAAAAAAAAAAAAAAAAAAAAAAAAAAAAAAAAAAAAAAAAAAAAAAAAAAAAAAAAAAAAAAAAAAAAAAAAAAAAAAAAAAAAAAAAAAAAAAAAAAAAAAAAAAAAAAAAAAAAAAAAAAAAAAAAAAAAAAAAAAAAAAAAAAAAAAAAAAAAAAAAAAAAAAAAAAAAAAAAAAAAAAAAAAAAAAAAAAAAAAAAAAAAAAAAAAAAAAAAAAAAAAAAAAAAAAAAAAAAAAAAAAAAAAAAAAAAAAAAAAAAAAAAAAAAAAAAAAAAAAAAAAAAAAAAAAAAAAAAAAAAAAAAAAAAAAAAAAAAAAAAAAAAAAAAAAAAAAAAAAAAAAAAAAAAAAAAAAAAAAAAAAAAAAAAAAAAAAAAAAAJYSgL07327juPIAXK2D91LRT+A3mMkfI1t2Jpl4U+I47oYsL3Ec75uUyeJ5Aj+Bu/1kNVVNkIFoUgJALL183zn3NGI7FHiB6m5Q9eMFAAAAAAAAAAAAAAAAAAAAAAAAAAAAAAAAAAAAAAAAAAAAAAAAAAAAAAAAAAAAAAAAAAAAAAAAAAAAAAAAAAAAAAAAAAAAAAAAAAAAAAAAAAAAAAAAAAAAAAAAAAAAAAAAAAAAAAAAAAAAAAAAAAAAAAAAAAAAAAAAAAAAAAAAAAAAAAAAAAAAAAAAAAAAAAAAAAAAAAAAAAAAAAAAAAAAAAAAAAAAAAAAAAAAAAAAAAAAAAAAAAAAAAAAAAAAAAAAAAAAAAAAAAAAAAAAAAAAAAAAAAAAAAAAAAAAAAAAAAAAAAAAAAAAAAAAAAAAAAAAAAAAAAAAAAAAAAAAAAAAAAAAAAAAAAAAAAAAAAAAAAAAAAAAAAAAAAAAAAAAAAAAAAAAAAAAAAAAAAAAAAAAAAAAAAAAAAAAAAAAAAAAAAAAAAAAAAAAAAAAAAAAAAAAAAAAAAAAAAAAAAAAAAAAAAAAAAAAAAAAAAAAAAAAAAAAAAAAAAAAAAAAAAAAAAAAAAAAAAAAAAAAAAAAAAAAAAAAAAAAAAAAAAAAAAAAAAAAAAAAAAAAAAAAAAAAAAAAAAAAAAAAAAAAAAAAAAAAAAAAAAAAAAAAAAAAAAAAAAAAAAAAAAAAAAAAAAAAAAAAAAAAAAAAAAAAAAAAAAAAAAAAAAAAAAAAAAAAAAAAAAAAAAAAAAAAAAAAAAAAAAAAAAAAAAAAAAAAAAAAAAAAAAAAAAAAAAAAAAAAAAAAAAAAAAAAAAAAAAAAAAAAAAAAAAAAAAAAAAAAAAAAAAAAAAAAAAAAAAAAAAAAAAAAAAAAAAAAAAAAAAAAAAAAAAAAAAAAAAAAAAAAAAAAAAAAAAAAAAAAAAAAAAAAAAAAAAAAAAAAAAAAAAAAAAAAAAAAAAAAAAAAAAAAAAAAAAAAAAAAAAAAAAAAAAAAAAAAAAAAAAAAAAAAAAAAAAAAAAAAAAAAAAAAAAAAAAAAAAAAAAAAAAAAAAAAAAAAAAAAAAAAAAAAAAAAAAAAAAAAAAAAAAAAAAAAAAAAAAAAAAAAAAAAAAAAAAAAAAAAAAAAAAAAAAAAAAAAAAAAAAAAAAAAAAAAAAAAAAAAAAAAAAAAAAAAAAAAAAAAAAAAAAAAAAAAAAAAAAAAAAAAAAAAAAAAAAAAAAAAAAAAAAAAAAAAAAAAAAAAAAAAAAAAAAAAAAAAAAAAAAAAAAAAAAAAAAAAAAAAAAAAAAAAAAAAAAAAAAAAAAAAAAAAAAAAAAAAAAAAAAAAAAAAAAAAAAAAAAAAmJP059Ds9et9HKKuAgAAAAAAAAAAAMBx3dECADi89FGI6c+hzQ/rPX/pNn2c6y+COQAAAAAAAAAAAABwLAI5AHBAfRDnoz6IUyoe5A+p+q9bQjmNjgMAAAAAAAAAAADA4QnkAMCBpI/6gMzhgji/VKe/hCSYAwAAAAAAAAAAAACHJZADAHtWgji5Un5Yn+gplGBOmZgTvRoAAAAAAAAAAAAAsH+VFgDAfqSP+gBMCeHEZ111qwf7u/6mj0N6zlfrci2rN/sjAAAAAAAAAAAAALAHJuQAwC2VIE6uNj8sFQf29MrzadMnofFKAQAAAAAAAAAAAMB+COQAwC2kD/ugyxCDOFfV6ZOQBHMAAAAAAAAAAAAA4PYEcgBgByWIkyvlh/XInnoJ5pSJOdGrCAAAAAAAAAAAAAC7qbQAADaXPuyDLO1OV9PVf1c92N/1N30c0kZf7fr/psu1rN7ojwAAAAAAAAAAAADAhkzIAYANlCBOrhLEaSf0bcXy/aRPQuMVBgAAAAAAAAAAAIDNCeQAwHOsBXHiRL/FOv01pFyNVxsAAAAAAAAAAAAAnk8gBwBukD4ITfowpDDdIM5VJZjT5opefQAAAAAAAAAAAAC42UILAOBp6YM+kNLO9Nsv33tMfw1dPi6r1/sjAAAAAAAAAAAAALDGhBwAWClBnFwliNPqxnkoqUzM0QoAAAAAAAAAAAAAeJpADgCEPoxzEcSJuvGUMi0n5Wq0AgAAAAAAAAAAAADOCeQAMGvpg9DkSkEQ53nqVTBHnwAAAAAAAAAAAACYvYUWADBH6YM+WNLqxNba9Gno8nFZvdYfAQAAAAAAAAAAAGB2TMgBYFbS+yHmKkEcYZzdxXAezNFDAAAAAAAAAAAAAGZJIAeA2VgL4kTd2IuYPg0pV6MVAAAAAAAAAAAAAMyJQA4Ak5feD02uFARxDqVeBXP0FwAAAAAAAAAAAIBZWGgBAFOV3u8DIq1OHE2bPg1dPi6r1/ojAAAAAAAAAAAAAEySCTkATE4J4uQqQRxhnOOLoQpt+kzvAQAAAAAAAAAAAJgugRwAJiU9ugziRN04qZg+CylXoxUAAAAAAAAAAAAATI1ADgCTkB6FJlcKgjhDU6+COV4XAAAAAAAAAAAAACZDIAeAUVsL4tS6MWht+qyvqBUAAAAAAAAAAAAAjJ1ADgCjlB6FmKsNgjhjEsMqmKMVAAAAAAAAAAAAAIzZQgsAGJMSxAnnIZyoG6MV02f9VKNl9bvQaAcAAAAAAAAAAAAAY2NCDgCjkR714Y0yXSXqxiTU6fOQcjVaAQAAAAAAAAAAAMCYmJADwOCl9/rARq0Tk1WCOXdDmZjzP6HTDgAAAAAAAAAAAACGTiAHgMFK7/WTcEoQJ+rG5JXXOKbP+0COYA4AAAAAAAAAAAAAg3ZHCwAYmhLEydXmh6WijsxKeb3b9Hk/FQkAAAAAAAAAAAAABkkgB4BBSe/1QQxBHOr0eUjpC8EcAAAAAAAAAAAAAIZnoQUADMEqiFPrBFfU6YtwNx+X1W9Dpx0AAAAAAAAAAAAADIFADgAnlR72k3BKECfqBjco742YvugDOYI5AAAAAAAAAAAAAJzcHS0A4BRKECdXmx+WijrCBsr7pE1f9NOUAAAAAAAAAAAAAOBkBHIAOLr0sA9UCOKwqzp9EZJgDgAAAAAAAAAAAACnstACAI5lFcSpdYI9KcGcu/m4rH4bOu0AAAAAAAAAAAAA4FgEcgA4uPSwn4RTgjhRN9iz8p6K6YvQhSosq98I5gAAAAAAAAAAAABweHe0AIBDScsQ08PQ5oeloo5wQOX91aYv+ylMAAAAAAAAAAAAAHBQAjkAHERa9sEIQRyOrU5fhiSYAwAAAAAAAAAAAMAhLbQAgH1aBXFqneDESjDnbj4uq9+ETjsAAAAAAAAAAAAA2CeBHAD2Ii37STitTjAg5T0Z05d9IEcwBwAAAAAAAAAAAIC9uaMFANxGCeLkKkEcYRyGKpb3Z/qqn94EAAAAAAAAAAAAALcmkAPAztaCOFE3GIE6fRWSYA4AAAAAAAAAAAAAtyWQA8DWUhOaXCkI4jBOF8Ec718AAAAAAAAAAAAAdrLQAgA2lZo+wNDqBBPRpq9Cl4/L6r/7IwAAAAAAAAAAAABsxIQcAJ6rBHFylSCOMA5TE8N5MMd7GwAAAAAAAAAAAICNCeQA8ExrQZyoG0xYTF+FlKvRCgAAAAAAAAAAAACeRyAHgGulJjS5UhDEYV7qPpjztfc9AAAAAAAAAAAAADdbaAEA61IdYqj6iTgwZ236OnT5uKx+3R8BAAAAAAAAAAAA4JIJOQD0ShAnVwniCOPAuRjOgznWBAAAAAAAAAAAAABPEcgBIKwFcaJuwC/E9HVIuRqtAAAAAAAAAAAAAKAQyAGYsVSHJlcKgjiwiXoVzLFeAAAAAAAAAAAAAGZuoQUA85PqPlDQ6gTspE1fhy5UYVm9mo8AAAAAAAAAAAAAzI4JOQAzkt4NMdV9EEcYB26jOg+1pW+sJQAAAAAAAAAAAIA5EsgBmIn07mUQJ+oG7E1M34SUq9EKAAAAAAAAAAAAgPkQyAGYuPRuaHKlIIgDh1SvgjnWGQAAAAAAAAAAAMAMLLQAYJpKECcfap2Ao2rTN6HLx2X1an8EAAAAAAAAAAAAYIJMyAGYmPRuiLnaIIwDpxLDeTCn1QoAAAAAAAAAAACAaTIhB2AiShAnnIdwom7AIMT0TUihCsvqlX5iFQAAAAAAAAAAAAATYUIOwASkP/Wb/cs0jqgbMDh1+jakXI1WAAAAAAAAAAAAAEyDCTkAI7YK4tQ6AaNQgjl387FMzOm0AwAAAAAAAAAAAGC8BHIARij9qZ+EU4I4UTdgVMqajenbPpAjmAMAAAAAAAAAAAAwUne0AGA8ShAnV5sfloo6AqNV1m+bvu2nXAEAAAAAAAAAAAAwMgI5ACOR/tRv3BfEgWmp03ch5Wq0AgAAAAAAAAAAAGA8FloAMGzpndCEKtQ6AZNWgjl383FZ3Q+ddgAAAAAAAAAAAAAMm0AOwECld/pJOCWIE3UDZqGs9Zi+6wM5gjkAAAAAAAAAAAAAA3ZHCwCGpQRxcrX5YamoIzA7Zd236bvQaAUAAAAAAAAAAADAMAnkAAxIeqffgC+IAxR1+i4kwRwAAAAAAAAAAACA4VloAcDprYI4tU4A1yjBnLv5uKzuh047AAAAAAAAAAAAAE7PhByAE0rvhJirTMQRxgGeJeZq03e5vjdBCwAAAAAAAAAAAODUBHIATiD9McRcJYhTKuoIsJFqFcz5vp+qBQAAAAAAAAAAAMCJCOQAHJkgDrAHdfo+JMEcAAAAAAAAAAAAgNMQyAE4kvTH0ORKQRAH2J8SzCkTc5xXAAAAAAAAAAAAAI5ooQUAh5X+2G+Ub3UCOJByjonp+9Dl47J6uT8CAAAAAAAAAAAAcEAm5AAcSAni5CpBHGEc4BhiqEKbHodGKwAAAAAAAAAAAAAOSyAH4ADS25dBnKgbwJHV6XFIgjkAAAAAAAAAAAAAhyOQA7BH6e3Q5EpBEAc4vYtgjvMRAAAAAAAAAAAAwJ4ttADg9tLb/Yb3VieAAWrT49Dl47J6qT8CAAAAAAAAAAAAcEsm5ADcQgni5CpBHGEcYMhiOA/mOFcBAAAAAAAAAAAA7IFADsCO1oI4UTeAkYjpcUi5Gq0AAAAAAAAAAAAA2J1ADsCW0tuhyZWCIA4wXnV6ElIu5zEAAAAAAAAAAACAHSy0AGAz6Q/9xvVWJ4AJadOT0OXjsrrXHwEAAAAAAAAAAADYgAk5AM9Rgji5ShBHGAeYohjOgznOcQAAAAAAAAAAAAAbEsgBeIa1IE7UDWDiYnoSUq5GKwAAAAAAAAAAAACeTSAH4BrpD6HJlYIgDjA/9SqY4/wHAAAAAAAAAAAAcIOFFgD8W/pDvwG91QmA0Ka/hS4fl9V/9UcAAAAAAAAAAAAAVkzIAcjS70PMVYI4wjgA/xbDeTDHuREAAAAAAAAAAABgjUAOMGtXgjhRRwCuFdPfQsrVaAUAAAAAAAAAAACAQA4wY+n3/cZyQRyAzdWrYI7zJgAAAAAAAAAAADBrAjnA7JQgTq6UH9a6AbCTNv2tr6gVAAAAAAAAAAAAwBwJ5ACzkR6EmH7fT8QRxAG4vRhWwRytAAAAAAAAAAAAAOZGIAeYvD6I86DfMF4q6gjAXsX0vyHlarQCAAAAAAAAAAAAmAuBHGDS0oN+g7ggDsDh1YI5AAAAAAAAAAAAwFwI5ACTVII4uVJ+WOsGwFGVYE6bK2oFAAAAAAAAAAAAMFUCOcCkpAch5ioTcQRxAE4n5moFcwAAAAAAAAAAAICpEsgBJmEtiFMq6gjAIJTzcQnlNFoBAAAAAAAAAAAATIlADjB66UG/0VsQB2C46vT3kHI1WgEAAAAAAAAAAABMgUAOMFrprdDkSvlhrRsAo1CCOW2uqBUAAAAAAAAAAADAmAnkAKOT3goxV5mII4gDMD4xVyuYAwAAAAAAAAAAAIyZQA4wGmtBnFJRRwBGrZzHSyin0QoAAAAAAAAAAABgbARygFFIb/UbtgVxAKanTn8PSTAHAAAAAAAAAAAAGBOBHGDQ0puhSW+FlB/WugEwaSWYUybmRK0AAAAAAAAAAAAAhk4gBxik9GaIucpEHEEcgPmIoQpt+kdfUTsAAAAAAAAAAACAoRLIAQZlLYhTKuoIwCyV838J5TRaAQAAAAAAAAAAAAyRQA4wGII4AFxRp3+EJJgDAAAAAAAAAAAADI1ADnBy6c3Q5EpBEAeA65VgTpmY4zoBAAAAAAAAAAAADMJCC4BTSW/2G6tbnQBgA+WaEdM/QheqsKx+lY8AAAAAAAAAAAAAJ2JCDnB06Y0Q05t9EEcYB4BtxXL9SP90DQEAAAAAAAAAAABORyAHOKr0xmUQJ+oGALcQ0z9DytVoBQAAAAAAAAAAAHBsAjnAUaQ3QpMrBUEcAParXgVzXF8AAAAAAAAAAACAo1loAXBI6Y1+g3SrEwAcWJv+Gbp8XFa/6o8AAAAAAAAAAAAAB2NCDnAQJYiTqwRxhHEAOJYYzoM5rj0AAAAAAAAAAADAQQnkAHuXXr8M4kTdAODoqhDTv0LK1WgGAAAAAAAAAAAAcAiVFgD7kl7vNz7XG51dtjn7DO1rVXv6s3yt2X6t6sH+rr/p45D28hzHvCZ9rcN8rTGvuV/++7PqP0PnSg0AAAAAAMAxvPDivTS17+mnH5/YZwYAAHDFQguA20qv95NwWp0AYKDa9K8+kLMUzGEIpviXcMAvLH/68UmjDQAAAMAhvPDivSZc/KJE4Dp+PgcAAMBR3NECYFcliJOrBHGEcQAYuhjOgzmuWQAAAAAAAAAAAMCtCeQAO1kL4kTdAGBEYvpXSLkarQAAAAAAAAAAAAB2JZADbCW9HppcKQjiADBudR/M+cH1DAAAAAAAAAAAANjeQguATaTXQgxVPxEHAKakTT+ELh+X1X/0RwAAAAAAAAAAAIDnMiEHeKYSxMlVgjjCOABMVQznwRzXOgAAAAAAAAAAAGAjAjnAta4EcaKOADADMf0QUq5GKwAAAAAAAAAAAIBnEcgBfiG91m9EFsQBYK7qVTDHdRAAAAAAAAAAAAC4lkAOcKkEcXKl/LDWDQAIbfoh1/8J5gAAAAAAAAAAAABPE8gBQvpdiLnKRBxBHABYV/VhnBLKaTUDAAAAAAAAAAAAuCCQAxRxVQDAzddKAAAAAAAAAAAAgJ5ADgAAAAAAAAAAAAAAAGxBIAcAAAAAAAAAAAAAAAC2IJADAAAAAAAAAAAAAAAAWxDIAQAAAAAAAAAAAAAAgC0I5AAAAAAAAAAAAAAAAMAWBHIAAAAAAAAAAAAAAABgCwI5AAAAAAAAAAAAAAAAsAWBHAAAAAAAAAAAAAAAANiCQA4AAAAAAAAAAAAAAABsQSAHAAAAAAAAAAAAAAAAtiCQAwAAAAAAAAAAAAAAAFsQyAEAAAAAAAAAAAAAAIAtCOQAAAAAAAAAAAAAAADAFgRyAAAAAAAAAAAAAAAAYAsCOQAAAAAAAAAAAAAAALAFgRwAAAAAAAAAAAAAAADYgkAOAAAAAAAAAAAAAAAAbEEgBwAAAAAAAAAAAAAAALYgkAMAAAAAAAAAAAAAAABbEMgBAAAAAAAAAAAAAACALQjkAAAAAAAAAAAAAAAAwBYEcgAAAAAAAAAAAAAAAGALAjkAAAAAAAAAAAAAAACwBYEcAAAAAAAAAAAAAAAA2IJADgAAAAAAAAAAAAAAAGxBIAcAAAAAAAAAAAAAAAC2IJADAAAAAAAAAAAAAAAAWxDIAQAAAAAAAAAAAAAAgC0I5AAAAAAAAAAAAAAAAMAWBHIAAAAAAAAAAAAAAABgCwI5AAAAAAAAAAAAAAAAsAWBHAAAAAAAAAAAAAAAANiCQA4AAAAAAAAAAAAAAABsYaEFAAAAR7XUgpO7myt6j3FAnRYAAAAA7MzPt7itTgsAAAA4BoEcAACAI/rpxyeNLpzWCy/eK69B9B4DAAAAgOHx8y0AAABgLO5oAQAAAAAAAAAAAAAAAGxOIAeAqzotAAAAAAAAAAAAAAC4mUAOABe6XGe5ftYKuLRcrYtOKwAAAAAAAAAAAAC4IJADQJfrrFr21WkHPK36dehylVDOUjcAAAAAAAAAAAAAKARyAOZtKYgDm6l+HZpcVTAtBwAAAAAAAAAAAGD2BHIA5qmrlqHK1WgFbGc1LadUpxsAAAAAAAAAAAAA8ySQAzAvXUj9RJwzrYDdVa+GLtdFMAcAAAAAAAAAAACAmVloAcBsnFUPTfSAfSrBnHJI3/TTpmodAQAAAAAAAAAAAJgHE3IApm9ZPQyVMA4cTvVqH8gp03KsMwAAAAAAAAAAAIAZEMgBmK4unE/FabQCDq9My8lVQjmCOQAAAAAAAAAAAAATt9ACgMnpwvlUnE4r4PhKMKesw/RNH4ardQQAAAAAAAAAAABgekzIAZiWEsQ5E8aB06teDU2uKpiWAwAAAAAAAAAAADA5AjkA09BVD0OVq9EKGJbqlXCWD6U63QAAAAAAAAAAAACYBoEcgHHrcp1V7/Wb/YGBql4J3SqYs9QNAAAAAAAAAAAAgPETyAEYr2UJ4uTqtALGoXolNLmqIJgDAAAAAAAAAAAAMGoCOQDjU4I4Va5GK2CcSjAnH8rEnE43AAAAAAAAAAAAAMZHIAdgPLpcZ4I4MA3VK6HLVUI5Z7oBAAAAAAAAAAAAMC4LLQAYgRTOqkcmacAUVff7tV2l7/qwXa0jAAAAAAAAAAAAAMNnQg7AsC2rR6ESxoHpq+6HJlcVgvUOAAAAAAAAAAAAMHQCOQDD1K2COI1WwLxU98NZPpTqdAMAAAAAAAAAAABgmARyAIaly3VWPeo34wMzVd0P3SqYs9QNAAAAAAAAAAAAgOERyAEYjmUJ4uTqtAIoqvuhyVUFwRwAAAAAAAAAAACAQRHIATi9EsSpcjVaAVynBHPyoUzM6XQDAAAAAAAAAAAA4PQEcgBOp8t1JogDbKK6H7rq5T6Uc6YbAAAAAAAAAAAAAKe10AKAkzir3jfpAthe9XJ/7qjS932Yr9YRAAAAAAAAAAAAgOMzIQfguJbV+6ESxgFuq3o5NLmqEJxPAAAAAAAAAAAAAI5NIAfgOLpwPhWn0Qpgn6qXw1k5vwTBHAAAAAAAAAAAAICjWWgBwEF14XwqTqcVwKFUL/fnmC497kN/tY4AAAAAAAAAAAAAHJYJOQCHU4I4Z8I4wLFUL4UmVxVMywEAAAAAAAAAAAA4KBNyAPavqz4IZ9oAnEr1UjhLj0MM59Nyoo4AAJt64cV78Yb7h7s73ld0uX6+7l/89OOTRscBAAAAAAAAgLESyAHYny6UqTgfmEwBnF71Un8u6lbBnFZHAIALV0I3uwZtNhVv+vr5edTXfKa6DO8I7MDJzhHXrb16D196ec0/6/Ja73SdCayRfayTp66D61wTAeDG6/A2n2mX7kUBAAAA2DeBHID9OBPEAYZoFcyp0uPQhP1sogMARuRK+Gbo9wLrz3U9sFPuZ/oNyjYkw6jPD9f9GXV+Huv/+3KTpPXOQNbGoYOrN14HrzwnIVZ4/noNB7qmPbXe1v+5jfwwunvV+hn3ohdr3doGgOdfp69+Bt33Z+eb7sF9/gUAYJAEcgBup0zE8YEfGLzqpdCkx/0PL8tfOkYdAYBpWtu0dMwNxId28T1dF9KxWQo2Pz80q4dDDufVa8/XeueY62Js180Yrg+xFhfBNmuGKd7jnmK9xhv+vKuh0vX1Z6Mg7H5dPtU1+WKtX6xt96AAuDaf7jPzTffg1/3CivUJeK7bAACchEAOwG7Kh/ilqTjAmKym5XTp8flfLAbBHACYhJFsst+3GJ7eLNX/xauNj4N/r6Yd/6/LYzy/qb1/JhTQu7rey+ean613XDNvdPG9rYcFXCcZ61od2zXsumDp+r2MDYJw/Xof4lq/vAfNVXmlAJjBNfni2jfae/DrPge7BwcA4BgEcgC2Uz6oC+IAo3YZzHnST/iqdQQAxmfAm5ZOpV71pQ4260/29T3Cutr0z1kO9f21tnliyvf5/fe49nqVDRY2VzDnNbHtddK6wVo93b2MyRvT+0w2ifdsfh9WJ1jzfmEUAAzjHnyqP2P2yyoAADgagRyAzS2rD4MP5sBkVPf6c1qTnoQ2+MtPABg8m4o31vdpLZyztNGRGZwfmhmfG8r3XTZXlHUujMdcJ8ftum5CEGTltGt1rgHzy/t6AR1m+JlWEAcATnstjmHeP0PyyyqO93lvSu+zpZ+bHOR81A78aZbzw5lXa6+ve5rK93LsX2wBDJ9ADsAGN9jVh8ENNjBZ1b1wlp5c/vA16ggADMvMN9rfVrm3iauNjv7SjKmdG9zDX7/eS09sqJjneoiul7deO2XNCOdw6PtaUx5vWIfh3wEd1zHctwIAPi8fnl9WwTbvFe+N/X8O9hzndT2yhoBJE8gBuFn5wF2m4nRaAUxdda8/13WrYE6rIwBwWv6i9CBqU3PY13spnPAvYG1m3vg1upiaY71P+3rZuFbuVX//IdjGAe5rbcTf7ToWrEWsfwBgx2tw9Hl558/D5d7bz5NuoQSb1iYRwXXujuV86lzANbwngF8QyAG43pkgDjBHq2BOlZ70Gwz9kAwAjsyGpaMovY026jPC84N7dOsd18pjWg+2+S3BuG6dfi2GYOIj4zoHtK7VAHCSe3C/xOX2Sv+igDxX15fPY3tfZ2N5ntb/fkzpZ0Q/ezmBqwRyAJ5WJuL4AAX8P3t3liVHbh4KGNmn91VRvYJegSXbUluD3+9jRr55vi+2LFP3wdoBV8BCrixvRjGKTBZryCEG4Mf3nROmJEvsDMwI4Aeat/kl9Ye/PH5YsMkJABZgc/EqhrS2UZ8a2oc+2dA8VX23kVlfyfX1Z5sEA6Cers2Nj9TSDriBHQCW7XufxuHMMAZPDqu41k655JV2q6+sDVDv+Ya+AHiJgByAz4bJ886tOABfbX772Cbmw18eP+JaRAWAGdi0WIQh7QXmoH1ow9NG5nt1vaq60CcbOEqrQwJzUE/LGb/aFEhJbYFbcQBguX63S74brTEGNyc+Xw42TxSYMZ07SdBknwUQ2g+SACDdb/7p8cmSAuB7Q2DO8dmkz6fYAAATGTcr2bBUjiEfHoZ8sTjAym1Dp32Y3cOYxpRfFw7JJv8SDYE5h8pONGWeetqrp6uPX9VHShq/GrsCwDJjcN+NzImL5zAc3pnLVtXuyrK28vwd9k0BLxKQA7Rst/mntBGIA3CezW9TPwbmaDcB4AYnGxc7qVGkIV8eLLKwVvuQbKhYrK6PmyekdXn14DQojbLZhGQ8KxBHfUR70EUfvxovAlDgGFzfZAxeixytHsrSJsfWbvSRhgDv+lESAC1O+IYbcSQDwHU2v033h798PoEz+eALAGc72ahEHYYF1WG8c+80P7QPoQ0BePlYz30rKqMemGfqMym7nvZJEE4t9XF3rI+95GDmNqGVQPLhHfVvABiDYwx+uX3ynYfvx9Z+s3yvlnYeeI0bcoCW5ONzLxgH4Hab36Y8BOYk17ECwFmc9F+1hzH/4LRO99qHUDr1vIg65XaoIH2mmwRi1lE34lRnqz6ywBxX+QKA+frazhi8yjG4G3O+laPlsSxtMw3V69v6M20a0AI35ACt2G3+ORkcA0xs89vHtrU//L/HP32AAoBn3HoRxtMCuJP/0T6o50xfD9yKE6wujfXJycAx6miffO+JUB+Hfm2nf2PCtkEwDgCYJ/O6ITDnzhj88SaJfEwLJYLT9o32RMr3vewEXuOGHCC6IRBnIxgHYF6b3zy2s8ONOVlqAMBnbr0I6cFJaEzUPvTah6LreScZFq0H0jsmt3PUXT+fbg4TjBNDZxzLGX3yJfNcbTsAzNMnP5gnhxuD+/6X0i7afFmW3lQvauX7CIMsCYDXCMgBIg+A7gXiACxn85uUj88QlHMvNQBo2biBcbhloZMaIW0tpHJjG2GDc/kEEczfT6oHbeiSIIBa+ymbAAOPY/Vx3Ng+KD8AMH0f2/ueHHdePOStMXisPJUEV7urvK2W99cJ8w3YzcPAWwTkABENgTjDYxAEsIIxMGeTgp12AwDncOtFMyykck37IFivLjYsz1QPko3+LRLMqp+ioHFsEijHdW2E/hsA5hmDO7CiDc3elvPp44doc487xfmm+ajfT62yJADeIiAHiGS3+ee0EYgDUIbNb1I/BuZolwFogsXTJtmwz7ntw1BObEZXx/WT6kHLBLOqn5TFbTlc2kYoKwAwbf/aJQdWmBdTZT5KgqvavD7CPFpONpnvT/ZyFHiLgBygfoeUx0CcXmIAlGfzm3R//GN4stQAICKniTfPCeO810bY5Fx/Hde+T1MPpCPqVJnjWPWzXZ06iT4cAFbrX30rante3Fr+76LNpRVjaEvA276AiQnIAWqWj8/95l8eN3kDULDN36d8fIb2eic1AIhkDMSweMq2wUXU5vP8zDbCBsYYbFa+vp8UtMprdUq/WUD9TE7kRp3k/XZCGwEA5shMr2vsxsocLf8U4YuFuF3G4Wxt5jvAOQTkALXaDYE4xydLCoB6bP4+9cdnkwTmABDAuGnNx2SedDYy8kIb0UmJMNTvy+tAJ93QbxbdR0l/vquTAlDRjwOAvpXlxuCpkUNgPn38kIO90p3ie3H7J++pmf1NwLsE5AC1yZt/SZvj00sKgHoNgTnHP4Ybc7LUAKBGNtrzCpuL0UbEz1fOTyvphX5TH0VldTK5FY6vtM8AYI7MQuOuRm7dyMHmTrSZXvL+/L5PWgFNEZAD1DQxG27EuZcUADFs/j7l4zO069p2AKoxfEC2iZF32FysndBGqN/qgDrAZfXqYJF+sXHsQf3kDIJytBfGOwBgjsyytg2MwfbR5tiK7fnlO1je97L0LGHqyKePH+Q58C4BOUANHgNxjk+WFADxjIE5m+SaVwAKNy6wWEDlHDbtt9tOaCPaqN/yWB1gegIAlhnHwiV1Uplps73o9eUAMM0YXEA8F4r+TTlHyy9FFt50p+0CWiIgByjZbvOvaSMQB6ANm79Pffp8W452H4Di2MTIFQTltNdOCERoh7qtDjBT3RKUYxyL8SyrtxdbKQEAxuAYg0/t08cPWfY22R72AV/LnOnM9izIe+xlJXAOATlAiYZJ2P3mX1MvKQDasvm7lI/PEJQjMAeAYlhA5QY2MbbTTghEaDPPUQeYnqCc6eum9grjWc5lYxkA3D4G74zBmWAMfgg6N94ZOzfnLuJL+XbVVPpkOQqcQ0AOUNoAZgjEGR6DGcDHgYadBObspAYAa7KAygRsYozbPvTjnwIR2q3b8l0dYB76TXUT41nWGdtqMwDgtv60M59hyrmxb09EmE96L/leM7d7AecSkAOUYicQByhxknj4z3Q4PibTK9n8XeqPzyY5dQKAFVhAZcpxpcXTsO1Enyy+texBHVAHmK1sGYPdnn7qJlOPZ9XLuIaDqZzwDQC3jcE73wmYQaignE8fP/TB6n2viDabPg73bUOWBMC5BOQAqw9cNv+aNsfHJAUo2cPhPx+fTlKsY7wt596EF4ClWEBljjGloJxwbFyk6aCBsU1TB5iLzf+3tUvGHKiXXJS3kgAAbp4fGycxl2jflbMsxRwqvCjfjPeyEjiXgBxgHYfHCdZwI869xAAqmlAPQTm9pFjH5u9SPgnMAYDZWEBlRoJy4s0RoMkbsPSVLFi/lLPL6qZgHNRLAADzY+KJ9F050gZ3B9U0nD5uSGpClgTAuQTkAGu43/zbYzCOQQtQo+3hv9Lh+Jhcr2Tztykfn83xX+6kBgBTs4DKEuNJSQDqtXeGs3WCWc8exwrGYcl6ac4EABiD+5bMsqJ8i8myspn2Mbo7Of1i3vdR3uXTxw/aK+BsAnKAJe02/5Y2x8dgBYhgCMx5OD6dpFjH5m8fg6KG23L0KwBM2sdLAmZmAyPErNfNzA1t+mcFbph7v1526iXGtAAAi4/BjYcwBr9QtA3ubkl5vbx6RyrngGDgIgJygCUMk6nhVhyTECDiBHsIyvGxdSXjbTlDUI7AHABuZoMxS44jbSyGcJoI6LTpH3Ws2Hrp2xRrjWl7yQAAGIPDomPwCGUvy8rwWvpWSoN5D/CcgBxgbkMgzr1bcYDgusN/pcPx6SXFOk4Cc5xSAcBVBOOwAqf9Q7B5YSN12oYj1qxjvWT4bgzbqZesbGtMCwC0OAaSBKw8P659HrjXHhClPkqCmD59/NBLBeASAnKAuew2/5Y2AnGAxmzHwByT7pVs/jb1m1+nTXKqDgAXGDd36r9ZZfwoCUCdrqi/tOmf1euYjf/f1MkhLdRLSiDQHABoaRzuYCdKUPWhFTa6h28nW8pfazzf5r3+EWiWgBxgannz74+BOCZPQMseDv/1+JhsrmTz68fbcoYnSw0A3jJ+HPbBnLU47R/i1emQ88DxvcxxKYFxm7SgTIJyAIDwBONQ2pzQGLyYtkE+fOtO/jcrSlrsZCVwKQE5wFTy8bnf/Pvj5mcAPk80Hw5/EqC4ls2vUx4Dc0yWAXiRU8UphIVTCFang76X/pJSCGZNNgKiDwRlG4AVxuCdMTgFqjkwPtIavrah7fSQ/19FCcbKshK41I+SAJhikrT5dxvOAV6xPfzpccFut/mDtnINm18/pnt/+N/HPy2eAvBNPy0JKKgsZskAIXTRXkjww0WGtnxvPLJIv9lsuRzrZKcYUGIfOASLffr4wcFtAEC0Mfgw/nZQBSXPkbNkWNWdJPjSXvbyv+3vAhFe4tPHD9pU4GICcoBbCMQBON8QmHOXPgfmmLytYAjMOfzvY9pvk40rAM1zqjiFeTzt/9PHD+bYEKOPCVOfx01HAka+9eUE14nyuT8tO0/fECTz+2O5Fjf9q5MY1wIArEIwDqWPwaubIw9zhuPvjjK/7RTDtuugJPjyzSqCLDeBa/wgCYArBx73gnEArpqIPxz+5KPtWja/Tvn4DB8jndQJ0LDxo3AnJSjMNtCCBTRfn71LKEMAzu7Txw+b8emfnqn/QSd/9+M/a/xnZ1nwoq7RftM3JYxrAQAWNB7sBDXMkfsKf3cO1FaYA43zwUb7il7Wh1l33ctK4BpuyAEuNQTiZMkAcNtE9PCndEifb8sxMV/BEJgz/HH462P622AG0JBxUcQi6mV2N/xv9bOXp5c5NwTpbz59/JBrf4fUbgDrYyDM2nn4FPRzkhf61Yb7TRsBqcxQXjeSAQAwL4bl5sjHMpsr+x61D1THhvfILRdAQUkEkSUBcA0BOcC5dm7EAZjc9vDfj5tH7je/N6lbw+ZXj31bf/jr4yaBTooAtNH/SoK3537D/5nw1P8vf8/JAvadfvdVXYRN/BRlKEuXnuimjk5Un1P9i3fbBuvLrsQ2ePxNw9OPJ24azzTWb9oIOM0YVz+4eLl9ONZPt1QDADWPwQXF3z7PPve7lHH4NGoLjB/KSJRvHHeKX9N1eCjHfeP5H6IuW58DriUgB3h38rP5j2TBBGBeD4f//rzxR2DOOja/SveHv345bbiTIgAxjRtYtfPP5nzHZz9hAM6rTjYTP+VHl5z2/+LYMDlNnCvr8ljXJq/PY/s5sDnifFUvwja2+f9xPl7LYutYxwXmfFvXcgPvaSPgSv2hPvAmgs0BgNrnGhiHV6emwPhhrnD8vWHmP0pf2+2m+W8IO0kAXEtADvDWhHm3+Q8bwwEW0g3PEJiz+b1AyDVsfvXY5+XDXx83zfnIDhDMuLFY+/7VbokgnLc8O+3/KX86WfN5wXnt/KGOejzUoSUW+V4qj+PGCJsi3ul7Kl6EbaHPzKmiQJxX6uXQh7Z+42v4Df9jHvN6Pd7P2R8+7wMFlV9MsDkAUOMYvE++d7xn1u9Sb4zDfYuKN0/OUfJUQIa6l1Kb+yxPgigBmiUgB3hx4rz5j+avUQRYbZJ++O90SJ9vy9EWr2Dzq8d07wXmAISjTV/wNpxLnd6e48T/L+XVWJCXLBaEc0a9/VJGBee8Pr9L9S7CRs/L+ygbJIZTb8eNSQ/qWjyN3VZVxZj2haDyztj13XJczQndAAAOdnrTroBx+FM+Db/Dt6jX1RQYvw+Uj10SkNEy6zqVc1AecIsfJAFwOnne/EfaCMYBKGOyfvjv9HB8OkmxjjEwZ9gskKUGQN2caPho2Hh8X8PH5OE3Hp9hsXCn3MKjYTw6bHjYjPUjF1pv78fx806WfZ3XaX/Kq09jXQo1zxveZ+w7s7oWjttxvtqVNqYd697T2NU3pNd148ZWAADziwrn0eM4fFPSt+Vn36KMw19Qy22rNsCHcScJ9J0ALROQA3yZQAvEAShOd3weBOasZ/M3KR+fp4+5ANSr5Q/Bu1o3HgvMsYDBlw0P97UsTD/bmJxl4ZeTdbU/ZbiPfkPDyWakFutaH/CdBON8O57tSx7Tjn2gDYGvU54BgFrm8J2U+GYcfl/DONwBTy8SGL+8lr/pK2vJQWu193uSALiFgBwgbf5vysMjJQCK1aUhMOfPAidX6yv/Rj8JUKuGNzIOfdd9hNPlWg7MsXjTrKf6e1/zLR42JX8zn6up3emC5sN9tFtx3qh7udG6F+okVhsBH+1KO4X73DqoDzQ3AwCqZbxS6Th8HIu7eb3eMi3P6p7r9VLhi7sG878L8ipZ8QVuISAHAKAe28Of0+H4dJICAN7X8EbGXe0b+V8yLgK3trHRLTnqb+319mlTcsuL6rUtwkZsd5oJxnmh7rX03tFO/nXDY+WB5QJzmqinAEAggodjHfBkHP5N2e4rKX/SmxDzXu9cbd+hzwBuIiAHAKA+w205DwJzAOBdLW5kDLFo+poWN/dbwGtGjrD5+I26O7zXfaN52/m9q/eLudWGpcWgnEB9f9dgkc0Rx7KCU83RmNzuxidLQgBeGIN3qd0bKp/G4aHmz88C5Jsfg5ceGG8jvHlesD6lb+yVI9wKpA0CbvajJAAAqFI3PIc/p7z5nQ+JAPBcgxsZnxYYmzBs1DzmcU6fF3qi5/Pwjr1aHVoTAQPjO27GE2dbap8fN/bUkMcBF4t3NnR8Dso55u2hkdeN0me2GlSeg9fFlsavbxluyekjHyLANH34ad1ZYqz2rF7eNV5PAVrU6mbyXfRxWcvfo14o46XPuXKQPGrqe75bUAlSb/eyEbiVgBwAgMont4c/p2FjzW7zOxs1AeBES4uoTQXjPBkXU/O4gTx0ftu0qO4Gq7v3DW6CGN41K/KL1y/t5ldDW/MgGero81urq6mh4LmWxq9nzNW00ZzajXWkX7NuvtE2d7IIIPQYvEttBmo0daPs+D2qa3hu3FVwYMw+CYqusmxJgnbnvIHmSlmxBW71gyQAAIgxqT/8OT0c/scHDwBobCNjkxv6T42btqKnwZ2aHc6u5bo7vntu6JVrqcPbYGWMr+mRG+grqx8HjpsYmgsqb/Emq0bGr+ZsvFn/x/HwZnyKPoDAjXsA4bUWKJ3H/rfFcfjT3Dgr68WOEc13lKsoZaBr5FVDvKc5HzAFATkAAFFsHie7Q1COwBwAWtfKAkC24fiz4WP5sJAc+BU7pzKHcu/mjuaCcoqvv8HamJ1m5uW+spG0qTmItaVNLDtB5TYDapmbtBvHwsbDAJQyF+5TW7c7ONzp83fkVsfhRX9jtiGeaPVNEtTTN0oCYAoCcgAAYk7uh6CcXlIA0JqGTh4TjPOyyGli02KQMmpx+RvNBE5UEPDSRUlrG3zfTZvobVCVZXlsI7pGiqKN+F/rZMubAYdy/6AUtDPmO7kJx1gYgJI0d0OlLP8yFm91HF76GDzKt8Im2hY3nyoDQd5zr7gCUxCQAwAQePJ7+J90cFsOAK31fw28o8XTV5ycNB6RMV39BOO8XGdbCcopvQ7fBUlnt+NIo1pvfGplo4a+8OX+0AndhO1zngJxJAUABc4bWuqf7n1PNg5vtOwzrztJQIC+QJsITEJADgBAfMNtOQ8CcwCIrpGFJME47xg3eWZlnMLYgPx6ne1TozcDFKYLVJ5otJ+stTw3dDuOvvDtutlqUI5bIGMSiAOAcYhxuHG4sn9NfoQZPzZy+ECXeKsM9N4PoB0CcgAA2tClMTBHUgAQWAuLqE7+P0PgoCUnztXJxgdtm/qrHOknaX0Mqy88v262lk6dnA8lj/W9lxQAlKyhTcTG4cbhrdcBc535ypC53Pt8Dy6f78nAZATkAAC0pTv8TzocPqReUgAQSSMLSBZQL0yviGM5C13qbURu7NCHTkRdu0zkBedqAlwauR1HX3hZn2gzINX2K0P5Vd8BMGcwDjcOr0LJgQI7aVyFTsvRfBq58RbgxI+SAACgSdvDh8ePQLvNLzYtARCjbwv+ftkC6mWG9Prp51+GNOuCvdrwPspCHWx8uKzO3h/r7EFKcEu7LxUuG1skC+fGsPpCfWI59aCX8+o6nBKs13Q/KO/Rvuib1xyHP6Q2Ag0eD34qtJzkIHPl6OXIN6Xz+pxOe2zcCbRBQA4AQLu64Tl8ePyoJTAHgGo1sIiaxxP6uFDQzYw2LNZhZ6HtuvYuBV6sHvori3yzlh0u6yOjBq7W1CZ0wdPfJsAb0+/4PLQ0p9NHmqvCC3Nf2qQ/QPtiHL7mXLml4PihLuQC82D4XhFm3h+xPo7fMzhPlwJ+twxSBvSVwKR+kAQAAD4CHJ+HwweLHABUK/oi6k4WS79TFryKl20oVV/1o4vby0bp9qyvrKEdjtyf2wR4ozH9Wgp0sPG+zjGvYBwAapsndMFf0QExE81nGnnPruA6EaUcR21zukTrc90IZcD3ZGBSAnIAAHiyPXxIh+PTSQoAamERlfcEDYwwXiu7zNmYeH3aDe2dNg/0ka2IuikjG7/qF6+c22mT6qrnxrwAGIOX1z8bT003Dt+pE6uKslH+Lmi5uUtcMtftlIEy+02lE5iSgBwAAJ4bbst5OPzFRk8AqhD6JGWLqJPZKfcsxMbE20U+mc5itf6yRFkSLC944IHbzqZt31oaW+gnK+k3BOMAUOkYvEuxD7kxDp92HN43Ml8utU5k6eu9pJd3mrmdz4omMCUBOQAAvDaBHoJyekkBQKkaWES1yWkiETdqN3A7VI3caKW+njPPgtLsJcEq3I6DecEL/aQxbhV13DwVAHNy4/AmtDLuKfHACOVZeQnmLlgZiNCfamOAyQnIAQAAAGrVBX43i6jT2yn/zFxne8kwXXpKAlDfogoecOBU7hmM84JW6qoxbtnjXcE4ANQs8o3TxuHzuVc3lOsbvwH0wcqLm03NcyO8jwOKgMkJyAEAAABqZRGVS+Rg72PhS52NzILYQtxEQOAA4K3ftvxYS0D5rHW1lUCIrdxWBgFghrlvH/j13Ng8/5w5N1BHOrnNmZQV/VCEtl1+AJMTkAMAAABUJ/gCkc2MMwi4eNrJVXU2cH3tpYK2BNS76ghOnV8TARE2Kil7ADCDsAfb+IZirhN1nhqobIc5dEDgln4oWpkGmJKAHAAAAKBGbsfhGqFu3bBZUZ1FvQXtmDagEIJTF9DK6dzJTZDF9RHqNwCVj8G7FDcoXh+93Dg8+rx5q4xzhk4SSLsIc1xJAMxBQA4AAABQoy7oe9nMOCMnRqLOVsXCGGdzQicViRpooM2W1uZ6cce65lAAGFsYGzavhTFRoQdI7KVtUdyMcls56JRlgLgE5AAAAABVCf7B1yLq/HKgd7EAtr69JIAidJKACsawXdSyKjh18bTODdSXXm6bnwLARKJ+P3NIjLHR1Eo8QEIZL2eO1kmFm0nDAjh0ApiLgBwAAN5ikycAJYp6srhF1GUIoIBK2kRJAATTBX0vG/aluTlf0HJmfgpA7YJvIDcOX1gDm7i7AtM8ynh0q3wQpBzU/g7muMBsBOQAAAAAtemCvpdF1AVEWzh1ejiB62qWClzAYRIop8ZWrfWR0fvJTk6r2wBgTPHumJDlhf6GX+i3ZmW9DA5NIAIH9gGz+VESAAAAALUIHHzgdpyF0zvZ5AfwuNn22LcKZlEOhvFVLyW4ckzFOnbRx7PD3E9QyGruJQEAQUSd7zrYacX5c/DvKCUGXewjzH0CzG86LUDb5SDIrXNZKQTm4oYcAAAAoCZRT+FyKpP0vpaN9KDOktwYhvK5EhsBV9LILTlOYF6HwyIAiDIG7wKPBc1/zYPm0invvNCeygPz3CLbhyvaE3NdYDYCcgAAAICadBFfyqLS4rIkgCrY6M0lBDtRspCBBTYy6CfN/ZQrADCWWJwx+PrzoD7y+0UOZvNdoMnfrm9SDvSfwCIE5AAAAABVCLwQlOXusqJtHrVICqA9pHgRy6ZN+2WMaUPPJZzEvPzcVKAdAIG4aR3zoTjz15109dvNc5UD/SdQMgE5AAAAQC26oO9lM+M6sroBEI5bcihO4ICCLHeLYEMJyhMAvKyL+FJuWjcfWoBvKzOp8SCZin5zVsKUA2UEWJOAHAAAAKAWIReCnEC8GpvNAD6LFBjauU0BjGEby4fobZ7NgADAxQTFs9B8SH6Y91yq85tnU9N6z1Y5WK3dBpiNgBwAAACA9bgdZz050LvYqAhw0iYGObUR/bQxLPIDAIBTDhiSH4soNKgtB0jauwp/cxXfNMagrV1FdazThC7KdxNgdgJyAAAAgOI51ZCpOQ0LIDSBikBLQo9r3XwGAJgTtjHuq00Dt1WWJkIAVFfZXKyW35srbCO7ysqub60A7xCQAwAAALASQSEAb9JGLtMX9QFfq/vp518e5C5rixpIYOOZOQUAAMZ9PIp660KJm+9DlP/Kbkap5bfuK2wjBbgs23/2UgGYm4AcAAAAoAYRP05n2SoPpuLkcCKy0YQbCcoB46eW7AK/m41KAMDZAn8j28ld86OWBfpO2FX0W+8qrIfqpH4VYBUCcgAAAADWsZcE8gCgEDnoewnKYW0RAwmMn7TjAABAin2YTKGb8COk911Fv7WrsB7u1TGeEdAKLEJADgAAAFC0wB+ls9wFoBCRN9gPQTmH49PJZjCGjSr6rXI2KgEAFwh5u95xvGc8VC6bvZcT4ftVZw42X/2rrK2sJTir9n41azqBJQjIAQAAAFhB9E1zLG4rCYAbtNAnPdjQzZKiBoEZwxbNRkAAAGAqxX1vFpi2qFqCRfKZ/1mJOsVskXYjSwVgCQJyAAAAgNLdBXynLFvXZwEP4Et72Eq/tHVbDguKWM6MYTEnBACKFXiuJ/C6YL4xc0VbVUOZ6Sqpf/mF/3ivLOhXR1mLAyxFQA4AAABQui7gO+1lKwCFaWmDz3BbzoPAHGYWMYDAGLZgwTcCaq8BAGMGSpYjvlSh300EqLWZ72eXBUFy+tUTvmMBixGQAwAAAAAA5Mbet0tfA3N62c9MZUw7gTwCAOAmNpdXIeqm7xLntRHmPFv5TiVlofbDZrIiBixFQA4AAABQrMAbZLPcRX0BSvLp44dW+6bu+GyPbehhaEfdmgPaicqFPf3VWBcAOMNWErAScyXzUm3p8mXhrTliNTcpFf4tsqu5IGsvgCUJyAEAAABYmI/AABRq1/j7DxsO3JrDzQR2sSLzDAAA4zsWFvh7/1a9mEep350q+p6RA5WRLjGHnSQAliQgBwAAAICW+SgPMHrnZMmWdOnrrTmCc7i2DBkzsUY7ngO/3p0cBgAatJcEoF4sqItQBiqbGxc51/U9FOAyAnIAAACAkm0DvlOWrQDop6rRJcE5AKW0xwAALzJXowAOMVhODvAOpa59VXEQwpmHCtVSJ8111ysjAJMRkAMAAACwLKe3MRenhgNTsIHkdV36GpwzPP3x6SQLjfTJWbZqxwEAMA6nLSUGuwW/GXRtXaB2MatnN9mqDgDnE5ADAAAAADF0kgC41bipIUuJswwL0w+nt+cI0CFqn2zDEwAAGIfzJnm1rOoPIigtCKOim8bOOvSusvbTYWvaB6ByAnIAAACAIlX08R8AorFoebkufRug0xvLACvJ5ogAQINsZmZVgqegyDlvLfWyM/derYwATOJHSQAAAACwqDsbycrKD0kA8K1hE8mxr8rJzVu3GIJzhgXs7fjvd2PaGgNQoywJqmvDJQQA0JqI81fjcEpQ5Pfz4fvKyTcXaTuNKtLzwuC3fS39w3DrtsC+VcoIwCQE5AAAAAAsq0s2OANQuE8fP9wPN71IickI0GnEsIEi4Gvt5SwAABiH865dqiSo4QKdbI2fthV9y7joVu/KAreGPMiF/JaaD7LLCWAFAnIAAAAAAICXRNxIUooXA3SOslMcq9dJApiN2y0BAIAn1X+3KuhWlK6SJMtX/m9qeL+hLPeF/Jau4molmBVYxQ+SAAAAACiUDcBwoaCn8gMrGW9vyVJisXHP8DwMNxONTz8+2nbgUrug76U9BAC+Y84EzcrmOJOpYj3uyuClagI0SujPAvSpEdoFoEICcgAAAAAgjk4SABPbSYLVPA/SeXgK0pE0LGkMzgMAgFJ1Qd8ry1p5VoJSN+gHuWHYLaDn211ZTnr9WTt9qpvHgbUIyAEAAAAAAF40LmIKyilDl8YgnWe36HSSBgAAIOR8HHlWgq7g35al7W0aOfillnJy5zc03R4AFROQAwAAAAAAvGo8STJLiSJ9d4OOJCkiT2Bt2mwAAKAF+9pfoICDVqoIwLjxpptayknnN7TdHgD1+lESAAAAAAAAb/n08cP9EPQhJYrWDc8xn54CQoabjbJTlaHJNjsf24KQ7zYEHt64EQuoox3bSAUA4Aw51X8wRpfWPVShqySfmygn5rw3zSGkG7AaN+QAAAAAxXG6OwAU6V4SVOX09py+gBNXqVOWBAAAAJQoyCEkq91QU9Fa3L6hcqI8AFRIQA4AAAAAAPCucfFaUE6dBOdwrb0kAACggvlONFm2VmsX8J3upPmsOtXmbRPdfLJTHrS9AHMRkAMAAAAAAJxFUE4I3wTnSA4AAIDiCIynJJ0kCKuGgMZc2N8zuxUP0tmqEgDXEZADAAAAAACcbQzKcepgDNsxMOdBcA4AAABQm4luT1nVGt9kKro9eT9ROckVFYlOzW6vHQDqJiAHAAAAAAC4yLjImaVEGF36GpzTV7QpA3idwEkAAKAVWRJcrKvhR04caFHLPHnxm2oqP6hH/QdWJyAHAAAAAAC42KePH+6TBc+IhkX/h/HWnE5ynM8tQ7CIO0kAAAA8s6/8928b+WeC+g+EJCAHAAAAAAC4yhiUcy8lQurS58Ccg0CTpuu4vKfEtgkAAOBUlgQhTXqjTU3fOFb4Fnen/gNcT0AOAAAAAABwtU8fP+QkKCe67VNgjltzAAAAgJKM36aqtmQARkUHr+RK/s45LB0g06n/ANcTkAMAAACUaCsJAKAegnKaGqMNt+Y8CMwBAAAACpIlwdmquA1lpkCLfSV51C31D6r8G596DxRBQA4AAAAAAHCzk6CcLDXC65LAHAAAgLmYV1fq08cPvVRYzb7y37/kQXVdBemxa72OLniTUafeA9xGQA4AAAAAADCJISjn+AjKaUeXBOYAAABMPreWCnBxvemlwvsWDPK4Va70767RnXoPcBsBOQAAAAAAwKTGoJydlGhGlwTmAAAAAFytomCZ2c0cmFjLrSpL3ZrUKXEAtxGQAwAAAAAATG48odBtOW3pksAcAAAAYB0Oh3nftoLfmCv/+yfj+5r6DtRBQA4AAAAAADCL4TRLt+U0qUsCcwAAAAAucTfnX17RN5pZb7CZ+fadqXUzl4letQO4nYAcAAAAAABgVm7LaVaXxsCcRt53K8sBAABgHeP3p5p1lf/9NeVjLYcH+dYUt74DgQjIAQAAAAAAZue2nKZ1P/38yyHyqZtuAgIAAIAi5Jp//MzfF7byL0Y5aaxMyD+geAJyAAAAAACAxQynFx6fTbJw2qLtcFtO0OCVTvYCAADA6vaV//5O/s1vODiolgSJfMBNw/UcCEZADgAAbzr8xYYSAAAApjfeljM8WWo0pTs+D26UAQAAAGaQK//9d3P8pbUEdQwH+Sz4j9spE+o5wBQE5AAA8J5OEgAAADCH4TTKk8Ac2jIE5TxIBgAAAGAqNd188opupr/3TulQJtRzgHkIyAEAAAAAAFY1BuZsUj0nUzKNTlAOAAAAMLFc84+f6VbhroJXX/S74MK38ZRYJu7Ub4BpCMgBAAAAAACKMCyEC8xpzhCUc5hpYwEAAAAsxty2GPvKf383cbnsK3nv3Mg/c/UyMePfqX4DTRKQAwAAAAAAFOUkMOc+OfWwFQ81b1yq6VRVAAAAZtNJAnP0Cdw1mm95hX9sLcEd2yn/ssqDB3MCKIyAHACA1+2SE3kBAABgNcNC/PEZgnIE5rThwWnCAAAAQOO6if++bQXvvMrenJqCtyb+ZtbVWjlWCtwCeJOAHACAN2z+MfXHZziR14QOAAAAVvIUmDPemuPwjNgE5QAAAAC38v0oVXUTSm70n32JKfPyTr0GmI6AHACAM2z+MTmNFwAAAAownFx5Ephjnh6ToBzgNdp9AAAg/Nzhp59/6Sf6q7oa3nflW0/2lRSLKYNougTAZATkAACcafOPKZ8E5gAAAAArGgNznubpTkeMR1AO8JK9JAAAAN6zcoBHSbYV/Ma8clnpK8nLTr2uJq+AxgjIAQC40OaPKR+fp5N4AQAAgBUNGyzcmhOWoBy43lYSAADUyTwIJpPN6arg4IXz+4e+hL8DgG8JyAEAuNLmj6kfA3Oy1ACAyelfAYCLPd2aIzgnFEE5AABAa8yBYBpNB3rUEnhRyK0ntRzIe9dwkXZoMlAsATkAADfa/DHdH/8Yniw1AGAyTsMCAG7yFJwzztkt2NbtQRIAAAAAF8o1//gJAmru5FG4stJN8Hds1WeAaQnIAQCYwOaPKZ8E5gAAAACF+PTxQx6DczZJcE61fvr5lxqCcpQtAABYXpYEFOROEpRj+CbUeBJ0FfzGvbJymVZvklafgZIJyAEAmNAYmDNs8LEBAwAAAApzGpwzBugM8/csZarQVRKUE8oEp/ECAMDc3LZOUXPXgO+08/tXc/VNJrXM54fvdMrKcu1Mxd95su4FKNmPkgAAYHqbP6ZhEtsf/pQeUsyPbgDAdXKyQMz8ZQyAM50u+p8sSG+lTLGGoJzOiZgAAAAATCynOr4LDr+xbyxvrK0CRROQAwAwo80f0v3hT48BOcOEuJMiANC8fWGnfQEAo5M+uh+CPsZ5/J35fHEejvlzLygHXje2YQAAAM0bvvcc50jVHr4yHCBz5bpSDe+8K6ys5GN6VzPvv/Lb2F2lVSEngIIJyAEAmNnmD48Tw3z40+MJFU7ZBQAAgMKNC9r56d+fBOgkc/sibJOFeHhLF/jd1H0AoJU5Ty8ZgGtUdEhDLvQ31ZB+3ZXp19VYph3MA5TuB0kAALCMzR9Sf3w2qbBTPgAAAIC3DYu+w2mk47MZnnF+PzxZCi2uG06ILbCc9LIG5m+PpQIAACVyU2XRat6jcc2NJlWUxULnd/uo5aLiNsoeK6B4AnIAABY2BOYc/7hPNuwAwFui9pN3shYAYjgJ0Ll/IUjHQvH83FRk/AoAAALjKUknCYqVGytXNczli/x2VlGf0i30vwHgDAJyAABWsPlDysdnCMoRmAMALwh86nEndwEg9Bimf36TzrNAHSZU4i05xq8UQiAVAAAwlVz7C9S+5nTFzSadchW/zF/xXeyu0vrbJ4DCCcgBAFjR5vcpH58hKMemHAAAAAjqeZBOSl++BWSpcxO35MDLOkkAAFC3KzbgwywCHaBW83uc3R7UcnhJ4eVqH7Q661cAZiIgBwCgAJvfp/74PJ2YCwAAAAQ2bDoYA3Tu3aBzmwI3mshHmE+WBABAQzpJUB03VZZt30jZqqEcFv3tpKIbWVo4qMZ3NqAKAnIAAAoyBOakz6fkZqkBADHVcjoZALCc0xt0kttzLuWWnPnHr51UoBB7SQAAvMKGXUpg7lS23EjZUg4bcu43m4rXJrNcBmogIAcAoDCb36d8fIbNNwJzAGidfhAAaM4rt+fwBgHPs+skgfoAAAA0KUd5keF7S+VzvW6K/04heVHDvLWW73FdCqz2egu0Q0AOAEChTgJzbLwBoFVRTz++k7UAwLleuDmH75V0S06WHQAAQLB5Du8IfLNotHWamr+rdBP9d9aWK0nvWn7nduL/njwAuIKAHACAwm1+n/rj40RcAIijkwQAwKVObs55+kaQpcpXpdwKEvTkTgHllNIO9lIBAHiF+RFr6yQBBagh6KKKIC83sygrAJcQkAMAUInN71KfPp+Ga+IPAAAADRsDc4ZvBL4TfCVoZD6dJKiKk9QBgBbnSOZFwDltRR91rlfLLU2V5UEVh+a+d0hNKYfYXEHfDlRDQA4AQEU2v0v5+NhwA0ATIp9+XPHHbwCgrPHScGvO/cmtOS3rCvotWekEAABu5TtyVUIeEhF0nSbqnL2T9s3+3qjtT9S6CgQkIAcAoEIngTk7qQEAAACMt+Y0HZhT0Ga1vbRlpXzqAr9elsMAgPECBeskQTWqnbO/Mze/k/bTqigg5L32p8aAHX06UBUBOQAAFdv8LvXHxym4AFCfrSQAAObQeGDOnRJA47rA77aXvQBAg+MFc5wKBA+MjyibD0r7C1Txfe2dYK0a2yjfAICqCMgBAAhgCMw5/jHcmJOlBgDBhN1IapEOAJjTEJiT2vtWUMr4KmKa2wgIAADtznFoM59Crs9UdOvJS1487K2WW20rT/sq1boWOX7XBKiGgBwAgCA2/5Dy8Rk22gjMAYA6dJIAAJjTsNHh+Dx9K2hCCZtQgm4wMXatQ9ibOG3GAQDOEHEc7mAn0F6co4ZDNKoM8KpoLvra9wB9CMACBOQAAARzEpizkxoAUDSnjAMAixgDczbJAR7cwEZAAABKn/cEfTXj8PJtJUF19hXPzftK24ma2+hcSdl4qRzUuBZprxNQHQE5AABBbf4h9cdnY7IKQM2Cn4LcyWEAYOGxVQu36payESri9xjj14KVcDvUjLIcBgAa5mAnVhF5fSbSu9VyeEblQZO1BHB1Z/5nAExMQA4AQHBDYM7xjxY23ABAdYJvmgMACtRIUA7zsBGQtewlAQBwJoHxLMo3flawrbCNqLptriiAK8R3m+CHNQJBCcgBAGjA5h9SPj7Dhpt7qQFAhXLgd9vKXgBgadGDckrYEBV080Cn9phbAACwyhzHWJyl5QbeMUoAn7mgOvGke9Z39NIZYBkCcgAAGjIG5mxSzNOhAIgr9GnIFlMBgDW4KYcrx669VDCnWKG9Uu4AgNbHDZ3cLVbUYAi3VFYwB6xlLhikbd5XUjZ66QywPAE5AAAN2vyS+uMzBOZkqQFABaL3V04vAwDWEvXAjjvjWBrTSQIAgNB8Qy5Q8MD48PPZyoNEuormglmdWNRd5X1H+LYHiElADgBAwza/pOE0XCfiAlC0Tx8/RO+nOrkMAKw4zooYlFPK+CriqZ42ApbpLvC7uekbADB+SG5aN/dcVgPrMk9qfc+7iuaCe3VCu6TtAaITkAMA0LjNLymfBOYAQKly5JcLcIU8AFCp8UTYLCWMYS8Yu3aytjjyBADAmI/lRT2wIDeUh7UGi3S1tAuV30T0XBUBn8N3m0rXHVtqe4BgBOQAAPBoDMzZJKdOAlCmffD3c9I4ALCmcN8CSggaCXyqZ6fKFFXW+8jvF2zzFgBg/HAL35DNOZeybygrc8Vl8EH6ep9X1No+tdT2AMH8KAkAADi1+SX1xz/6w1/SQ7LBAoBy5BR8wXHYSGezGQAT9iuHKO9y7B83cnT2NM7HMpODfQfoUhkbJXYBx7HD+xi3luMu+DwQAICvc/0ucOB/jXNO4/DKjd9DlMH57JWXVWxrrMfWSIGauSEHAIAXbX6b7o9/3CcL3wAUoJFFRiccAgBrcgolZ4t+K0tlOu0SAMB3dkHfq5O1xQj7Pb/BoK+sOEvbgP2L/gJgQQJyAAB41ea3KQ+PlACgEOH7JBsbAUD/uBanUErXC93JXe2jOSAAYByxOIc6lTEO79SdUBwEMBM3enGBnSQAaiYgBwAAAKhFC4siFlQBgDVZ/J5HDvhOXfBNaOYPBbB5CwAwjvieQyuMw2fWXHCKA0pms1NeAGiFgBwAAACgCq185LagCgAQTtQNTZ2sXXXeED39BQgCALfKQd/LbZXmQuoNypJ3C0WgE1A7ATkAAABATXID77h12jgAsAaL38awl45bZa30V28AgIKFDYz3/Xg90Q/UaviWSgcCKEv6F/N/gKsJyAEAAABq0spHbpsbKzQsxh6fBwviAJNz+i9Vl5vIm1Dc7rhaug/jzdBjzoY3AgIA040nIo9VfT+W9nNoOSjF/ENZ0r+sR4ATUD0BOQAAAEA1GvrI7ZTDyoz5NSzGDn8KygFKEGnhW5tKhHITdTOKjYDSXX0BAEqWo853fH9cXgMHEuRW89aBAMqSd5SWALcQkAMAAADUJjfyng+yuur8EpQDQK1shDeGvYhbchZP72GM2akvAABniXzqvuB4aT4pQSnmIcqS/kV5AbiOgBwAAACgNs185P7p518E5dSdT4JyAKZra3upwIVyST8m+OYCGwGlt/oCAJQ6rog8l3RLzoIa+C7hcA4BFlPJ3hPpCLRGQA4AAABQleCLqM9ZVC3cGIzzVh4JygHWkoO9z50s5UIlbqQJu8FJ0Nxi6dyl+Lfj2AgIABhfnE9wvLSeSpbF0mAiTQQ2OUhCeQE4JSAHAAAAqFFu6F3dklOoM4JxvuShoBxgaQEXhbWjRKiXfeDX2xrvLJPO5noAAMYXp3Nl4/D5tXAAgeACaTBhOvYNva4DJfTRAI8E5AAAAAA1auoj9xj4QVl50qXLNocLygG4ve3tpQIB5MDv5nTussafVdYPm+AAgKk1ML7w7dhc51aCCqTFZHM674s+GmiRgBwAAACgOg1+oO1sQi7HuBnymoVuQTnA0qJtIriTpQSwDz5mNdaZz4P6AQBgfvwS345nTdsWxuFZTmNOdznBJPpmgCcCcgAAAIBatfahdmuD4/puCMZ5IigH4Ho2+y805pAE8/n08UMf/BWdzj3PGLRXPwAAjDPemseZL88yDh/StGugfmS5bU4i/a4mqAQAATkAAABAnRr9sC+YY0UTBOPIR2BpOeA7aT+JIPrp3IJyph+DbtULAADjjXc4XGF6D+oF8I4sCa4jAA6IREAOAAAAULPc4DtbWF3BhME4TwTlALMLesKpfnD+/s440Rj2Vm6z0u6pFwCA8cY64/BeNk82P27ioAEb4l8kSEm6XVKHzGUBEJADAAAAVK3FD/ydU8eXNab3HGkuKAdYQg7aLjPTOCPKi5S8IWL8bTl4WTLOma69ayEds01MAIBx+CS2xuGTjMO7Vsbhclu6SDfvvhKBb0AoAnIAAACAajWyiPoSQTkLWWATpM2qwNz2QftBbec83EC0nJ3yxDvj0C61sQmwlfoAABh3LMV3Y2moPtzAYQHS7Qp7JeBi6hkQioAcAAAAoHatLhoJypnZgieSC8oBZvPp44c+6KvZ6D99vxepL8oV1M2c4m8+MF69rT62knZuxwEAjMOnH08ah0u7c+sDr8xTJMFFmg7uCvz9VfsDcCYBOQAAAEDVGr4lZ2CT4wyGDZDH55CWPZF8CMrppT4wk4j9ZKfdnFykIKe932m8WvNYNLV1qrmThAEA4w/j8FLG4n1ySyXmKdfIkkAaSCugZQJyAAAAgAhaXjyyuDqhlTdAbuUlMJOomwi2bhibtP+Tlgtr6ARV49U6xqLqAQBg/GEc3vpYfKseMMqS4KLyJL0EcUkroGkCcgAAAIDqNX5LzuDxRhebkm8zLlA/FJCXFsqBqfvJPvDrbeXwJB6U+dW0ElhujPP+WLRLjQXjJKdyAwDGIcbhxuLKf4EEmFxEWiVBbsoM0DoBOQAAAEAUFpFSehCUc7khzYaAplTOzQAWyoE55KDvpc28vR+UfitqbMOG+vrGeDS1F4xjwxIAYBxiHG4svo4s589izek8bjvh0j5YGwSEIyAHAAAACMEtOV88WGA9XyG34rzEQjkwtcibCLSZt/WDXbDXyuqn+lpZPexSg8E4yeY2AGB998bhxuINjsWzzfBMyUEL5rnSCEBADgAAABCLD7mfPS6wui3ndQXeivNqPsotYAoNbLbQZl7eF0YMxhnsK6yffWorsPxxHGas+lgPh7xvsu2yaQsAKGSe3No43Lz561i8SwLjMWe5VZYE0gMAATkAAABAIG7J+UaXPt+W00uKr8ZAnFJvxXkxHy2UAxOKvulCm3l+fxg1GKfmDTMtbopqeqw61sOt/ggAwLjEvHnxsfgwH24xHdyOc0WaSYI37SXBV+rXWWnUSwUgIgE5AAAAQCifPn64lwrf2Lot57tAnNrSwkI5MFUf2TfwmtrM8/rDqOOCXHH9zKnNjT7b1upsJTc16o8AgFbGJS2Ow5u+sbKyw5qmJjD+cgJOzO3UMwDeJSAHAAAAiMgH72916fMJ5M0tNFYeiPNNHtpgDkwkt9DvCUZ9sU/sA/SH76l9o0yrY9hmNgQ2vvnPXA0AMD4pS3M3VgY/oOI9bse5Mt0kAcqM/hbgPQJyAAAAgHDGU7mylPjO02bHPvqLBgrEeZ5/gnKAW7Wy8Dm0/c1tLnqlT+zH2zi2jYwBa/79ufEx7EPUYDq34sSppwBAyPFJTu1uEm7idnXj8Uc2wl/fPqBMKTPTkDZAWAJyAAAAgKgsBrxuGzUwZ9x0HC0Q55SgHOAmDW7437Z6W87JhqNtI6+cg9TR+8abqaGuhgmmexYkjjkaAFDuOLxv+PVDjcGNx1+eLwsSuC39JIF0kTaT9LXSBQhLQA4AAAAQkhPGz/IUmFP1RuVxYfX09P8ueL4JygFu1dqG6KFfeGglMKfhDUd7dTTkOLUPUA872fkoux0HAChc68HxT2PwEOPXcS5hPJ4c/DCBvSR4sVxlqaDMXPJNQBIAkQnIAQAAAMKy0HS2Ln3eqHwYA1u60n/w+DufgnCGhdVta3kmKAe4oX/Mqc1F0Kf+ro/6gi1vOIq00X98lxbr6EuqCswRiPMmgWYAgLlyHao+0OLZwU0Yh081R0e5UmZuI0gJCO1HSQAAAAAENwTlCFw437BQOWx8HP7146JKCYsH4wLw8NwlmxufPG74FHgGXGnXcHs69HNDf5eHdKj9RM+TPnLbeHlWR9XbNethb5z6puz0ZACgBsN3tjGYo3WP88ynb8Q1bC4fx+SCcL4fh/eSgTnKliQ4K418I1BmgEYIyAEAAABCGzZ+/fTzL8OGRotxl3tMs3Hz42B3kq79HP/Ak03F3/wGXuUkOkD/eL3HPueYDvn45762TSoCAL4pz7062ly9fRoHrRbooQ5eVJ4FkAMANXHA07eKDY43Jn+Xb8fTpqX5+dc5XpYK79prm5QZoB0CcgAAAIDwhk2aP/38i4W5231ZcDoJ0nmS0+VXzlvAus3OIgYwQf+oLf66wX9Ii1U3+L/HZqOX+0Nj2KbHpk83Oz6NRWerv25svJpgHACgtnF4Hg9uMOZ7ee78ZR62xuEI5sXnz5V9O2ausiUJzupLfHf9SlsEhCcgBwAAAGjFsEjQSYbZdNJ3UTnibQDAKpz8+63vNviv2d6OG42efhcvaKA/NIa9bCz6PEDn4nLixsbJx6xZMgAAFc4z7o/jwoOUeHPuPPvN6idzYuPyy8fhvWSYtE0QXAHX20sCIDoBOQAAAEATxpMNbTomSnl20jgwZf+Ykw3/LxnSpDvZcDGk035Mt36qf4jN/zfZNVJHd8rFdfX3pJ5JP2NWAIBL+ZZ8vu07Y+/TudvT7TZf5tjmwubKlcjJ97Mk2OviurhVZpQZID4BOQAAAEAzbDomCBsbgam5geM83VM6vbDBaBhfPD/t8U66zj6261t5z2OZU54wZgUAWHYcLjh+Otu35thMaueWytnsldmkbF2eXvoQgAb8IAkAAACAloynNGcpQaXuLagCM/SNQ7vi9NTbdOnzAvvp00mWWe0aq6eCG6iqfhqzAgBBxuF98i2ZemQ3UcybvpLgu8NoeLsPUWZ8cwYaISAHAAAAaI6gHCqVLeAAM/aNvb6RyvrEvsH3FpSD+gkAsPx82TgcZRXBFamdm4onJiAFoAECcgAAAIBW+QhOTbIFVUDfCG2X1XHzj/EApZdTZRQAiMgYB2WUQfbuSLfzCeICWiEgBwAAAGiSDY1URDAOoG+Eb/vF3Hg9zYoBhdKHAADmy7C8ndtbFrP37lzRf7RKuwQ0Q0AOAAAA0CwLqVTCjRXA0n2jdoeSy+i9NHhMg6w0UJh7mwABgAbmy8Y7lCa7gWLRdqDltNb+Xa/Vb62CuIBmCMgBAAAAmiYoh8LZ2Ais0Tf2ySI7hfaLkuBLPRWUQ0myMSsAYBwOq4zDzZNZqv3T9nFxGyUJgFYIyAEAAACa53RDCiUYB1izb7TJiNLs9Ivfp4kkoAA2AQIA5stgHG4u7p15vd/oG31vfSXQDAE5AAAAAMlCKsURjAOUwGI7pcitbl54Z/w6jBVswGLtuqkMAgAtjsV9S2ZtvtmsOA/yzkhD7wtwSkAOAAAAwMhCKoUQjAOU0i8ObZGN1pQyRkM9pSyCcQCA1gmIYC2+H68/D/fOXGrvfQHiEpADAAAAcEJQDiuzmAqU1i8ObZIN16zaN0oC9ZTiCMYBAIzDjcNZaY7s+3EZc6KG3lXw4TR9Ru99AeISkAMAAADwjKAcVmIxFSi1XxzaJpuM0Deqp/DEhiwAAONwzJFb5vYPrqH+AgQlIAcAAADgBWNQjsVUlmIxFSi9X8z6RfSN6imomwAAxuEYh9NOYIWbTibVSiCXQzyA5gjIAQAAAHiFxVQWYjEV0C+CvlE9pXRZ3QQAMA7HHJkvdb6VeSDSE4B3CMgBAAAAeIPFVGb0WLYspgL6RfiGvlE9pcBx63CDqLoJAGAcjjkyX7RwC8heNk/eT7Twnr3cBlojIAcAAADgHRZTmYFNjYB+Eb6nb1RPKXTcKhkAAIzDMUemuTatlwqTix7Ipc0CmiQgBwAAAOAMw8LX8dkkH5O5nU2NgH4Rvmej0Qz1NNkMiHErAIBxODWOwzfmyMXX9T56OZTL0vUKblUCmiQgBwAAAOAC44a0LCW40s6mRkC/CN8RjDNfHR3S1dgD41YAgHXG4eY5XEpQPKUQWDFf/xC6DZPLQIsE5AAAAABcaFwQsyjGpe4bODUPaLdf3EkJrpCTYJwl6mg2dsW4FQBg+XG4Qyy4dI4sGKc6kb+HabuUm6v6PtkLtEhADgAAAMAVnHLIBYaF1I2FCCB4v9gnG/65vH8UjLPg2HUYjxi7cgb1EgBg2rG4b8icOw73XaU+Yeu2eSHqA8D5BOQAAAAAXMkph5xhZyEVaKxftOGfc9hotF49NXblNYLIAQDmHYe7WZYXx+FJUHzNdTtqvmmv5i03fdBX28tdoFUCcgAAAABuNC6o2lTKqZw+L6T2kgJotF+0cM9b/WOWFOooRRFEDgAw/zi8T74h82yO7ObYGPnonZDGyg3QNgE5AAAAABNwKwAndhZSAf3il41G2kL0j2XXUdo21EdB5AAAy43DfUPmiZtj4wh3K4hvN8qNcgNwGQE5AAAAABNyW07TcrKhEeC0T8xu4kD/WHwdtRmw4bopSA4AYLWxuLmyObJxeKw8jUTbtEw/0Cs3AHEIyAEAAACY2MnmRh+g2+HUf4DX+8U+uS1H/0jJdVRAeXucxg0AYK6MOTLT1OVo+al8SmsALiQgBwAAAGAmFlWbMCyibpz6D/Bun5ht+m/KMPZxK059ddRtOe2MXeUzAEBZc2UHOwWfI/uGHH+uFaldkp2L2QcqN9o3oGkCcgAAAABm9GwDcpYiYVhEBbi+X3SLXOD+MY03b9jAUW0dFTgXu24auwIAlDkO75Pvx1G5nZLa5o5IbwAuJCAHAAAAYAFOOwwjJ4uoAFP0i73AnHB2AnFCjVvVzzgEyQEA1DMO9/041hzZ7ZTt1N8+yKvs5eay7X6U9k5uAq0TkAMAAACwIBuQq5WTzYwA+kVesnNrXNz6mZzSHaFuyj8AgDrnycZx5sjUpfo6q9yu02Yo+wD1E5ADAAAAsAIbkKuRk0AcAP0iL7HJqI26+XRKt8AcdRMAgGXH4sbhxuHUpfbbZbQ10v3a/krZAZonIAcAAABgRc82IGcpUowhLwTiAKzXL9p0VC6bjNqsm6eBOaibAAAsPw43RzYOp2y119G9LFynnVfuAer3oyQAAAAAWN/Tgt1PP//SHf/YHp9Oqqwip8+LqFlSAKzaLw7tcNYv6h8psm5ujnVzGLveqZtF2Nn8BwBgjoxxOOvX02Mdrfn3K88rtidj214jgVwASUAOAAAAQFGeFleHfz1udNxKlUU83lBkozFAmf3iuOmo0y/qHymmbvbjePWpXnZSZVFDnRQkBwDQ9hzZOHylebLABd6Zq6mXXFNuthX/doDmCcgBAAAAKNS4sNdbYJ2VBVSAOvrEnD4v8PZu5phdTjb6c2HdFDS33Ng1CZIDADAOd6iTeTKl2qc6v1ftZN26bXqttytpFwE+E5ADAAAAULgXFlhtQr6NjYwAdfeL/dO/tvFoMkOfuBekygTjVUFz6icAAMvPkR3qNA+HOXFxfTzWxRq/U2W5V0Qe1NZ+C+QCGAnIAQAAAKjIC5uQBzYivy8nGxkBovaL/cntHIIAzrd7PraAKcerbs2ZpI4KIgcA4Nxx+DBuzONYvDc/Ng6HC9sP1lXr7UoAJAE5AAAAANU62UBrI/LLchKEU1J53UgFYMY2JqeT0zwFrb7eLyYbi1i+XvaCc85m8x8AAFOMxftn82PfjI3DWbY8bSv7vRTQbtd2u5K1N4CvLIID8I3DNvXH3uG8Af5mov9OY3/X5v9M1/8e/iUdJvmNl/yitv6u3eYfkwkkAFClhgN0LJ4C8FK/+DS/bykY4GlDhX4RdbJcQ90UKAcAgHH4OnNm43Dmqmc11bF79aCYsvOQKlrPcwgbwFcaRAC+ISBn/r9LQE5Vf5eAHAAglJMF10GERdecPm9gdBIXAK33iYJvqLk+dunrhpMWNgbujF8BAChsbtzCOHyYK7tNHQCAyQnIAeAbAnLm/7sE5FT1dwnIAQCa8GxTcqk36jxtNLZ5EYBW+8Tdyb8WeENLdbHmzYFDPRVADgBALePwLsUJlhcIDwDAIgTkAPANATnz/10Ccqr6uwTkAACk7xZiz3Xugm1O4ybF5/+5jcYABOkTL6UPhNfrYH/yb4sNmrPpDwAA4/DFDPPnvfk0AABrEZADwDcE5Mz/dwnIqervEpADAAAAAJWYIZB899r/Q9ANAADcNA5/K7Anp5cPcXr8/wm6AQCgJD9KAgAAAAAAAKB248a8fOH/rJdyAACw+DgcAABC+EESAAAAAAAAAAAAAAAAwPkE5AAAAAAAAAAAAAAAAMAFBOQAAAAAAAAAAAAAAADABQTkAAAAAAAAAAAAAAAAwAUE5Px/9u51t20jCMDoDOAHC98n9ybIxYlF9oKmeansm7G7jFs4jZN6bcmWyHOAwf5T6BED/fqwAAAAAAAAAAAAAAAA0EGQAwAAAAAAAAAAAAAAAB0EOQAAAAAAAAAAAAAAANBBkAMAAAAAAAAAAAAAAAAdBDkAAAAAAAAAAAAAAADQQZADAAAAAAAAAAAAAAAAHQQ5AAAAAAAAAAAAAAAA0EGQAwAAAAAAAAAAAAAAAB0EOQAAAAAAAAAAAAAAANBBkAMAAAAAAAAAAAAAAAAdBDkAAAAAAAAAAAAAAADQQZADAAAAAAAAAAAAAAAAHQQ5AAAAAAAAAAAAAAAA0EGQAwAAAAAAAAAAAAAAAB0EOQAAAAAAAAAAAAAAANBBkAMAAAAAAAAAAAAAAAAdBDkAAAAAAAAAAAAAAADQQZADAAAAAAAAAAAAAAAAHQQ5AAAAAAAAAAAAAAAA0EGQAwAAAAAAAAAAAAAAAB0EOQAAAAAAAAAAAAAAANBBkAMAAAAAAAAAAAAAAAAdBDkAAAAAAAAAAAAAAADQQZADwDdyirEexSYgpny8/H8AAAAAAAAAAAAAgG8IcgD4To4x1KNNsQ02qOTjSDEOAAAAAAAAAAAAAD8iyAHgWjlGuRLmwBaU9r7nE+88AAAAAAAAAAAAAD93ZgUA/EwLc9oxj8ttITsbYaVaiFOsAQAAAAAAAAAAAICbcEMOADeSY4x1MkK0wKpM+SRSjAMAAAAAAAAAAABAD0EOAF1yjKEebYptcMLKZYgzWgUAAAAAAAAAAAAAvQQ5AHTLMcplmDPZBiem1BnyyfL+AgAAAAAAAAAAAMCtCHIAuLXcxVgnQ5jDaZhaiFOnWAUAAAAAAAAAAAAAdyHIAeDOWphTj3bjSLENjtCUTyPzyfKeAgAAAAAAAAAAAMCdCXIA2IvcRanTohxhDseivYdDPhXiAAAAAAAAAAAAALBfghwA9upKmDPZBg+kxNcQp02xDgAAAAAAAAAAAAD2TZADwEHkLsY6GcIc7tckxAEAAAAAAAAAAADg0AQ5ABxUXsRYj3ZjTrENDqiFOFlntAoAAAAAAAAAAAAADk2QA8DB5UWUOi3KGWyDPSvtvcpnQhwAAAAAAAAAAAAA7s+ZFQBwX1qY04751yWe2NkId9RCnGINAAAAAAAAAAAAANw3N+QAcO/yIsY6GSGm4FamfBYpxgEAAAAAAAAAAADgoQhyAHgweRFDPdoU2+AGymWIM1oFAAAAAAAAAAAAAA9JkAPAg8qLKFfCHLhOae9HPvOOAAAAAAAAAAAAAHAczqwAgGOQH5foIufflttPdjbCYo4hn7tBCQAAAAAAAAAAAIDj4oYcAI5KflyCnHYTSrGNTZvyeaQYBwAAAAAAAAAAAIBjJMgB4Oi023LqtChHmLM97ftut+KMVgEAAAAAAAAAAADAsRLkAHC0roQ5k22sXomvIc7gVhwAAAAAAAAAAAAAjp0gB4Cjlx9jrJMhzFmrSYgDAAAAAAAAAAAAwCkR5ABwMvJDjPVoN+YU21iFFuJkndEqAAAAAAAAAAAAADglghwATkp+iFKnRTnCnNPVvrchXwhxAAAAAAAAAAAAADhNghwATtKVMGeyjZNR4muI06ZYBwAAAAAAAAAAAACnKq0AgDWYf48v9Xh041+3m/4CHuCz8s3+fn/nzzHv5Rl7nuh2nzW5EQcAAAAAAAAAAACAtXBDDgCrcHlbTptiG0el5ItIMQ4AAAAAAAAAAAAAayLIAWA18kOUK2EOD6u07yFf+C4AAAAAAAAAAAAAWJ8zKwBgbfJ8iUFy/mO5lWVnI/dsjiFfuqkIAAAAAAAAAAAAgPVyQw4Aq5XnMdbJCHHIPZnyZaQYBwAAAAAAAAAAAIC1E+QAsHp5HkM92hTbOIhyGeKMVgEAAAAAAAAAAADAFghyANiEPI9yGeZMtrE3pc6QL5e9AgAAAAAAAAAAAMBmCHIA2JQ8j7FOhjDnrqYW4tQpVgEAAAAAAAAAAADA1ghyANikfB9jPdrNLsU2urQQJ+uMVgEAAAAAAAAAAADAVglyANisfB+lTotyhDn/r+1nyF+EOAAAAAAAAAAAAAAgyAFg866EOZNtfKfE1xCnTbEOAAAAAAAAAAAAABDkAMC/8n2MdTKEOf+YhDgAAAAAAAAAAAAA8D1BDgD8Rwtz6tFuzCkbXUELcbLO6G0AAAAAAAAAAAAAgO8JcgDgGvk+Sp0W5Qwb+rNL+3uFOAAAAAAAAAAAAADwc2dWAAA/lu+WSCXnP5dIZbfaP3SOIV9t9kYgAAAAAAAAAAAAAOjihhwAuIF8F2OdjFhdtDLlq0gxDgAAAAAAAAAAAADcnCAHADrkuxjq0aac+J9SLkOc0bcKAAAAAAAAAAAAAH0EOQDQKd9FuRLmnJrSnjtfneSzAwAAAAAAAAAAAMBROLMCALidFua0Y/603DKzO4FHbiFO8c0BAAAAAAAAAAAAwN24IQcA7ijfLkFOu3GmHOkjTvkqUowDAAAAAAAAAAAAAPshyAGAPci3Ueq0KOeYwpz2HEO+XoIhAAAAAAAAAAAAAGBP0goAYP/mT0sEs7vuVzff7O/3d/4c8zWfVqLdivPajTgAAAAAAAAAAAAAcAhuyAGAA8i3MdZpqcx0z/90C3EGMQ4AAAAAAAAAAAAAHI4gBwAOqIU59RgiDh7ItBAn64y2DgAAAAAAAAAAAAAAwCrMf8WjOvNeP/NzfKnzyHYBAAAAAAAAAAAAAAAAAAAAAAAAAAAAAAAAAAAAAAAAAAAAAAAAAAAAAAAAAAAAAAAAAAAAAAAAAAAAAAAAAAAAAAAAAAAAAAAAAAAAAAAAAAAAAAAAAAAAAAAAAAAAAAAAAAAAAAAAAAAAAAAAAAAAAAAAAAAAAAAAAAAAAAAAAAAAAAAAAAAAAAAAAAAAAAAAAAAAAAAAAAAAAAAAAAAAAAAAAAAAAAAAAAAAAAAAAAAAAAAAAAAAAAAAAAAAAAAAAAAAAAAAAAAAAAAAAAAAAAAAAAAAAAAAAAAAAAAAAAAAAAAAAAAAAAAAAAAAAAAAAAAAAAAAAAAAAAAAAAAAAAAAAAAAAAAAAAAAAAAAAAAAAAAAAAAAAAAAAAAAAAAAAAAAAAAAAAAAAAAAAAAAAAAAAAAAAAAAAAAAAAAAAAAAAAAAAAAAAAAAAAAAAAAAAAAAAAAAAAAAAAAAAAAAAAAAAAAAAAAAAAAAAAAAAAAAAAAAAAAAAAAAAAAAAAAAAAAAAAAAAAAAAAAAAAAAAAAAAAAAAAAAAAAAAAAAAAAAAAAAAAAAAAAAAAAAAAAAAAAAAAAAAAAAAAAAAAAAAAAAAAAAAAAAAAAAAAAAAAAAAAAAAAAAAAAAAAAAAAAAAAAAAAAAAAAAAAAAAAAAAAAAAAAAAAAAAAAAAAAAAAAAAAAAAAAAAAAAAAAAAAAAAAAAAAAAAAAAAAAAAAAAAAAAAAAAAAAAAAAAAAAAAAAAAAAAAAAAAAAAAAAAAAAAAAAAAAAAAAAANuRvAdiDAwEAAAAAIP/XRlBVVVVVVVVVVVVVVVVVVVVVVVVVVVVVVVVVVVVVVVVVVVVVVVVVVVVVVVVVVVVVVVVVVVVVVVVVVVVVVVVVVVVVVVVVVVVVVVVVVVVVVVVVVVVVVVVVVVVVVVVVVVVVVVVVVVVVVVVVVVVVVVVVVVVVVVVVVVVVVVVVVVVVVVVVVVVVVVVVVVVVVVVVVVVVVVVVVVVVVVVVVVVVVVVVVVVVVVVVVVVVVVVVVVVVVVVVVVVVVVVVVVVVVVVVVVVVVVVVVVVVVVVVVVVVVVVVVVVVVVVVVVVVVVVVVVVVVVVVVVVVVVVVVVVVVVVVVVVVVVVVVVVVVVVVVVVVVVVVVVVVVVVVVVVVVVVVVVVVVVVVVVVVVVVVVVVVVVVVVVVVVVVVVVVVVVVVVVVVVVVVVVVVVVVVVVVVVVVVVVVVVVVVVVVVVVVVVVVVVVVVVVVVVVVVVVVVVVVVVVVVVVVVVVVVVVVVVVVVVVVVVVVVVVVVVVVVVVVVVVVVVVVVVVVVVVVVVVVVVVVVVVVVVVVVVVVVVVVVVVVVVVVVVVVVVVVVVVVVVVVVVVVVVVVVVVVVVVVVVVVVVVVVVVVVVVVVVVVVVVVVVVVVVVVVVVVVVVVVVVVVVVVVVVVVVVVVVVVVVVVVVVVVVVVVVVVVVVVVVVVVVVVVVVVVVVVVVVVVVVVVVVVVVVVVVVVVVVVVVVVVVVVVVVVVVVVVVVVVVVVVVVVVVVVVVVVVVVVVVVVVVVVVVVVVVVVVVVVVVVVVVVVVVVVVVVVVVVVVVVVVVVVVVVVVVVVVVVVVVVVVVVVVVVVVVVVVVVVVVVVVVVVVVVVVVVVVVVVVVVVVVVVVVVVVVVVVVVVVVVVVVVVVVVVVVVVVVVVVVVVVVVVVVVVVVVVVVVVVVVVVVVVVVVVVVVVVVVVVVVVVVVVVVVVVVVVVVVVVVVVVVVVVVVVVVVVVVVVVVVVVVVVVVVVVVVVVVVVVVVVVVVVVVVVVVVVVVVVVVVVVVVVVVVVVVVVVVVVVVVVVVVVVVVVVVVVVVVVVVVVVVVVVVVVVVVVVVVVVVVVVVVVVVVVVVVVVVVVVVVVVVVVVVVVVVVVVVVVVVVVVVVVVVVVVVVVVVVVVVVVVVVVVVVVVVVVVVVVVVVVVVVVVVVVVVVVVVVVVVVVVVVVVVVVVVVVVVVVVVVVVVVVVVVVVVVVVVVVVVVVVVVVVVVVVVVVVVVVVVVVVVVVVVVVVVVVVVVVVVVVVVVVVVVVVVVVVVVVVVVVVVVVVVVVVVVVVVVVVVVVVVVVVVVVVVVVVVVVVVVVVVVVVVVVVVVVVVVVVVVVVVVVVVVVVVVVVVVVVVVVVVVVVVVVVVVVVVVVVVVVVVVVVVVVVVVVVVVVVVVVVVVVVVVVVVVVVVVVVVVVVVVVVVVVVVVVVVVVVVVVVVVVVVVVVVVVVVVVVVVVVVVVVVVVVVVVVVVVVVVVVVVVVVVVVVVVVVVVVVVVVVVVVVVVVVVVVVVVVVVVVVVVVVVVVVVVVVVVVVVVVVVVVVVVVVVVVVVVVVVVVVVVVVVVVVVVVVVVVVVVVVVVVVVVVVVVVVVVVVVVVVVVVVVVVVVVVVVVVVVVVVVVVVVVVVVVVVVVVVVVVVVVVVVVVVVVVVVVVVVVVVVVVVVVVVVVVVVVVVVVVVVVVVVVVVVVVVVVVVVVVVVVVVVVVVVVVVVVVVVVVVVVVVVVVVVVVVVVVVVVVVVVVVVVVVVVVVVVVVVVVVVVVVVVVVVVVVVVVVVVVVVVVVVVVVVVVVVVVVVVVVVVVVVVVVVVVVVVVVVVVVVVVVVVVVVVVVVVVVVVVVVVVVVVVVVVVVVVVVVVVVVVVVVVVVVVVVVVVVVVVVVVVVVVVVVVVVVVVVVVVVVVVVVVVVVVVVVVVVVVVVVVVVVVVVVVVVVVVVVVVVVVVVVVVVVVVVVVVVVVVVVVVVVVVVVVVVVVVVVVVVVVVVVVVVVVVVVVVVVVVVVVVVVVVVVVVVVVVVVVVVVVVVVVVVVVVVVVVVVVVVVVVVVVVVVVVVVVVVVVVVVVVVVVVVVVVVVVVVVVVVVVVVVVVVVVVVVVVVVVVVVVVVVVVVVVVVVVVVVVVVVVVVVVVVVVVVVVVVVVVVVVVVVVVVVVVVVVVVVVVVVVVVVVVVVVVVVVVVVVVVVVVVVVVVVVVVVVVVVVVVVVVVVVVVVVVVVVVVVVVVVVVVVVVVVVVVVVVVVVVVVVVVVVVVVVVVVVVVVVVVVVVVVVVVVVVVVVVVVVVVVVVVVVVVVVVVVVVVVVVVVVVVVVVVVVVVVVVVVVVVVVVVVVVVVVVVVVVVVVVVVVVVVVVVVVVVVVVVVVVVVVVVVVVVVVVVVVVVVVVVVVVVVVVVVVVVVVVVVVVVVVVVVVVVVVVVVVVVVVVVVVVVVVVVVVVVVVVVVVVVVVVVVVVVVVVVVVVVVVVVVVVVVVVVVVVVVVVVVVVVVVVVVVVVVVVVVVVVVVVVVVVVVVVVVVVVVVVVVVVVVVVVVVVVVVVVVVVVVVVVVVVVVVVVVVVVVVVVVVVVVVVVVVVVVVVVVVVVVVVVVVVVVVVVVVVVVVVVVVVVVVVVVVVVVVVVVVVVVVVVVVVVVVVVVVVVVVVVVVVVVVVVVVVVVVVVVVVVVVVVVVVVVVVVVVVVVVVVVVVVVVVVVVVVVVVVVVVVVVVVVVVVVVVVVVVVVVVVVVVVVVVVVVVVVVVVVVVVVVVVVVVVVVVVVVVVVVVVVVVVVVVVVVVVVVVVVVVVVVVVVVVVVVVVVVVVVVVVVVVVVVVVVVVVVVVVVVVVVVVVVVVVVVVVVVVVVVVVVVVVVVVVVVVVVVVVVVVVVVVVVVVVVVVVVVVVVVVVVVVVVVVVVVVVVVVVVVVVVVVVVVVVVVVVVVVVVVVVVVVVVVVVVVVVVVVVVVVVVVVVVVVVVVVVVVVVVVVVVVVVVVVVVVVVVVVVVVVVVVVVVVVVVVVVVVVVVVVVVVVVVVVVVVVVVVVVVVVVVVVVVVVVVVVVVVVVVVVVVVVVVVVVVVVVVVVVVVVVVVVVVVVVVVVVVVVVVVVVVVVVVVVVVVVVVVVVVVVVVVVVVVVVVVVVVVVVVVVVVVVVVVVVVVVVVVVVVVVVVVVVVVVVVVVVVVVVVVVVVVVVVVVVVVVVVVVVVVVVVVVVVVVVVVVVVVVVVVVVVVVVVVVVVVVVVVVVVVVVVVVVVVVVVVVVVVVVVVVVVVVVVVVVVVVVVVVVVVVVVVVVVVVVVVVVVVVVVVVVVVVVVVVVVVVVVVVVVVVVVVVVVVVVVVVVVVVVVVVVVVVVVVVVVVVVVVVVVVVVVVVVVVVVVVVVVVVVVVVVVVVVVVVVVVVVVVVVVVVVVVVVVVVVVVVVVVVVVVVVVVVVVVVVVVVVVVVVVVVVVVVVVVVVVVVVVVVVVVVVVVVVVVVVVVVVVVVVVVVVVVVVVVVVVVVVVVVVVVVVVVVVVVVVVVVVVVVVVVVVVVVVVVVVVVVVVVVVVVVVVVVVVVVVVVVVVVVVVVVVVVVVVVVVVVVVVVVVVVVVVVVVVVVVVVVVVVVVVVVVVVVVVVVVVVVVVVVVVVVVVVVVVVVVVVVVVVVVVVVVVVVVVVVVVVVVVVVVVVVVVVVVVVVVVVVVVVVVVVVVVVVVVVVVVVVVVVVVVVVVVVVVVVVVVVVVVVVVVVVVVVVVVVVVVVVVVVVVVVVVVVVVVVVVVVVVVVVVVVVVVVVVVVVVVVVVVVVVVVVVVVVVVVVVVVVVVVVVVVVVVVVVVVVVVVVVVVVVVVVVVVVVVVVVVVVVVVVVVVVVVVVVVVVVVVVVVVVVVVVVVVVVVVVVVVVVVVVVVVVVVVVVVVVVVVVVVVVVVVVVVVVVVVVVVVVVVVVVVVVVVVVVVVVVVVVVVVVVVVVVVVVVVVVVVVVVVVVVVVVVVVVVVVVVVVVVVVVVVVVVVVVVVVVVVVVVVVVVVVVVVVVVVVVVVVVVVVVVVVVVVVVVVVVVVVVVVVVVVVVVVVVVVVVVVVVVVVVVVVVVVVVVVVVVVVVVVVVVVVVVVVVVVVVVVVVVVVVVVVVVVVVVVVVVVVVVVVVVVVVVVVVVVVVVVVVVVVVVVVVVVVVVVVVVVVVVVVVVVVVVVVVVVVVVVVVVVVVVVVVVVVVVVVVVVVVVVVVVVVVVVVVVVVVVVVVVVVVVVVVVVVVVVVVVVVVVVVVVVVVVVVVVVVVVVVVVVVVVVVVVVVVVVVVVVVVVVVVVVVVVVVVVVVVVVVVVVVVVVVVVVVVVVVVVVVVVVVVVVVVVVVVVVVVVVVVVVVVVVVVVVVVVVVVVVVVVVVVVVVVVVVVVVVVVVVVVVVVVVVVVVVVVVVVVVVVVVVVVVVVVVVVVVVVVVVVVVVVVVVVVVVVVVVVVVVVVVVVVVVVVVVVVVVVVVVVVVVVVVVVVVVVVVVVVVVVVVVVVVVVVVVVVVVVVVVVVVVVVVVVVVVVVVVVVVVVVVVVVVVVVVVVVVVVVVVVVVVVVVVVVVVVVVVVVVVVVVVVVVVVVVVVVVVVVVVVVVVVVVVVVVVVVVVVVVVVVVVVVVVVVVVVVVVVVVVVVVVVVVVVVVVVVVVVVVVVVVVVVVVVVVVVVVVVVVVVVVVVVVVVVVVVVVVVVVVVVVVVVVVVVVVVVVVVVVVVVVVVVVVVVVVVVVVVVVVVVVVVVVVVVVVVVVVVVVVVVVVVVVVVVVVVVVVVVVVVVVVVVVVVVVVVVVVVVVVVVVVVVVVVVVVVVVVVVVVVVVVVVVVVVVVVVVVVVVVVVVVVVVVVVVVVVVVVVVVVVVVVVVVVVVVVVVVVVVVVVVVVVVVVVVVVVVVVVVVVVVVVVVVVVVVVVVVVVVVVVVVVVVVVVVVVVVVVVVVVVVVVVVVVVVVVVVVVVVVVVVVVVVVVVVVVVVVVVVVVVVVVVVVVVVVVVVVVVVVVVVVVVVVVVVVVVVVVVVVVVVVVVVVVVVVVVVVVVVVVVVVVVVVVVVVVVVVVVVVVVVVVVVVVVVVVVVVVVVVVVVVVVVVVVVVVVVVVVVVVVVVVVVVVVVVVVVVVVVVVVVVVVVVVVVVVVVVVVVVVVVVVVVVVVVVVVVVVVVVVVVVVVVVVVVVVVVVVVVVVVVVVVVVVVVVVVVVVVVVVVVVVVVVVVVVVVVVVVVVVVVVVVVVVVVVVVVVVVVVVVVVVVVVVVVVVVVVVVVVVVVVVVVVVVVVVVVVVVVVVVVVVVVVVVVVVVVVVVVVVVVVVVVVVVVVVVVVVVVVVVVVVVVVVVVVVVVVVVVVVVVVVVVVVVVVVVVVVVVVVVVVVVVVVVVVVVVVVVVVVVVVVVVVVVVVVVVVVVVVVVVVVVVVVVVVVVVVVVVVVVVVVVVVVVVVVVVVVVVVVVVVVVVVVVVVVVVVVVVVVVVVVVVVVVVVVVVVVVVVVVVVVVVVVVVVVVVVVVVVVVVVVVVVVVVVVVVVVVVVVVVVVVVVVVVVhDw5IAAAAAAT9f92PUAEAAAAAAAAAAAAAAAAAAAAAAAAAAAAAAAAAAAAAAAAAAAAAAAAAAAAAAAAAAAAAAAAAAAAAAAAAAAAAAAAAAAAAAAAAAAAAAAAAAAAAAAAAAAAAAAAAAAAAAAAAAAAAAAAAAAAAAAAAAAAAAAAAAAAAAAAAAAAAAAAAAAAAAAAAAAAAAAAAAAAAAAAAAAAAAAAAAAAAAAAAAAAAAAAAAAAAAAAAAAAAAAAAAAAAAAAAAAAAAAAAAAAAAAAAAAAAAAAAAAAAAAAAAAAAAAAAAAAAAAAAAAAAAAAAAAAAAAAAAAAAAAAAAAAAAAAAAAAAAAAAAAAAAAAAAAAAAAAAAAAAAAAAAAAAAAAAAAAAAAAAAAAAAAAAAAAAAAAAAAAAAAAAAAAAAAAAAAAAAAAAAAAAAAAAAAAAAAAAAAAAAAAAAAAAAAAAAAAAAAAAAAAAAAAAAAAAAAAAAAAAAAAAAAAAAAAAAAAAAAAAAAAAAAAAAAAAAAAAAAAAAAAAAAAAAAAAAAAAAAAAAAAAAAAAAAAAAAAAAAAAAAAAAAAAAAAAAAAAAAAAAAAAAAAAAAAAAAAAAAAAAAAAAAAAAAAAAAAAAAAAAAAAAAAAAAAAAAAAAAAAAAAAAAAAAAAAAAAAAAAAAAAAAAAAAAAAAAAAAAAAAAAAAAAAAAAAAAAAAAAAAAAAAAAAAAAAAAAAAAAAAAAAAAAAAAAAAAAAAAAAAAAAAAAAAAAAAAAAAAAAAAAAAAAAAAAAAAAAAAAAAAAAAAAAAAAAAAAAAAAAAAAAAAAAAAAAAAAAAAAAAAAAAAAAAAAAAAAAAAAAAAAAAAAAAAAAAAAAAAAAAAAAAAAAAAAAAAAAAAAAAAAAAAAAAAAAAAAAAAAAAAAAAAAAAAAAAAAAAAAAAAAAAAAAAAAAAAAAAAAAAAAAAAAAAAAAAAAAAAAAAAAAAAAAAAAAAAAAAAAAAAAAAAAAAAAAAAAAAAAAAAAAAAAAAAAAAAAAAAAAAAAAAAAAAAAAAAAAAAAAAAAAAAAAAAAAAAAAAAAAAAAAAAAAAAAAAAAAAAAAAAAAAAAAAAAAAAAAAAAAAAAAAAAAAAAAAAAAAAAAAAAAAAAAAAAAAAAAAAAAAAAAAAAAAAAAAAAAAAAAAAAAAAAAAAAAAAAAAAAAAAAAAAAAAAAAAAAAAAAAAAAAAAAAAAAAAAAAAAAAAAAAAAAAAAAAAAAAAAAAAAAAAAAAAAAAAAAAAAAAAAAAAAAAAAAAAAAAAAAAAAAAAAAAAAAAAAAAAAAAAAAAAAAAAAAAAAAAAAAAAAAAAAAAAAAAAAAAAAAAAAAAAAAAAAAAAAAAAAAAAAAAAAAAAAAAAAAAAAAAAAAAAAAAAAAAAAAAAAAAAAAAAAAAAAAAAAAAAAAAAAAAAAAAAAAAAAAAAAAAAAAAAAAAAAAAAAAAAAAAAAAAAAAAAAAAAAAAAAAAAAAAAAAAAAAAAAAAAAAAAAAAAAAAAAAAAAAAAAAAAAAAAAAAAAAAAAAAAAAAAAAAAAAAAAAAAAAAAAAAAAAAAAAAAAAAAAAAAAAAAAAAAAAAAAAAAAAAAAAAAAAAAAAAAAAAAAAAAAAAAAAAAAAAAAAAAAAAAAAAAAAAAAAAAAAAAAAAAAAAAAAAAAAAAAAAAAAAAAAAAAAAAAAAAAAAAAAAAAAAAAAAAAAAAAAAAAAAAAAAAAAAAAAAAAAAAAAAAAAAAAAAAAAAAAAAAAAAAAAAAAAAAAAAAAAAAAAAAAAAAAAAAAAAAAAAAAAAAAAAAAAAAAAAAAAAAAAAAAAAAAAAAAAAAAAAAAAAAAAAAAAAAAAAAAAAAAAAAAAAAAAAAAAAAAAAAAAAAAAAAAAAAAAAAAAAAAAAAAAAAAAAAAAAAAAAAAAAAAAAAAAAAAAAAAAAAAAAAAAAAAAAAAAAAAAAAAAAAAAAAAAAAAAAAAAAAAAAAAAAAAAAAAAAAAAAAAAAAAAAAAAAAAAAAAAAAAAAAAAAAAAAAAAAAAAAAAAAAAAAAAAAAAAAAAAAAAAAAAAAAAAAAAAAAAAAAAAAAAAAAAAAAAAAAAAAAAAAAAAAAAAAAAAAAAAAAAAAAAAAAAAAAAAAAAAAAAAAAAAAAAAAAAAAAAAAAAAAAAAAAAAAAAAAAAAAAAAAAAAAAAAAAAAAAAAAAAAAAAAAAAAAAAAAAAAAAAAAAAAAAAAAAAAAAAAAAAAAAAAAAAAAAAAAAAAAAAAAAAAAAAAAAAAAAAAAAAAAAAAAAAAAAAAAAAAAAAAAAAAAAAAAAAAAAAAAAAAAAAAAAAAAAAAAAAAAAAAAAAAAAAAAAAAAAAAAAAAAAAAAAAAAAAAAAAAAAAAAAAAAAAAAAAAAAAAAAAAAAAAAAAAAAAAAAAAAAAAAAAAAAAAAAAAAAAAAAAAAAAAAAAAAAAAAAAAAAAAAAAAAAAAAAAAAAAAAAAAAAAAAAAAAAAAAAAAAAAAAAAAAAAAAAAAAAAAAAAAAAAAAAAAAAAAAAAAAAAAAAAAAAAAAAAAAAAAAAAAAAAAAAAAAAAAAAAAAAAAAAAAAAAAAAAAAAAAAAAAAAAAAAAAAAAAAAAAAAAAAAAAAAAAAAAAAAAAAAAAAAAAAAAAAAAAAAAAAAAAAAAAAAAAAAAAAAAAAAAAAAAAAAAAAAAAAAAAAAAAAAAAAAAAAAAAAAAAAAAAAAAAAAAAAAAAAAAAAAAAAAAAAAAAAAAAAAAAAAAAAAAAAAAAAAAAAAAAAAAAAAAAAAAAAAAAAAAAAAAAAAAAAAAAAAAAAAAAAAAAAAAAAAAAAAAAAAAAAAAAAAAAAAAAAAAAAAAAAAAAAAAAAAAAAAAAAAAAAAAAAAAAAAAAAAAAAAAAAAAAAAAAAAAAAAAAAAAAAAAAAAAAAAAAAAAAAAAAAAAAAAAAAAAAAAAAAAAAAAAAAAAAAAAAAAAAAAAAAAAAAAAAAAAAAAAAAAAAAAAAAAAAAAAAAAAAAAAAAAAAAAAAAAAAAAAAAAAAAAAAAAAAAAAAAAAAAAAAAAAAAAAAAAAAAAAAAAAAAAAAAAAAAAAAAAAAAAAAAAAAAAAAAAAAAAAAAAAAAAAAAAAAAAAAAAAAAAAAAAAAAAAAAAAAAAAAAAAAAAAAAAAAAAAAAAAAAAAAAAAAAAAAAAAAAAAAAAAAAAAAAAAAAAAAAAAAAAAAAAAAAAAAAAAAAAAAAAAAAAAAAAAAAAAAAAAAAAAAAAAAAAAAAAAAAAAAAAAAAAAAAAAAAAAAAAAAAAAAAAAAAAAAAAAAAAAAAAAAAAAAAAAAAAAAAAAAAAAAAAAAAAAAAAAAAAAAAAAAAAAAAAAAAAAAAAAAAAAAAAAAAAAAAAAAAAAAAAAAAAAAAAAAAAAAAAAAAAAAAAAAAAAAAAAAAAAAAAAAAAAAAAAAAAAAAAAAAAAAAAAAAAAAAAAAAAAAAAAAAAAAAAAAAAAAAAAAAAAAAAAAAAAAAAAAAAAAAAAAAAAAAAAAAAAAAAAAAAAAAAAAAAAAAAAAAAAAAAAAAAAAAAAAAAAAAAAAAAAAAAAAAAAAAAAAAAAAAAAAAAAAAAAAAAAAAAAAAAAAAAAAAAAAAAAAAAAAAAAAAAAAAAAAAAAAAAAAAAAAAAAAAAAAAAAAAAAAAAAAAAAAAAAAAAAAAAAAAAAAAAAAAAAAAAAAAAAAAAAAAAAAAAAAAAAAAAAAAAAAAAAAAAAAAAAAAAAAAAAAAAAAAAAAAAAAAAAAAAAAAAAAAAAAAAAAAAAAAAAAAAAAAAAAAAAAAAAAAAAAAAAAAAAAAAAAAAAAAAAAAAAAAAAAAAAAAAAAAAAAAAAAAAAAAAAAAAAAAAAAAAAAAAAAAAAAAAAAAAAAAAAAAAAAAAAAAAAAAAAAAAAAAAAAAAAAAAAAAAAAAAAAAAAAAAAAAAAAAAAAAAAAAAAAAAAAAAAAAAAAAAAAAAAAAAAAAAAAAAAAAAAAAAAAAAAAAAAAAAAAAAAAAAAAAAAAAAAAAAAAAAAAAAAAAAAAAAAAAAAAAAAAAAAAAAAAAAAAAAAAAAAAAAAAAAAAAAAAAAAAAAAAAAAAAAAAAAAAAAAAAAAAAAAAAAAAAAAAAAAAAAAAAAAAAAAAAAAAAAAAAAAAAAAAAAAAAAAAAAAAAAAAAAAAAAAAAAAAAAAAAAAAAAAAAAAAAAAAAAAAAAAAAAAAAAAAAAAAAAAAAAAAAAAAAAAAAAAAAAAAAAAAAAAAAAAAAAAAAAAAAAAAAAAAAAAAAAAAAAAAAAAAAAAAAAAAAAAAAAAAAAAAAAAAAAAAAAAAAAAAAAAAAAAAAAAAAAAAAAAAAAAAAAAAAAAAAAAAAAAAAAAAAAAAAAAAAAAAAAAAAAAAAAAAAAAAAAAAAAAAAAAAAAAAAAAAAAAAAAAAAAAAAAAAAAAAAAAAAAAAAAAAAAAAAAAAAAAAAAAAAAAAAAAAAAAAAAAAAAAAAAAAAAAAAAAAAAAAAAAAAAAAAAAAAAAAAAAAAAAAAAAAAAAAAAAAAAAAAAAAAAAAAAAAAAAAAAAAAAAAAAAAAAAAAAAAAAAAAAAAAAAAAAAAAAAAAAAAAAAAAAAAAAAAAAAAAAAAAAAAAAAAAAAAAAAAAAAAAAAAAAAAAAAAAAAAAAAAAAAAAAAAAAAAAAAAAAAAAAAAAAAAAAAAAAAAAAAAAAAAAAAAAAAAAAAAAAAAAAAAAAAAAAAAAAAAAAAAAAAAAAAAAAAAAAAAAAAAAAAAAAAAAAAAAAAAAAAAAAAAAAAAAAAAAAAAAAAAAAAAAAAAAAAAAAAAAAAAAAAAAAAAAAAAAAAAAAAAAAAAAAAAAAAAAAAAAAAAAAAAAAAAAAAAAAAAAAAAAAAAAAAAAAAAAAAAAAAAAAAAAAAAAAAAAAAAAAAAAAAAAAAAAAAAAAAAAAAAAAAAAAAAAAAAAAAAAAAAAAAAAAAAAAAAAAAAAAAAAAAAAAAAAAAAAAAAAAAAAAAAAAAAAAAAAAAAAAAAAAAAAAAAAAAAAAAAAAAAAAAAAAAAAAAAAAAAAAAAAAAAAAAAAAAAAAAAAAAAAAAAAAAAAAAAAAAAAAAAAAAAAAAAAAAAAAAAAAAAAAAAAAAAAAAAAAAAAAAAAAAAAAAAAAAAAAAAAAAAAAAAAAAAAAAAAAAAAAAAAAAAAAAAAAAAAAAAAAAAAAAAAAAAAAAAAAAAAAAAAAAAAAAAAAAAAAAAAAAAAAAAAAAAAAAAAAAAAAAAAAAAAAAAAAAAAAAAAAAAAAAAAAAAAAAAAAAAAAAAAAAAAAAAAAAAAAAAAAAAAAAAAAAAAAAAAAAAAAAAAAAAAAAAAAAAAAAAAAAAAAAAAAAAAAAAAAAAAAICpBGgPDgQAAAAAgPxfG0FVVVVVVVVVVVVVVVVVVVVVVVVVVVVVVVVVVVVVVVVVVVVVVVVVVVVVVVVVVVVVVVVVVVVVVVVVVVVVVVVVVVVVVVVVVVVVVVVVVVVVVVVVVVVVVVVVVVVVVVVVVVVVVVVVVVVVVVVVVVVVVVVVVVVVVVVVVVVVVVVVVVVVVVVVVVVVVVVVVVVVVVVVVVVVVVVVVVVVVVVVVVVVVVVVVVVVVVVVVVVVVVVVVVVVVVVVVVVVVVVVVVVVVVVVVVVVVVVVVVVVVVVVVVVVVVVVVVVVVVVVVVVVVVVVVVVVVVVVVVVVVVVVVVVVVVVVVVVVVVVVVVVVVVVVVVVVVVVVVVVVVVVVVVVVVVVVVVVVVVVVVVVVVVVVVVVVVVVVVVVVVVVVVVVVVVVVVVVVVVVVVVVVVVVVVVVVVVVVVVVVVVVVVVVVVVVVVVVVVVVVVVVVVVVVVVVVVVVVVVVVVVVVVVVVVVVVVVVVVVVVVVVVVVVVVVVVVVVVVVVVVVVVVVVVVVVVVVVVVVVVVVVVVVVVVVVVVVVVVVVVVVVVVVVVVVVVVVVVVVVVVVVVVVVVVVVVVVVVVVVVVVVVVVVVVVVVVVVVVVVVVVVVVVVVVVVVVVVVVVVVVVVVVVVVVVVVVVVVVVVVVVVVVVVVVVVVVVVVVVVVVVVVVVVVVVVVVVVVVVVVVVVVVVVVVVVVVVVVVVVVVVVVVVVVVVVVVVVVVVVVVVVVVVVVVVVVVVVVVVVVVVVVVVVVVVVVVVVVVVVVVVVVVVVVVVVVVVVVVVVVVVVVVVVVVVVVVVVVVVVVVVVVVVVVVVVVVVVVFcQX9XoPQbKkAAAAAElFTkSuQmCC;" parent="VbjRo9HtqSkB1Ggf5Mw8-119" vertex="1">
          <mxGeometry x="26" y="10" width="118.29" height="70" as="geometry" />
        </mxCell>
        <mxCell id="VbjRo9HtqSkB1Ggf5Mw8-120" value="" style="shape=image;verticalLabelPosition=bottom;labelBackgroundColor=default;verticalAlign=top;aspect=fixed;imageAspect=0;image=https://upload.wikimedia.org/wikipedia/en/b/b9/Nvidia_CUDA_Logo.jpg;" parent="VbjRo9HtqSkB1Ggf5Mw8-119" vertex="1">
          <mxGeometry x="30" y="56" width="42.91" height="26" as="geometry" />
        </mxCell>
        <mxCell id="VbjRo9HtqSkB1Ggf5Mw8-137" style="edgeStyle=orthogonalEdgeStyle;rounded=0;orthogonalLoop=1;jettySize=auto;html=1;exitX=0;exitY=0.75;exitDx=0;exitDy=0;" parent="1" source="VbjRo9HtqSkB1Ggf5Mw8-121" target="VbjRo9HtqSkB1Ggf5Mw8-39" edge="1">
          <mxGeometry relative="1" as="geometry">
            <Array as="points">
              <mxPoint x="490" y="543" />
              <mxPoint x="490" y="440" />
              <mxPoint x="420" y="440" />
            </Array>
          </mxGeometry>
        </mxCell>
        <mxCell id="VbjRo9HtqSkB1Ggf5Mw8-121" value="Img2Vec" style="rounded=0;whiteSpace=wrap;html=1;" parent="1" vertex="1">
          <mxGeometry x="590" y="520" width="120" height="30" as="geometry" />
        </mxCell>
        <mxCell id="VbjRo9HtqSkB1Ggf5Mw8-127" value="Klasifikacijski model" style="rounded=0;whiteSpace=wrap;html=1;" parent="1" vertex="1">
          <mxGeometry x="590" y="420" width="120" height="30" as="geometry" />
        </mxCell>
        <mxCell id="VbjRo9HtqSkB1Ggf5Mw8-128" value="LLM" style="rounded=0;whiteSpace=wrap;html=1;" parent="1" vertex="1">
          <mxGeometry x="590" y="470" width="120" height="30" as="geometry" />
        </mxCell>
        <mxCell id="VbjRo9HtqSkB1Ggf5Mw8-116" style="edgeStyle=orthogonalEdgeStyle;rounded=0;orthogonalLoop=1;jettySize=auto;html=1;endArrow=none;endFill=0;jumpStyle=arc;" parent="1" source="VbjRo9HtqSkB1Ggf5Mw8-26" target="VbjRo9HtqSkB1Ggf5Mw8-113" edge="1">
          <mxGeometry relative="1" as="geometry">
            <Array as="points">
              <mxPoint x="490" y="340" />
              <mxPoint x="490" y="420" />
            </Array>
          </mxGeometry>
        </mxCell>
        <mxCell id="VbjRo9HtqSkB1Ggf5Mw8-136" value="" style="shape=waypoint;sketch=0;fillStyle=solid;size=6;pointerEvents=1;points=[];fillColor=none;resizable=0;rotatable=0;perimeter=centerPerimeter;snapToPoint=1;" parent="1" vertex="1">
          <mxGeometry x="360" y="270" width="20" height="20" as="geometry" />
        </mxCell>
        <mxCell id="VbjRo9HtqSkB1Ggf5Mw8-71" style="edgeStyle=orthogonalEdgeStyle;rounded=0;orthogonalLoop=1;jettySize=auto;html=1;entryX=1;entryY=0.5;entryDx=0;entryDy=0;endArrow=none;endFill=0;jumpStyle=arc;" parent="1" source="VbjRo9HtqSkB1Ggf5Mw8-65" target="VbjRo9HtqSkB1Ggf5Mw8-8" edge="1">
          <mxGeometry relative="1" as="geometry">
            <Array as="points">
              <mxPoint x="380" y="185" />
            </Array>
          </mxGeometry>
        </mxCell>
        <mxCell id="VbjRo9HtqSkB1Ggf5Mw8-141" value="" style="shape=image;verticalLabelPosition=bottom;labelBackgroundColor=default;verticalAlign=top;aspect=fixed;imageAspect=0;image=data:image/png,iVBORw0KGgoAAAANSUhEUgAAAZUAAAB8CAMAAACWud33AAAA/1BMVEX///8jHyAAlteWlpZttBP8kRQAAAD8/PwgHB0kHyEeGhsKAAATDQ8+Ozzp6ekXEhPFxMTj4+NycHHS0dH8jAAuKiuioqJosgCHhocAktaQkJCrqqocFxm5uLlUUVL8/vr09PRoZmbr9/zNzM0kn9o2MzSamZmJwUpBPz9+fH1dW1vb2trl5OQ6pdyc0OxBqd7R6vf0+e3j8NaPxFXB3qSt04b8nz79vn60s7NJRkf9s23i8/qz2PCAxOhYtOJ6uTW52pfr9d+jz3PP5bvZ6saXyGV4uifH5PR2veWp1u/+5Mr+2LL8pUr90KT8myr/8uL9xI/8rF/+0q7+3cP+6tpPNJFMAAAMiklEQVR4nO2ce1+bzBLHQ62EAAmJMWoiKlajJtFqa/tUH2u19/vtnL7/13LYXWBnrxAT6+e08/0rwsLC/nZndmYXazUEQRAEQRAEQRAEQRAEQRAEQRDkt7N11w+AMC7eP798cXT0gPzeOr3af3v95uVdP9PfzcX7D0f3+oRdpsr+KuH+1avXqMzdcPHwOFXkHqNQ5T4lVWb/GoX57Zx8uJcrolGFCrN6+hr9zG+k/vy4DzXRqUKFuXqCuvwunh+JkphUIcJcPbnrp/07ODlWNDGrkuqy/+aun/jPp36p0cSmSmrHnj6666f+wznZ1YpiU4WYMRwut8lDrSRlqqTD5fqOH/wPpv5BP1BI2MJUuSIxpFaXt2jFbocLdepFFdk9/nD5sU6LvL5+evpOq8zqFQaVt8GFxqX0+8eXJw/Eco8eX59qhFm9//hunvuP5kQjydHDC33hl0/2FV1QlvmjiNLvv3hft1zw+JWsC8oyby52ZVFenJRd81LWBWWZL7JP6R+9r3LZY2mmvPoOXf78qEtJlv6lzXZBrsXhsrqP2cq5IcYp/d1S48V5806U5dXtPeVfxkdRlOMH5ZdwHp2KsmAOeT5ciNbrw7TXvxKdC7qWufACDpX+5fQ3eAplWT2d/xP+hQj2a/qRQhBlQRs2Ow9gpNJ/cbObCEbsHSYqZ0ZY5Tq66V2gy8d52MyIrt6Q9irn0RWUBUP8GYGhSv/5ze/zBqrydn7P91fy4AXfYnQzT5/DPf4qrrXMDNiON1X0KLN1lWuyj5v35sDFJc1N9j/OdpvXqzRt/Badypyofzzq93dnvcvp6uo73Hw8V94fz+DqGY+v0HQhfyrdbpV1lLpElTt/+lzlliWVTXdWfkxNmbJqbUfUK+3VTdtinPXBXjspK9R1RZrl9/38Zfkf2/nEoXfqqXV3Q6fBcBrD8UpLPNt2G/lZp7m9Ll6+FjZk3I54/Tl7A+loSt2NfT9cAkdaPa/R8IbFA0xI1eEKfNRIqs2DLdMObC9iI9lbWBgMNkqu6MSeAwhHJXfd+vpteXlx8bulyIZLb+W2lTPdwCvw48AdJfBs2wVno8Bdg71wFHoyUvtPQlptsKBUWyc3llTxyaFx8WCkRCCoEki1xUPToyovYqMzWCAM1ifWYisBEMUbWsvWvv9YTCVZXFz+r6XQOKb3isbKmS6si7TgEPaZtiudPQCyrIWOjKRKVsI/UK0fuXEkjRV6h0H+YKSEqIpcn9A0beuL2NhhqqS67O1Yiglt4R/Y7vjr2TLVJFXlmblU1mcdz1dsiayKE0LlZFUc2L1LVUmGfnZYGaNGVZwgK1tBFd+mivgiNs4WClYsxZYi2CHUlgT8zDRJ+WIuVbSfakuYKnFACFlvPeNnmSoROys38MgNCazlI/pbVGUj1zTalqs1q+L3WB83qRKHBUEPnG1bX8TGSiHKwDJWWo7gVzRWmfOVq/LNGLsUfdbxm7ItoapES23Cmk/KxZvgVUnThGv07CjwxJZMWoRkRPpQ3GV/CffO7Gbaszy5Z5lVyfu4QZVwwCpidYOzVJVoxF4kpi9SbbAQZ5+rYhkAA3Esek5iLvuLq7L4y1Rog9uhQLYlVJVwj/0xaaQt4/UOi7NUlSDrczuk+T1lHkcGYiM+rClMoqJ3BXvSOYsqjku7oUkVUx+lquTlJw59kUqepcUN2IL5gmQoDBXp0SS+c1GWP5kKsT5LzaLi7wVVmO0M+VxEUKW2Se4TJNIdmCqaXsbsJq1b8fc2VZyAGJKbqWJ6EQutQSHKnjnQWZE9rNczlq1t/cNVMU3CmK+PRqHOltyeKsxuRtus/0tj1KqK7yRGVaJRdyenC++oUSWopMqEq2Lu/vUD35EILG6Lu/vlr4YitM/6562mp7Elgio78sAXVGmHFgumqkLtphe36EiV/b1JlR4dWsS1mLx9xMNrobcKFmzHq27BulyVdWOhDXmoSDNAiX+5Kj/0JVifDQaZOkNxlGbefoOwxvw5MHJUlWhEz47YfEyJaU2qMDWWamdUnYboeAyqxEvrtJbUtZTPjMWYoW19EQtAFXPv34wdBcVHc55xVQwBC+uzYac2IT8a0r3YzJh1wGzuuwFe1VXOdqXbm1Rhvj61XAkdBJJzNKiSDqlxxKqZ3EQV44tY2KmgihLVEeBkVQKo8q++BLcg7JfYg5T6AmsUGSzVZAyqsJF5kJDMjKPMyc2qJDQu8Hs7BlW8OCcSEoRKFBkoQZIeoIpRxu3I0WD2Wz/KVCn6bC2zJZ5gS2RV3E3YepIqnqsxCnpV6nQmGZL8Ce31bGLFTxtVyeqMm8oIo6p4zc0CodklVTzxRSxUGCsdn0+LgSmL1C6aUTpWsj5LHrHeU/09UyXrgOn4HwgXsxbiZ+WwI69AVWWDGRTqbzX+3qJKbYFV6mhVCXWPQB81exE2V/KM5RQqeHuQW4q2gR0NTNOJMr+SxfW95nA4bPbIT3HuQFXJO+D2WSK9qgvOLp1pe59elcw98mo9B45Rmyq1zcJeTBuvpI96QC8ObWkqkfKZcQIm7c0WmCOHA/0FpXOwfErn+X4+DAV/L8YryqsK8YoerSp5XE+q9TUtbFWl5eWtMHUUmfZ2Ol2oOP8idEpVWefGMX0gkNH3QoOVBPHKf3Tnx+qUTrAlt6TKQM0n+9A5W1Xh7kwXRU4A8FFzVVgaUWtstcDYPtGWaBajg4RASYM7mUBv88pi+wldQfODHPKXB5NWt6MK82BemFdLXwv6e7sqtYFrUsWeM6atxEKBQJnCGwDZSX0eDMwjwrWa0OO8hvaW37/Z82AD5uvXM1aU2OF2VKG+3nNW8nrPfWmMlqiSu5Zp11dY3x2RnzGZlFehDjL52qkujyC9iLzmYcAHi2Z1tybmjDVLxHUW1/NGz+J78Kq3ospmLDY6jdg9h3fFMlVakWEOBlHXIpkqSZMm7MpW1ouH46ro2hhUmz3wiB+JtWuScH1Fc3qDLmaH3GJN6AFgS+hiuJJoz6GL4SWrR2tk+T4SVJnQFX2X15I0yKK8y9u47nqKKmkRPpzYMvy06/Yus/NdVn+12L7Wtrt7sAaZWcUJiOLUXEdNmIL91JweS31WPdING3MZK0JousDyofIaP/D3dTf1Ni6cdrA8GD9Cbe/NxkqttkeKxtWyk3BqvJAoZw/53pZiGQ2E+uoyq+jsdSljdXuUcsS+garC9ipNEeNuLdtVVUvY94OZn8BIwkUZqD0f+PbCicCUh6tK/4kbMPOiF1ICd/dqdJ/w5fq4GPx1kEKm0zKRZ1WW7ZES2hYTBiJIl0t2BgeLPCK3wLxY51aQSoDoXpmFFRtR0plrUhyt88PqAv5nYMDs+4wRCyBikZfuQQQp7DWCaRdPut0Xe7SCVASYMGlLGIggY+jWE7DrWJqBQ1+PBmwG4OYjYbBMQLJFDErB1Eza3foFZ2Bzgof3omeBEaSYjWlBfw/HF/Aqi9bvJJAygL+HKcpWWNgpJVoEgsFlAzABM2TxkarUwWABMctCqB8PBCHtwvNNIFbBYGVWYNalcPh1vlwfq7sAwMoV9znQfhk36CFVgYMl3wQOI0g10ymkXRJ2DGwwTr0KDpVZETzLAhsYIIJsJuol53yw5En3n3CoYAQ5O2dAFuZZwGDQJtU3YCTJdAReZdnyPRFSlUSxYMBxeM3RjpQbrk/AXCDPkf0CBsz44QoyBXxfGEtswUmW44XucDw4m3Qok/bK0nkAl3vySLIwYejq50Ruw7JFlpG0yObFoetGcRSR7YpBJO0dytZe8nQL5lrmRb7ZheVcEvXbCBv5OmWeb8G05Lxg87As5bKn24ZvwWUZmc/ln9kj08FcS0J/82RLNbIPe+iavelTIuRGkJQ+ixfPpjNgTrGA/3XZ+q8PkBuwMRiwxuW7WJ1I+SSSA05lW8G/Gz8kQm5Mm22z2gER5NKBG/kae+bFQXTOM8f5F/g/UJT5w4L0cdHa8XktaS8d+G4YxT77WID8+54wCIbjlQ7IyjjZJsQtTH/dEh0+VNjO0aTTHixtNnt+GrOEXu98PFqfJOTEOi+p/uMPZK7wCFL45jo5nEy63UmnxY/VQ+MCPjJfEnmoWABxjeWjYmR2+L4ir1dmleplW8GR+QDWII0f/HFGypcUyG0AjJLmX2bKgGUWJ6j+kSwyHS3owJPS4nClOBrjNOx2OAQrv064VtrMwn8+DMc7qMv86WwHoQ9wG9vWZm4PA1g8jWd6lf7/FTINXacp4SS28us9uXzP9o9eEQRBEARBEARBEARBEARBEARB/u/4HydWNQLGjwWkAAAAAElFTkSuQmCC;" parent="1" vertex="1">
          <mxGeometry x="618" y="184" width="97.98" height="30" as="geometry" />
        </mxCell>
        <mxCell id="VbjRo9HtqSkB1Ggf5Mw8-144" value="" style="group" parent="1" vertex="1" connectable="0">
          <mxGeometry x="-60" y="168" width="118.62" height="174" as="geometry" />
        </mxCell>
        <mxCell id="Qrw_-wwpb4TplQ6HBM6D-2" value="" style="shape=image;verticalLabelPosition=bottom;labelBackgroundColor=default;verticalAlign=top;aspect=fixed;imageAspect=0;image=data:image/png,iVBORw0KGgoAAAANSUhEUgAACgAAAALbCAYAAAA2QtlTAAAABGdBTUEAALGPC/xhBQAAACBjSFJNAAB6JgAAgIQAAPoAAACA6AAAdTAAAOpgAAA6mAAAF3CculE8AAAABmJLR0QA/wD/AP+gvaeTAACAAElEQVR42uz9d7hlZ2Hn+f7WPqdKVYqliBIoIIEQqEoSIpogFEzOyYBNsHGO7Xa3p/v2nemZe2fu7ZnbPXeme9rdtrvtGQdsbIMTAqQSYIIxmCCJjABFkEpCVcqVzjl7/li7pFKp6sS9117rXZ/P85ynRCFVnfdde6W9v+ddCQAAAAAAAAAAAAAAAAAAAAAAAAAAAAAAAAAAAAAAAAAAAAAAAAAAAAAAAAAAAAAAAAAAAAAAAAAAAAAAAAAAAAAAAAAAAAAAAAAAAAAAAAAAAAAAAAAAAAAAAAAAAAAAAAAAQN9UpgCAfV7+D8OjB4dnpi/jfWgmh83O5/A+beNBcmzPXtZHLGRu/Wr+w7mZ2a9+4unVnY4MAAAAAAAAALTVrCkA6I7Lr5v/2arKb2VCAffeLCTDHp0E5/r3Glro5Z4zWPF/UaX68Mb1eb2jDgAAAAAAAABtZgVAgI6YdPwH7Ls4qj48e3j1+g+fW+02GwAAAAAAAAC0mYgEoAPEf9DUhZH4DwAAAAAAAIDuEJIAtJz4D5q6KBL/AQAAAAAAANAtYhKAFrvihvmfyTD/yfEaJn1BJP4DAAAAAAAAoHsEJQAtJf6Dpi6GxH8AAAAAAAAAdJOoBKCFxH/Q1IWQ+A8AAAAAAACA7hKWALSM+A+auggS/wEAAAAAAADQbeISgBYR/0FTF0DiPwAAAAAAAAC6T2AC0BLiP2jq4kf8BwAAAAAAAEAZRCYALSD+g6YufMR/AAAAAAAAAJRDaAIwZeI/aOqiR/wHAAAAAAAAQFnEJgBTJP6Dpi54xH8AAAAAAAAAlEdwAjAl4j9o6mJH/AcAAAAAAABAmUQnAFMg/oOmLnTEfwAAAAAAAACUS3gC0DDxHzR1kSP+AwAAAAAAAKBs4hOABon/oKkLHPEfAAAAAAAAAOUToAA0RPwHTV3ciP8AAAAAAAAA6AcRCkADxH/Q1IWN+A8AAAAAAACA/hCiAEyY+A+auqgR/wEAAAAAAADQL2IUgAkS/0FTFzTiPwAAAAAAAAD6R5ACMCFX3DD30xlW/9mxFiZ9MSP+AwAAAAAAAKCfRCkAEyD+g6YuZMR/AAAAAAAAAPSXMAVgzMR/0NRFjPgPAAAAAAAAgH4TpwCMkfgPmrqAEf8BAAAAAAAAgEAFYEzEf9DUxYv4DwAAAAAAAAASkQrAWIj/oKkLF/EfAAAAAAAAAOwjVAFYI/EfNHXRIv4DAAAAAAAAgP2JVQDWQPwHTV2wiP8AAAAAAAAA4ECCFYBVEv9BUxcr4j8AAAAAAAAAOBjRCsAqiP+gqQsV8R8AAAAAAAAAHIpwBWCFxH/Q1EWK+A8AAAAAAAAAFiNeAVgB8R80dYEi/gMAAAAAAACApQhYAJZJ/AdNXZyI/wAAAAAAAABgOUQsAMsg/oOmLkzEfwAAAAAAAACwXEIWgCWI/6CpixLxHwAAAAAAAACshJgFYBHiP2jqgkT8BwAAAAAAAAArJWgBOATxHzR1MSL+AwAAAAAAAIDVGJgCgMcbxX//KeI/mCjxHwAAAAAAAACsnrAF4AD7xX8iaZjoRYj4DwAAAAAAAADWQgAIsB/xHzR1ASL+AwAAAAAAAIC1EgACjIj/oKmLD/EfAAAAAAAAAIyDABAg4j9o7sJD/AcAAAAAAAAA4yIABHpP/AdNXXSI/wAAAAAAAABgnASAQK+J/6CpCw7xHwAAAAAAAACMm+AF6C3xHzSlukr8BwAAAAAAAADjN2MKgD668vq59ybVf474Dyasumrd4dUbxH8AAAAAAAAAMH4eAQz0zpXXz713KP6DJi4zxH8AAAAAAAAAMEECQKBXxH/Q2CWG+A8AAAAAAAAAJkwACPSG+A8au7wQ/wEAAAAAAABAAwSAQC+I/6CxSwvxHwAAAAAAAAA0RAAIFE/8B41dVoj/AAAAAAAAAKBBAkCgaOI/aOySQvwHAAAAAAAAAA0TAALFEv9BY5cT4j8AAAAAAAAAmAIBIFAk8R80dikh/gMAAAAAAACAKREAAsUR/0FjlxHiPwAAAAAAAACYIgEgUBTxHzR2CSH+AwAAAAAAAIApEwACxRD/QWOXD+I/AAAAAAAAAGgBASBQBPEfNHbpIP4DAAAAAAAAgJYQAAKdJ/6Dxi4bxH8AAAAAAAAA0CICQKDTxH/Q2CWD+A8AAAAAAAAAWkYACHSW+A8au1wQ/wEAAAAAAABACwkAgU4S/0FjlwriPwAAAAAAAABoqRlTAHTN5dfP/VRS/XbEfzBh4j8AAAAAAAAAaDMrAAKdcvn1cz9Vif+giUsE8R8AAAAAAAAAtJwAEOgM8R80dnkg/gMAAAAAAACADhAAAp0g/oPGLg3EfwAAAAAAAADQEQJAoPXEf9DYZYH4DwAAAAAAAAA6RAAItJr4Dxq7JBD/AQAAAAAAAEDHCACB1hL/QWOXA+I/AAAAAAAAAOggASDQSuI/aOxSQPwHAAAAAAAAAB0lAARaR/wHjV0GiP8AAAAAAAAAoMMEgECriP+gsUsA8R8AAAAAAAAAdJwAEGgN8R80dvoX/wEAAAAAAABAAQSAQCuI/6CxU7/4DwAAAAAAAAAKIQAEpk78B42d9sV/AAAAAAAAAFAQASAwVeI/aOyUL/4DAAAAAAAAgMIIAIGpEf9BY6d78R8AAAAAAAAAFEgACEyF+A8aO9WL/wAAAAAAAACgUAJAoHHiP2jsNC/+AwAAAAAAAICCCQCBRl1x3dxPpqp+J+I/mPQpXvwHAAAAAAAAAIUTAAKNEf9BY6d38R8AAAAAAAAA9IAAEGiE+A8aO7WL/wAAAAAAAACgJwSAwMSJ/6Cx07r4DwAAAAAAAAB6RAAITJT4Dxo7pYv/AAAAAAAAAKBnBIDAxIj/oLHTufgPAAAAAAAAAHpIAAhMhPgPGjuVi/8AAAAAAAAAoKcEgMDYif+gsdO4+A8AAAAAAAAAekwACIyV+A8aO4WL/wAAAAAAAACg5wSAwNiI/6Cx07f4DwAAAAAAAAAQAALjIf6Dxk7d4j8AAAAAAAAAIIkAEBgD8R80dtoW/wEAAAAAAAAAjxAAAmsi/oPGTtniPwAAAAAAAADgMQSAwKqJ/6Cx07X4DwAAAAAAAAB4HAEgsCriP2jsVC3+AwAAAAAAAAAOSgAIrJj4Dxo7TYv/AAAAAAAAAIBDEgACKyL+g8ZO0eI/AAAAAAAAAGBRAkBg2cR/0NjpWfwHAAAAAAAAACxJAAgsi/gPGjs1i/8AAAAAAAAAgGURAAJLEv9BY6dl8R8AAAAAAAAAsGwCQGBR4j9o7JQs/gMAAAAAAAAAVkQACByS+A8aOx2L/wAAAAAAAACAFRMAAgcl/oPGTsXiPwAAAAAAAABgVQSAwOOI/6Cx07D4DwAAAAAAAABYNQEg8BjiP2jsFCz+AwAAAAAAAADWRAAIPOKK6+bek6r63Yj/YNKnX/EfAAAAAAAAALBmAkAgifgPGjz1iv8AAAAAAAAAgLEQAALiP2jutCv+AwAAAAAAAADGRgAIPSf+g8ZOueI/AAAAAAAAAGCsBIDQY+I/aOx0K/4DAAAAAAAAAMZOAAg9Jf6Dxk614j8AAAAAAAAAYCIEgNBD4j9o7DQr/gMAAAAAAAAAJkYACD0j/oPGTrHiPwAAAAAAAABgogSA0CPiP2js9Cr+AwAAAAAAAAAmTgAIPSH+g8ZOreI/AAAAAAAAAKARAkDoAfEfNHZaFf8BAAAAAAAAAI0RAELhxH/Q2ClV/AcAAAAAAAAANEoACAUT/0Fjp1PxHwAAAAAAAADQOAEgFEr8B42dSsV/AAAAAAAAAMBUCAChQOI/aOw0Kv4DAAAAAAAAAKZGAAiFEf9BY6dQ8R8AAAAAAAAAMFUCQCiI+A8aO32K/wAAAAAAAACAqZsxBVCGK2+Ye3dS/ZeI/2DCxH8AAAAAAAAAQDtYARAKcOUNc+8eDsV/0MBpU/wHAAAAAAAAALSGABA6TvwHjZ0yxX8AAAAAAAAAQKsIAKHDxH/Q2OlS/AcAAAAAAAAAtI4AEDpK/AeNnSrFfwAAAAAAAABAKwkAoYPEf9DYaVL8BwAAAAAAAAC0lgAQOkb8B42dIsV/AAAAAAAAAECrCQChQ8R/0NjpUfwHAAAAAAAAALSeABA6QvwHjZ0axX8AAAAAAAAAQCcIAKEDxH/Q2GlR/AcAAAAAAAAAdIYAEFru8uvnfqxK9YdJZswGTPSUKP4DAAAAAAAAADpFAAgtJv6Dxk6H4j8AAAAAAAAAoHMEgNBS4j9o7FQo/gMAAAAAAAAAOkkACC0k/oPGToPiPwAAAAAAAACgswSA0DLiP2jsFCj+AwAAAAAAAAA6TQAILSL+g8ZOf+I/AAAAAAAAAKDzBIDQEuI/aOzUJ/4DAAAAAAAAAIogAIQWEP9BY6c98R8AAAAAAAAAUAwBIEyZ+A8aO+WJ/wAAAAAAAACAoggAYYrEf9DY6U78BwAAAAAAAAAURwAIUyL+g8ZOdeI/AAAAAAAAAKBIAkCYAvEfNHaaE/8BAAAAAAAAAMUSAELDxH/Q2ClO/AcAAAAAAAAAFE0ACA0S/0FjpzfxHwAAAAAAAABQPAEgNET8B42d2sR/AAAAAAAAAEAvCAChAeI/aOy0Jv4DAAAAAAAAAHpjYApgskbx3x9E/AcTJv4DAAAAAAAAAPrFCoAwQfvFf7NmAyZ6OhP/AQAAAAAAAAC9IwCECRH/QWOnMvEfAAAAAAAAANBLAkCYAPEfNHYaE/8BAAAAAAAAAL0lAIQxE/9BY6cw8R8AAAAAAAAA0GsCQBgj8R80dvoS/wHA8h2Z5BLTANmdZKFD3+8wyef7cHGf5NkFjOOLSebsZgAAAABA00RKMCbiP2iK+A8AVuiEJK8wDdA58+lHADiT5I0FjOOrEQACAAAAAFMwMAWwdpdfN/dW8R80QfwHAKuwwRQAAAAAAACUSQAIa3T5dXNvrarqDyP+gwkT/wHAKgkAAQAAAAAACiUAhDUQ/0FTxH8AsAYCQAAAAAAAgEIJAGGVxH/QFPEfAKyRABAAAAAAAKBQAkBYBfEfNEX8BwBjcJgpAAAAAAAAKJMAEFZI/AdNEf8BwJhYARAAAAAAAKBQAkBYAfEfNEX8BwBj5NoVaLOhKQAAAAAAWD0BICyT+A+aIv4DAID0J4yrbGoAAAAAgNUTAMIyiP+gKeI/AAAAAAAAAIDlEgDCEsR/0BTxHwAAAAAAAADASggAYRHiP2iK+A8AAAAAAAAAYKUEgHAI4j9oivgPAAAAAAAAAGA1BIBwEOI/aIr4DwAAAAAAAABgtQSAcADxHzRF/AcAAAAAAAAAsBYCQNiP+A+aIv4DAAAAAAAAAFgrASCMiP+gKeI/AAAAAAAAAIBxEABCxH/QHPEfAAAAAAAAAMC4iJ3ovSuum3tLxH/QAPEfAAAAAAAAAMA4WQGQXhvFf38U8R9MmPgPAAAAAAAAAGDcBID0lvgPmiL+AwCAVRiaAgAAAAAAliIApJfEf9AU8R8AAAAAAAAAwKQIAOkd8R80RfwHAAAAAAAAADBJAkB6RfwHTRH/AQAAAAAAAABMmgCQ3hD/QVPEfwAAAAAAAAAATRAA0gviP2iK+A8AAAAAAAAAoCkCQIon/oOmiP8AAAAAAAAAAJokAKRo4j9oivgPAAAAAAAAAKBpAkCKJf6Dpoj/AAAAAAAAAACmQQBIkcR/0BTxHwAAAAAAAADAtAgAKY74D5oi/gMAAAAAAAAAmCYBIEUR/0FTxH8AAAAAAAAAANMmAKQY4j9oivgPAAAAAAAAAKANBIAUQfwHTRH/AQAAAAAAAAC0hViKzhP/QVPEfwAAAIe6YTIFAHTME5NcsIr/bi7JnpaMYVeSf7ApmYJTklyeZP6A/WHvaB/ZZ88B/3ucDj/I7+0efU/77Nzvnw/8Xvck+VaSoc0JANB9gik6TfwHTRH/AQAAAEBBTk1yacfHsD0CQKZjU5LNBYzjs0k+aHMCAHSfRwDTWeI/aIr4DwAApsBKHLYXAEyS1Wth9Ur5XOp5NiUAQBkEgHSS+A+aIv4DAAAAAID9zBQ0Fp8VAwC4qIPmif+gKeI/AAAAAAA4QEmfT1kNFACgAAJAOkX8B43d84v/AAAAAKBcoh9YvZI+o/JZMQCAizpojvgPmiL+AwAAWOmNlCkAAOgNjwAGAMBFHayU+A+aIv4DAAAAAIBFWAEQAAAXdbAS4j9oivgPAAAAAOgMK/AyLQJAAABc1MFyif+gKeI/AAAAAOgR8RysXkmPAHYsAAAogACQ1rryhrk3i/+gkft78R8AAAAAACzPjLEAANAmAkBa6cob5t48HFZ/HPEfTJj4DwAAAAAAVqCkz1etAAgAUABxFa0j/oPG7uvFfwBA18wnuTPJcL/fW0jSteuZ3aPvuysWkuxJssFLsFFzpgAAAFqppGjOYjEAAAUQWNEq4j9oivgPAOicW5L8YZL7TAUAAABTZNU8AABaRWRFa4j/oCniPwCgc+5N8ntJHjYVAAAwFpUxAAAAlMGyzrSC+A+aIv4DADrpcxH/AQDAOJUQzw1tRuw/AAAgAKQFxH/QFPEfANBZ3zEFAADAAURYTIvPVwEAcIEK+4j/oCniPwCg0+41BQAAADB2QloAgAIIAJka8R80dv8u/gMAAAAAgPEoKZrzKG0AgAIIAJkK8R80RfwHABTBfQMAAIyXVb/A/gMAQCEEgDRO/AdNEf8BAMVw7wAAAEBbVMYCAECbCABplPgPGrtnF/8BACVZZwoAAAAAAAAeTwBIY8R/0BTxHwBQnBlTAAAAHMDKZUzL0BQAANAmAkAaIf6Dpoj/AIAiubaBgm9iTAEAOAevkggLrz1jAQAgAkAaIP6Dpoj/AIBizZsCKJYPHAGA1fKDBLiGNRYAACIAZMLEf9AU8R8AANDNmxlTAAAAUyMABAAogACQibn8+rk3if+gCeI/AAAAAABoyEJBYxEAAgAUQADIRFx+/dybqlTvi/gPJkz8BwAAAACsmFV4YfU8AhgAgFYRADJ24j9oivgPAAAAAAAaJgAEAKBVBICMlfgPmiL+AwAAAACAKRAAAgDQKgJAxkb8B00R/wEA/bsAMgUAAAC0hAAQAIBWEQAyFuI/aIr4DwAAAABYMz9kAyQCQACAIggAWTPxHzRF/AcAAAAAMCJiZFqsAAgAQKsIAFkT8R80RfwHAAAAAAAtsFDQWASAAAAFEACyauI/aIr4DwAAAAAAWsIKgAAAtIoAkFUR/0FTxH8AAPFoLwAAcI0N7SEABACgVQSArJj4D5oi/gMAAAAAACZGAAgAUAABICsi/oOmiP8AAAAAAKCFrAAIAECrCABZNvEfNEX8BwAAAAAALSUABACgVQSALIv4D5oi/gMAAAAAJq4yBbBqAkAAAFpFAMiSxH/QFPEfAMChLpRMAQAA4D6BlhAAAgDQKgJAFiX+g4ZU1YfEfwAAAABAQ8RzsHrDgsYhAAQAKIAAkEMS/0FDqupD6zZWbxT/AQAAAAAsm4iRaRHNAQDQKgJADkr8Bw0R/wEAAAAArIYIC+xDAABEAMhBjOK/P474DyZL/AcAAAAAsFpWAAQAAIgAkAPsF/+tMxswQeI/AAAAAGB6xHMAAACFEADyCPEfNET8BwCw4isoUwAAAAAAAPB4AkCSiP+gMeI/AAAAAAAAAADGRACI+A+aIv4DAAAAAAAAAGCMBIA9J/6Dhoj/AAAAAID2qEwBrNrQFAAA0CYCwB4T/0FDxH8AAAAAAAAAAEyAALCnxH/QEPEfAMBYrqpMAQAAAAAAwOPNmoL+ueL6uTdG/AeTJ/4DAAAAAJgUPygEAAAQKwD2zij+e1/EfzBZ4j8AAAAAAKC9RLQAAIUQAPaI+A+aumUW/wEAjPsKyxQAAAAAAAA8ngCwJ8R/0BDxHwAAAADQfn7IBgAAoBACwB4Q/0FDxH8AAAAAAAAAADRIAFg48R80RPwHAAAAAAAAAEDDBIAFE/9BQ8R/AAAAAAAAAABMgQCwUOI/aIj4DwCgkasuUwAAAK6xAQAAeDwBYIHEf9AQ8R8AAAAAwLSIGAEAACIALI74Dxoi/gMAAAAAAAAAYMoEgAUR/0FDxH8AAAAAAAAAALSAALAQ4j9oiPgPAOieYQlXYTYjAAAAAADA4wkACyD+g4aI/wCAjl7FmAIAAMB9AozNTEHHAZ8VAwAUwEVdx4n/oKnbYPEfAAAAAFAMASCs3mxBY/FZMQCAizqmSfwHDRH/AQAAAAAAtZI+X52xOQEAXKAyJeI/aIj4DwAAAACgjaxiyLSUtAKgABAAoAACwA4S/0FDxH8AAAAAAMBjzRgLAABtIgDsmCuum3uD+A8aIP4DAGjV1ZkpAAAA19jQEgJAAABaRQDYIVdcN/eGVNWfRPwHkyX+AwAAAAAADq6kaM5nxQAALupoivgPGiL+AwAAAAAADs0KgAAAtIoAsAPEf9AQ8R8AAAAAALA4ASAAAK0iAGw58R80RPwHAJRrWMLVms0IOE4BANASswWNRQAIAOAClUkS/0FDxH8AAAAAQL9UxgCrtr6gsfgMEtprQ5Kjkhwx+jpstM9uSB3vbhj976Waj91J9oy+do1+3ZtkZ5IHR18PpYwfIgZYysZFjp1zo2NmJ7sRAWBLif+gIeI/AAAAAABg+dYbCzCGfe+40dfxSY4d/XpUHo3+mmw5FlJHgA8luT/JA0nuGX1tH/36oM0GtNgxo+PoCaNj6jGjY+nRo+PqvvBvuXamDqbvGx0T9/36wyR3j772tmkCBIAtJP6Dhoj/AAAAAACAlTmsoLEIAGHy+9jJSU4ZfZ2c5KQkR7bs+xzk0fjw5EP8O3tSh4B3J7kzyR2jrx2xeiDQ7HH1lCSnJTl19OtJGX9ftXH0dcwh/v9hknuTbEtye5LbRl9Ti6UFgC0j/oOGiP8AAAAAAICVswIgcDDrkjwxyRmjX09JvcJfKY+s3xfdnJJk836/vyePBoG3J7kldRAjCgTG4egkZ46+zhodgwYt+L6q1CsNHpvkvP1+/94k30tyY5LvpF45sBECwBYR/0FTh2LxHwBA167gTAEAALjGhpawAiCQ1KtCnZk6+Dsj9UpUMz2ch/VJnjT6es7o93YluTV1DLjv111eMsAyzKQO/c4bfZ3Use9/U5KLR19JcleSbyX5yuhYOLE4WgDYEuI/aIj4DwAAAAAAWL2SAkCfS8LK9pezkjw1yVOSPMGUHNKG0Rw9ZfS/h6lXB/xOkm+njmDmTBMwsj7J+alXFz23sGutk0ZfL0zyQJKvpo4Bv5sxx4ACwBYQ/0FDxH8AAAAAAMDqDVLW56tWAITFnZDkaamjv7Pi8/zVqlI/FvmJSV6SZG8efUTmt1I/Mhjol9nR8fXC1Cv99eH4elSS542+diT5QpJ/TP3Y4LFMKFMk/oOmLivFfwAAAAAAwJqsT1mP0BYAwuOdlOSC1CtRnWI6JmJd6qjyqUleleSHqVfF+mqS2zLBR2QCU3dykmenfkTu4T2eh2OTXJnkitGx7w/W+gcKAKdI/AcNEf8BAAAAAOyvMgZYlfXGA0V6Qh6N/k42HY07Icmlo6/7k3wtdRDz3SQLpgc6bzbJliTPT70SKI+9pzlrXJPMFIj/oKnDpfgPAAAApuS4JEekXr1hIcmu0e/PpX7k06FsPMTvVcv495Jkdxb/kGh+9O/sHn0fe2wqWuCwJE9a5P/fO9p3puHhFf772wvdRkePvtZq7hDHneF+x8n9rcvyPss5LMlM6phnZr//bv3oeLlh9HXY6H+X8MHbIMnxefwqQUudB5aybx6zzPNRRnO9ls979ozOTwfb93bt9/ro8opIxyU5fTTOPcsY/86Gx3vg9cnORfa1kqxbxb6w3OPSUtq86s/DBZ/PeNSG1I+efFYEKW275tr3iMz7k3wx9WMy7zY10DlHJnnuaH8+ynRMlgBwCsR/0BDxHwBAMVd2pgCgky5K8tKOfK+7UscHD6b+kOmh0T8/kOSm1I+hgkk6IclPFzCOPUn+VaHb6IVJXuyl2irrkvxmD8e9LwTcPfrnnaOvXQf59Zuj81obnJPkTR0+ts0Xen/6zNQrnm1wSHmMLyd5n2ko0r6Vlp41eu37vL7djk7yktHXzUn+Mcn18UNcrMylSU4dXTvt78AfGpk/yL8zaYf6IaB9P4hwa5J7Ozjnx47220uiS2uMiW6Y+A+aunwX/wEAAMC078479L3uWxnr6NQfDOzvExEAYn/Be/q065yVHHol3P39XtoTAHZZyY/JnRl9QR/24+ekXonqRNPRSWeOvl6b5IYkn3WfxgpeO+d39Hv/8ySf79D3e2ySy1KHf64vGiYAbJD4Dxoi/gMAKO4KzxQAADBl600BHTRnCmBVvA9RjsOT/Mjo63DTUcw12SWjr+8m+bsk30qzj43HMb0ph3Xk+zwyyY+mXl1V+DclAsCGiP+gqdO3+A8A4MArpALG4A08cIzC9nUewv7CtHlvny7a6zgH9NSRSZ6X5IXxiOuSPXn0dWeSzyT5YsTvlHUN0vbj17rUgfVljrXTJwBswBVfnntlquqPvUEAkz51i/8AAA6ihGjBB0XgGAUA02YFQLpo3hTAqngfors2JbkiyTNjFao+OTnJG5NcnuRTST6XZI9poQBtjeqqJBcleXmSY2ymdhAATtgVX557ZQbVX6Q7S3NCR2/FxH8AAIvcjAM4RmH7gv2lCSWH3X7Any5q0ypIrguASTosyYuSXOqc3Wubkrw6dQj4iSSfjhUB8QjgcTshyeuTnOul1S4CwAkS/0FTp2zxHwDAIqyuBThGAcDaWQGQLrICIFC62STPT/34ycNNByOHJ3lFkuck+UiSG+L9B7qpTa3RbOq49tJYYbW1J0QmQPwHDRH/AQAAAACTZzUhusiqR7A6Vqzsxja6KMnLUq/6BgdzfJJ3JHlxkquSfMeUOKZ3TFtCuycmeWuSk7yc2ksAOAHiP2jqVC3+AwDoy5WfKQD7N7bvFFkpAvsLiRUA6SYBIDgvl+iUJG9IcoapYJlOT/IzSb6Z5ENJtpkSWJaZJFckeUmSgeloNwHgmIn/oKlbL/EfAAAAANAYKwDSRW0KAAVVwFqtT/KjSV4QIQqrc16Sc5P8XZJrk+w1Jb1Q+d5X5aTUK2ie4iXUDQLAMRL/QVOnOfEfAAAAdOEOvpBxWAEQ+4v9JbECIN1kBUDo93m5JOcneW2SY00FazST5LIkFyb5QJJvmxJ4nItTr7TqHqhDBIBjIv6Dpm65xH8AAAAAQON8nkIXzZsCoOOOSR2hPM1UMGbHJXlvki8l+ZskD5kSWqjpIH1d6tj62abeDWsvif+gqdOb+A8AAAC6dCdvCgDHNJiqBVMAjvkddlGS1yXZaCqYoItTPxr4b5N8wXQ4pvfYpiTvTnKqqegmAeAaif+gqdOy+A8AAACAYvlQyjaCSRjah4AO2ph6BaqLTQUNOTzJW1I/FvhPkzxgSlzHt8RcQ3/PGUnemeQoL5fuEgCugfgPmjoli/8AAPp+RWgKABy/wf4CAFC8pyR5c+pH/8I0Xn//JMn7k3zTdNACTQSAFyV5U+rH/9JhAsBVEv9BQ8R/AAAAAACwUkNTAKsmzG/ebJJXJ3mu+WfKjkzyniSfTPKRJPOmhCnaO+E//8rRF4WcSFkh8R80dXsl/gMAAIAu39kXMg4BBfYX+0tJ2wjsQ0DbbEryE0meaCpo0TnrxUmemuSPk9xpSlyDTMmkAsBBkteljq4pxMAUrIz4D5o6DYv/AAAAAKBjKmMDwDGfFTg/9SNXxX+00clJfinJxaaCKZnECpSzSd4e8V9xrAC4AlfeMPeK4VD8B5O/rRL/AQDw2CtEUwAA0AmlrgDoehT7o/0IGK9BkpelXmXN8YE2W5/kx5KcmuSqJAumxLV8g8a9AuBsknelXt2SwggAl2kU/30g4j+Y8OlX/AcAAACl3OWbArC/AIDzMgc4Ksk7kpxtKuiQF6VeEfCPkuw0HY7pDZkb458l/iucRwAvg/gPmjr1iv8AAAAAgNYRggDAeOx7pKr4jy56SpJfSfIEU0FDxrUC4EySn4j4r2gCwCWI/6Ah4j8AAAAAoJ0EgHSRRwCD12vbnJfkF5McayrosONHr+PzTQUNGMcKgIMk70zyNNNZNgHgIsR/0NRtlPgPAACAbt/ZmoKi52VoU2J/AQDnZdbk+UneHZ+7U4YNqR+l+iJT4Zg+YXvHMPY3RfzXC7Om4ODEf9DU6Vb8BwDA0leNpgAAAACgcwZJXpXkBaaCwlSj1/aRST4cPzjGZKx1BcCXJbnENPaDAPAgxH/Q1GWR+A8AAABKvvM3BWB/KYQPdAGcl1m5dUneEY9KpWyXJjk8yQeSLJgOx/QxW0sA+PwkL7H5+8MjgA8g/oOmTrPiPwAAAIohDAEo+3joOE8XVb4fYIrWp37kr/iPPnh2knemjl5xTTROqw0Az03yGpu+XwSA+xH/QVOnWPEfAAAA9OEdAFMA9pdCCAABYPk2Jvnp1AEK9MX5SX4qyQZTwRjtXcV/c1ySt0cP1js2+Ij4Dxoi/gMAAKDAu11TAFA8ESCuT8D+w9KOSvLzSc4wFfTQ2Ul+NskRpoIxmV/hv78hyXu8BvtJABjxHzR3uyT+AwAAgD69E2AKwP5SEAEgOM4Bizs2yS8kOdlU0GOnJXlv6pUwcQ2yVit9BPCbkzzBJu+n3geA4j9o6rQq/gMAYPVXk6YAAIApEwDiPgrsPxzacalX/jveVEBOi8cBMx4rCQCfm+QCU9ZfvQ4AxX/Q1G2S+A8AAADoLNEPTRAaAI4tQFcdk+RnkmwyFfCIJyX5ySTrTQVrsNxHAJ+c5NWmq996GwCK/6Ah4j8AAMZwVWkKABy/AaZMDAzgOpbHOzJ1/HecqYDHOTPJu5OsMxWO6RP83tcleYfXGb0MAMV/0NTpSPwHAMBY+LAVcJzqJh+cQv/2F8dDwHUB9MfG1I85PdFUwCGdk+RdSWZNhWuQCd1fvTTJE2xmehcAiv+gqdOo+A8AgPFdXZoCwHEKgClbMAW4RgH7Do/YkOS9SU4zFbCkpyR5m2MLEzgfPSnJC0wTSc8CQPEfNHUaEv8BAAAAAADQSSKdxc0meU+SJ5oKWLYLkrzCNDimj/lY/Ob09MmvPF5vXgiX3TD3cvEfNHH6FP8BAAAASXxwCvaXslgBkC5q02O5HeegnGuWH0tylqmAFXtxkueYBsZ0/XRZPPqX/fTiOeOX3TD38sGw+mDEfzDh04/4DwAAACjO0BQA4BwGkKRewWyzaWjEniR3J7kvyUNJ7h/9+lCSB5I8OPp39tl1wHF/JnUfsXH062H7/e9jkhyb5Lgkm5Icbbob8/okO5J821Q0pss/hDBziN8/LsmlNi37Kz4AFP9BU6dN8R8AAJO72jQFAABMmZAKr1noD+9DHNzzU69gxnjtTPKD1LHfXaOvu5PcO4Zj+YPL/PdmUwdFxyc5Nclpo69jbZ6xGyT58ST/McmdpoMlHKpzenV6suAby1f0C0L8B03dBon/AAAAgMfxwSnYX0oipsJr1nEO+uz8JK8xDWNxT5Kb9/u6qwXH7Lk8Gh9+Y7/fPyKPxoBnJDknyXqbcM02JPnJJP8h9cqOuAZZ7LVyoHOTPN1m5UDFBoDiP2jqdCn+AwAAAACKJwDEaxb6Q7D6WKcneXvqlctYuQeTfD3Jt1IHfw906Ht/KPWjavc9rnYmdQj41NQR0mn2l1XblOSdSX4rybzp4BAO7J0GqVf/g8cpMgAU/0FTtz/iPwAAAOCQfBAE9hdgeqwACIzDkUneFau+rdRdqaO/ryW5NeVE2fNJvjf6+nDqFQKfkmRzkvNSB4Is35NSx1x/aSo4hAObpwuTnGxaOJjiAkDxHzR1qy7+AwAAAHrBCkpgf3EsAOgXwWptkOQdSY4xFctyT5IvJLkhyd09GfNDSb48+jo8dQh4cepVAu1Hy/P8JDclud5UOKYfxGEHHJOvsDkPau/oePRgkp2jryTZnWRh9M8bRq+F2dHxauPo64gUEi8XFQCK/6CpU6T4DwCAZq9ATQGA4zfAlAkA8ZoF+uaVSZ5sGhY1l+SrST6f5Ls9P/Y+nOQfRl/HpQ4Bn5nkeC+TJb0pyR2pV46E/R213z8/M8kJPZ6LhdE+8v0k21JH19uT/DB16Lda1Wiejxl9HZ/kxNFcn5R6JdxOKCYAFP9BQ8R/AAAAADBugtn2E1PhNes4h/Nyn1yY5IWm4ZC2Jflcki+lDt94rO1Jtia5Nskzkrwo9aqAHNxhSX48yb9PvZIZjun7HDv6tY+r/+1J/bjx7yS5OXUkO4n9Y5jk/tHXbQf5/49MclqSU5OcnuTMPDbMbI0iAkDxHzR1ahT/AQAAAMtWygenoh/sLzgW4DUL9MnJqVck4/HuSHJNkq85zi77XPSV0deZqUPAp7v2PeR+94Ykf2oq2M++AHDzfv9csvtSP0b9a0luSTLfgu/pwSTfGn3tc1KSs5KcPfo6pg2T1/kAUPwHDRH/AQAAAAD9dVXq1R9m9vu9KsnGA/692STrFvlz9mRtH2TN57GPuDrwe5hJsn70z+tG38+G0a/rU3+WsmmJ77Fr22XnAb93WOpVUg5m3SrHvtifuVxr3fbLMdxvPuZbtq1uTvKJQl53Zyd5UiFj+XjqR+ct9voeZOnPYddn6c+dNzY0pl2jfWH//WFhv2PnXB5dQWj//XL//+7BHp/vDkvyzv3OJdS2pQ7/vhLh31rOAzenfqzmi5M8awzn1tI8M/WjpL9gKsaqy8HpcaNfS16R9f7RsfX61NFfF46xd42+Pjf638ePrg/PTfLUBq95Hncj2lniP2jqlCj+AwAAAFbMqg5gfynJlwsayzlJfiqPjRm7vF3u8/LshO+MvkrwipQTAN6U5JtenuzndakDLWo7knw4dZgi/BuPHyb5iySfGh1Pzzclj/Ga1BHgDlPhXivJEUmekuSJhW2T4ei68O+TfL2A4+s9o69/HN1jnZ368efnp8HVATsbAIr/oKnTofgPAIDpX5WaAgAAGJvvJPlikmebCgD2c2HqFcioV4r8uyQfy6MrRjJedyX5/SRPTvLKJKebkiT1ys1vTvI7EZ1Se1VBY9kzug/5zOgYUKL5JDeOvv4yyWmpH33+jCRPmORf3MkAUPwHDRH/AQAAAACUaN4UALCfY5O83jQkSb6d5K+S3G0qGvHdJP8+yUVJXpZkkynJOUmel3p1NNau6z9cfnIB22BX6lU/P51kZ49ee8Mkt4++PprklCSXpA7ujxr3X9a5AFD8B02dBsV/AAAAwJpYwRX6t79YpQTAcZvuGSR5W5KNPZ+HB5N8MMlXvCSmciz6UpKvpl7t7DnuJ/OKJN9K/VhR6Ko9qVf7+7skD5uO3JHkb5J8KPWjnZ+ZenXAsehUACj+g4aI/wAAAAD28cE4gGM0QMkuS3Jmz+fg60n+PHUEyPTsSfKB1BHmm9Pv1QDXJ3lrkt9yvUMHLST5bJJrHVcPOT/fHH1tSHLeOP7QzgSA4j9oiPgPAAAAGA8rAIL9hfbyQTLgWECSnJbkih6Pf2/q1Zj+wUuhVW5M8u+SvDrJs3o8D2cmeWGST3pJuNfqkFtSh7x3mIpl2ZXkunH8QZ0IAMV/0NSpT/wHAAAAAAAAPTBIvcraoKfjvz3J+5Lc7aXQSruS/FnqxwK/McnRPZ2Hlya5Icm9XhK03MNJrkryj/EDBlM7qbfaKP77QMR/MFniPwAAWny1agoAADrBBz0A0B0vTnJqT8f+j0n+Y8R/XfCNJP9bku/1dPzrUq+EyOp5b3nyrk/yPyf5vHvC6Wn1CoCXXzf3qmpY/UXq55sDEzKsqg/eu6d66xc3V3vNRvtdcf3wuVUWXjOsqs3VcOHEYaqZYYYPVRnsSX1G3VklG5PhsQ1dM+2wVSjvuDi8c2Y4+Lmrt1QPmQ0AAFj9DaMpAPsLANBKJya5sofjXkj9yN/PeAl0ygNJfjvJy5O8qIfXzhckeUqSb3sp0DK7kvxlki+ZiulrbQB4+XVzr6oq8R9M2iPx3yXiv7Z7+T8Mj967cfgHycJrhkkyHGY4ur6tUmVfTN/8Fa+In+LcOZPBL4v/AAAaIXihC9z4AjhGg32I0u7D3pSWLxY0AQ8n+aMkN3oJdNJCkg+lfnTzW3v4+n1dkn+XZM5LYVXHPMbv1tSPUb/HVLRDKw+K4j9o6K5O/NcZdfw3/9Gkeq7ZgIneAtwxyOCyqzdX3zQZAADN3JqagsKvsAH7C9h3ANrmuUnO6tmYtyX5vSTbbf7Ouz7JfUneleSIHo37hCQvSPIJLwGmbJhka5JrU4e5tMSgbd/QZTfMvbyqqj+L+A8mq6o+tH5j9TbxX/uJ/6C5NwDmFwZXiv8AAAAAOsMPEwCszJGpH6PaJ7cl+a2I/0pyc5L/I8mOno37iiTH2Pwr5gdGxmd3kv8ryTUR/7VOqwLAy26Ye/lgWH0gyQabBiZ5iqs+tG5j9cYPn1vtNhntJv6Dxmwbzg8u+/iF1ddMBUA7r2BNAYDjNwAAsGYvS78+i/9Okt9O/fhfyvLDJP8xyV09GvP6JK+06ZmSe5L8hyQ+S22p1gSA4j9oiPivM8R/0Jhtw/nBZddeXH3dVAAAADAlglkAYNJOT/KsHo33a0n+a+oVqyjTfalXd/xBj8a8JclpNj0NuzHJ/576ceq0VCsCwMuv3/sy8R80QPzXGeI/aIz4DwAAJkfQBPYXAKA91xqv7dE1x5eS/EGSOZu+eA8l+Z0kd/ZoX36pze5eq0HXpY6pd5qKdpt6AHj59XtfVmXwwYj/YMKnNfFfV4j/oDHiPwCAFtytmgI6YGgKwP6C1xzYh+i4i5Kc0ZOxfi3J+5Ms2Oy98VCS/5z+rE52XpKzbfZl897T6n02yfuSzJuK9ptqACj+g6ZOaeK/rhD/QWPEfwAAMHneZAf7CwAwfeuTvKInY70xyR9F/NdH+yLAu3syXqsAuteatE8k+WD8sEBnTC0AFP9BU6cz8V9XiP+gMeI/gA5e1ZoCKJY3EQHAORiAybo0ydE9GOf3kvx+PPa3zx5M8rtJ7u3BWM9Kcq5NzoT8bZKrTEO3TCUAFP9BQ8R/nSH+g8aI/wAAAAAA6IsjkrywB+O8PXX8t9cm770dSX47yQM9GOvL4genGb+rk3zSNHRP4wGg+A8aIv7rDPEfNEb8BwDQwrtXU2D7AvYXAGBiXpLksMLHeG/q+G+Xzc3ID9OPIPSJSZ5mc7vXGqNPJNlqGrqp0QBQ/AdNncLEf10h/oPGiP8A3LsCAAAAj+Vx4GU7OsnzCh/jniT/Z5L7bW4OcFuS9/XgOHepTc2Y/H089rfTGvsQRfwHDRH/dYb4Dxoj/gPovgtMAUAnlfJT9j4Yx/4CAHTR5UnWFTy+YZI/SfJ9m5pD+GqSDxc+xjOTPMmmdq+1Rtcl+SvT0G2NBIDiP2jq1CX+6wrxHzRG/AdQhgtSP7IGAAAYj6FxABTtuCTPLnyMH0kdeMFi/q4Hr5MX2syswS1J3u+6uvtmJ/0XiP+gIeK/zhD/QWPEfwCFXUYlOT/Jl5LcmeThPPpT7BtS/yTnMMkuU9UKG3s89ltSP4IIAPrIh0YA0A5XJJkpeHw3JPm4zcwyr0/fn+SUJMcXOsYLkhybZIfNzQptT/L7SeZMRfdNNAAU/0FDxH+dIf6Dxoj/AMp0xugL2uzfpY5UAY/ZAfsLADANxyS5qODxbU/y5zYzK7AryR8k+aU0sEjWFAySvCDJ39jU7rVWYGeS/5rkIVNRzoFgIsR/0NTpSvzXFeI/aIz4DwAAAABgaVZuLdMLU+7qf/NJ/iieAMHK/SDJRwse37OjzWFl5//3JbnLVJRjIgGg+A8aIv7rDPEfNEb8BwAA7eGn7MH+AgA0a2OS5xQ8vg8nuc1mZpU+meSmQsd2WOH7vnut8fp4km+ahrKMPQAU/0FTpynxX1eI/6Ax4j8AAGiXUt5ktzIO9hcAoCuelzoEKtE3k3zKJmaN93Z/mmRPoeN7tvsK91rL8L0kV5uG8ow1ABT/QVOnKPFfV4j/oDHiPwAAAID+EWmDfYhHzSZ5fqFjezjJn3nNMgbbk1xT6NhOTHKGTfw4AsBHPZT60b8LpqI8YwsAxX/Q1OlJ/NcV4j9ojPgPAAAAAGDlRBFleWaSowsd218necAmZkw+leSOQsd2ic3LIQxTx3/3mYoyjSUAFP9BU7dh4r+uEP9BY8R/AADQXj5QBvsLAO1mNbWy/Eih4/pmki/ZvIzRQpIPFHoM3JJkvU3MQXwuybdNQ7nWHACK/6Ah4r/OEP9BY8R/AABAE3wwDvYXAMdt2u7MJCcXOK5dqUMtGLdbkny5wHEdluQCm/cx/LBVsiPJh0xD2dYUAIr/oKlTkvivK8R/0BjxHwAAtJ832cH+AgA0o9TPpT6U5F6blwn5SJK9BY7rWTYt+xkm+bMkWpPCrToAFP9BQ8R/nSH+g8aI/wAAAADWxqpfAOU4PMnmAsd1W5LP27xM0L1JPl3guM5KcrzNy8jnknzHNJRvVQGg+A8aIv7rDPEfNEb8BwAAAAAAj7okyWxhYxom+esI1pm8jyfZWdiYqiQX2rSPmY++ejDJVV4C/bDiAHAU//1lxH8w2avaqvrgjj3V68V/7Sf+g8b8YDgcvEj8BwBQFI+8tH27wIeO2F/wmnOMBmjz8fw5BY7ry0lusXlpwK4knypwXE+3ad1rJfnw6DVOD6w4AJypZm9Ole2mDiZ5Cqo+tH5j9bYvXlLtNRntJv6Dxmwbzg+uvPbC6tumAgCgKD60BwDnYABW7+wkJxY2pj2poxVoyqdT3iqApyXZZNP22m1JvmAa+mPFAeDVm6tvDjK4LFXuMH0wAR772xniP2iMx/4CAEA3WdEM7C8AtJsYuPsuKXBMH09yn01Lg3aljgBLu78436bt9fn9r5zn+2Wwmv9IBAiTOg2L/7pC/AeNEf8BAAAAAMDjrU9yQWFjejDJJ21apuDvk5T2dL5n2KxJ+vnDVl9KcqtN3y+D1f6Hj0SAyZ2mEcZx2hH/dYX4Dxoj/gMA6MHdsCmwfTvAT8xjf7G/AEAbbU4dAZbk4ykvwqIbHkryxcLGdHaSw23a3r33NJ/kGpu9fwZr+Y+v3lx9c1ANXhIRIKzxlCP+6wrxHzRG/AcAAN0n8ARg0kSnYB/qs9Ie/3t/kn+wWZmiTxV2XBwkOc9m7Z3PJ9luGvpnsNY/QAQIayT+6wzxHzTmTvEfAEBv+MARAFgLsTnYh/rquCRnFTamj8Xqf0zX3Um+U9iYnu481yt7k1xrV+6nwTj+EBEgrPZ0I/7rCvEfNObODMR/AAAA9I4AA4Bp8AM53XVxYdcP96ZetQqm7QuFjeepSWZt1t74bOrVVOmhwbj+IBEgrJD4rzPEf9CYOzMYXLb1guobpgIAAIogaAL7C0yaeAnoq82FjeeTSeZsVlrgq0l2FTSe9UnOsVl7YW+ST5iG/hqM8w8TAcIyif86Q/wHjRH/AQD09A7ZFAAAAKzIiUlOLmg8O2P1P9pjb5LrCxtTnx8D3Kf3nb6Y5EG7cH8Nxv0HXr25+mYGg8siAoRDnGLEf10h/oPGiP8AAPrLqj0A4BwMwMpcUNh4Pp9kj81Ki5T2GOCnxQ9g9uHa/tOmod8Gk/hDt15QfUMECAch/usM8R80RvwHANDzO2VTYPt2gEgG+4v9xWsOKJXjdjeV9PjfhSSfsUlpmVuS3FXQeI5OWauGuuZ9vG8W9pplFQaT+oNFgHDgqUX81xXiP2iM+A8AAMomLgFg0sRLQN8cl+TUgsZzQ5J7bVZa6IuFjedcm7RonzQFDCb5h2+9oPrGcDB4aZIfmmp6TfzXGeI/aIz4D6A5PhADAGg/wSzuE+w7AMtR2uN/rf5HW11X2Hj6GgD24VpxW5Lv2mUZTPovuPaC6oaZmcEVEQHSU8Oq+uCOPdXrxX/tN4r/PiL+g4n7frUweJH4D6AxPhADAABK5QeegL55WkFj2Zb6UavQRjuS3FHQeM5OMmuzFukfTQFJAwFgknz0GdX1w8Hg8ogA6Z3qA/fuqd76xUuqveai3fZb+e95ZgMm6s4MBldec1F1o6kAAIDiidDB/gJAu4lou2VDkjMKGo9ohbYraSGLdUlOd59VnIUkX7arkjQUACb1SoAiQHp2LvmLHXurHxP/tZ/H/kJjPPYXAADoIh+MAzhGA7TBOUlmChmLaIUuKO3zrDNs0uJ8PckDpoGkwQAw8Thg+qT6ix17q7eJ/9pP/AeNEf8BAED/WNEMAADG56kFjUW0QhfcmuTBgsbTxwCw9PclvmA3ZZ9B03/hR59RXS8CpOwzSPXn4r9uEP9BY8R/ANNlRQwAAACA7ispAPT4X7pgmORbBY3nTJu0KA8X9vpkjQbT+EtFgJSqSvXne7eL/7pA/AeNEf8BAADA0qyYCQAs5glJNhUyloeTfNsmpSO+XtBYjkxynE1ajG8kmTcN7DOY1l8sAqQ81Z/t3V697RMvqebMRbuJ/6Ax4j8AAADoF6tPA8BknFPQWL4e0QrdcWOShYLGc2rPtl/JP2j1Vbsn+xtM8y8XAVLQaeP9c9urt4v/2k/8B40R/wG06WoVAKZjUMg4BE24ZgOgVK5zuuPsgsbyFZuTDtmV5I6CxnOa+6wi7I2VVDnA1N+EEwFSwCnj/XP3DN4h/ms/8R80RvwHAAAAK1PKB1NCEgCYjDMKGcfu1CuqQZfcUtBYTrU5i/DN1BEgPKIVP4W7XwR4j01Cp4j/OkP8B40R/wG0jw9hAZp4hwAA3CcAMBknJjm6kLF8I4nPVemamwsai0cAl+HrdksO1JrHcHz0GdX11YIIkE75U/FfN4j/oLEr6NtnZgcvFP8BAACP3iYAAABrVNLjf79qc9JBNxc0lqOTrLdJO+87poADDdr0zVxzUXWdCJAuqJI/mds++HHxX/uJ/6Cx4+Ltg9nBSz769MoFJwAAAKzq1hpYBSsZAn1wViHjWIjH/9JN946+SrnvON59VqdtS3Kf3ZIDDdr2DYkA6cAZ4k/2bh/8hPiv/cR/0NhxUfwHAAAAAACTcWYh47g9yU6bk466uaCxnGBzdpqQmoMatPGbEgHSYu/b9C0r/3WB+A+aIf4DAAAWv2UA7C8AtJhVNNvv8CTHFjIW0QpddnNBYzne5uy0W0wBBzNo6zcmAqSFt0C/94LNgx//s7dU8yaj3cR/0AzxH0CXDtkATJgPTss+B9m+AIDrWKbl9IKuqwWAdNkPChqLFQC77WZTwMEM2vzNiQBp0e3P771gy+C9/7qqFkxGu4n/oBniPwAAABj3rTYAwOM8sZBx7Elyq81Jh92ZcqJpKwB21/1J7jMNHMyg7d+gCJCpq/JfxX/dIP6Dpg6L4j+AjvHT/ACNXCYDAACM3WmFjOPmJHM2Jx22K3V8VYI+rQBY2nvj37crciiDLnyTIkCmpsp/fcEFg58W/7Wf+A+aOiyK/wC6efgGYMLE1mWfg2xf7C/2F7zmAKallBUArf5HCe4sZBxHJ1lvc3bSXaaAQxl05RsVAdK0Kvkv4r9uEP9BY8dF8R9AN/lADKCRy2UAAICxOiLJMYWM5TabkwKUEgBWSTbZnJ0kAOSQBl36Zq+5qLouw8GVEQEyYcPkd39k8+BnxH/tJ/6Dxu4ExH8AnT6MAzBhYmvnIAAA17GM28kFvc6sAEgJthU0liNtzk4SAHJIg659w1svrL4sAmTCV6C/+8LNg58V/7Wf+A+aIf4DAABWfzsB2F8AgFV6QiHj2J7kIZuTAtxZ0FgEgN0kAOSQZrv4TW+9sPryFdcNr0y1sDXJcTYjY/Q7L9w8+DnxX/uJ/6AZ4j+AIpT60/y7kjycZC7JniR79/vn9Yv8d+u6ei9MZ+w1BX29dAYA9wkAjFUpAeCOJKcv8e9snMDfO4k/c8ME7v8Oy/gXblqf8b//NZv6fbW2/5kzWfy9wdUYjLbTTEHHFwFg9zyYZKdpYLEDaieNIsArRICM0e+8QPzXCeI/aIb4D4AW+WKS21K/Ybwjyb2pA0AAAACAUp1UyDjOSfIrNie0igCwe7aZAhYz6PI3P3oc8BWplw2G1Rvmt7d67G8niP+gGeI/gNIO6533D0n+Psk3Uj9qQ/wHtI1VlMo9B9m+2F/AMRrsQ0zLE0wBMCECwO7ZYQpYzKDrAxABMoZbm9/eumXwc6kqNzktJ/6DZoj/AAq84gWggctoAMcRsO+AfYixOSICHWByHF+650FTwGIGJQxCBMiq72qq/GfxXzeI/6Ch46L4D6DQw3vnuV4HHKecgwDHQ/CaA/tQnxxvCoAJEgB2zwOmgMUMShmICJBV+E/XXDD4efFf+4n/oBniP4Biud4FaORyGgAAYGyOMwXABB3Rk3GW9N64FQBZ1KCkwWy9sPryQgZXRgTI0v7/WzcPfkH8137iP2iG+A+AlnPdDjhOYfvSg1tzAIBHWAEQmKSNpqBzBIAsalDagD62pfqSCJBFDfO/bt0y80/Ef+0n/oPG3Cb+AwCANRHumBcAgC7yWVl7HWsKgAlaZwo6xyOAWdSgxEGJAFnkNuZ/3XrhzK+biPYT/0FjblsYiP8AAABgygSzsDriJaBUHgEMTJIAsHusAMiiBqUOTATIgaoq/0781w3iP2jMbQuDwUs+dkH1XVMBQMv5UA+gmwRNAACwOgJAYJIGSWZNQ6fsNAUstVMXSwTIPsPk316zeeafmon2E/9BY8R/AAAAAP1Vyg/ZiM2BElVJjjENwIStNwWdunafNw0sZlD6AEWADJN/e+2Wmd8wE+0n/oPGiP8A6OBlPQBA0UqJmFy3ec15zQGs3eFJZkwDMGEeA9wde00BSxn0YZD7RYA7bPLe+f+J/7pB/AeNEf8BAABNEZdA//YXAFznsHZHmQKgAVYA7A4BIEsa9GWgH9tSfWlQiQB75n/ZumXmn5mG9hP/QWPEfwB0lQ8kAADANTZAXwgAgSYIALtDAMiSBn0a7NWbqy+KAHvjf9m6Zeafm4b2E/9BY8R/AAAAAADQfkeaAqABfXgEcCk/9CIAZEmDvg1YBFi+apj/WfzXDeI/aIz4D4CuszoJQDcNTAEsm0cAg3sFgH2ONgWAexBj3M+clytL6eWbcCLAom/1/801F878poloP/EfNEb8BwAAAECpxLNAiawACLiOGo9Sflhk3suVpfT2p3BFgEUeuv/N1gtn/hsT0X7iP2iM+A+Acq72AQDKJmIC9wpgH2Kfw00B4B4EWIleP4bj6s3VF4fV4JWpcr+XQudvT8R/HSH+g8aI/wAAgGkr5cMEH4yD/QUAmrTBFAAAKzHo+wRcu7n67DCDl4kAO+1fi/+64Zw6/vuQ+A8m7rZUg0vFfwAAANAZVt8AYBqE2+200RQA7kGAlRiYAhFgx/3rrVtm/nvT0H7nXDU8eu+D8x+9ecdgNsleMwITc9vCYPCSrZur75kKAAriAwkolzebbV8AAOCxrAAIuGcHVkQAOCIC7ODZaJj/TvzXDedcNTx67/r6sb9754bPvWl7dd1wmN1mBsbOY38BAACgm3z4BgDsYwVAAGBFBID7EQF2x3CY//aaC2f+BzPRfvvHf/t+b25++Kybd1Q3iABhrMR/ABR9C2AKAAAA9wpAT1gBEGhCH34IybUivSEAPIAIsANH6GH+22svnPl/mYn2O1j8t48IEMZK/AcAQGdv800BADgHr4HVM4ESrTcFAOxH24UXyWqIAFt9K///FP91w2Lx3z5z88Nn3bS9+sow2WXGYNXEfwAAdPtOH9u3/YSq2F/AMRrsQzRp1hQADZg3BZ0xYwpYigDwEK7dXH12oRq8XATYKv9q6+aZ/7dpaL/lxH+PXFUsDC+56Z7qqyJAWBXxHwB94QMJgG4SNAEAwMrMuI4GGiIA7Na5ARYlAFzExy6o/n6hGrw8yQNmY+r+1dYtM/+jaWi/lcR/j1xZLAwvuWm7CBBWSPwHAAAA5bBiJgCQiDyA5ggAnRsoiABwCR+7oPr7hcHgZREBTk2V/D/Ef91w9jXDY1Ya/z1ydTEvAoQVEP8B0Dc+SAYAANwnAH3g8b9AUwSA3SEAZEkCwGUQAU717v1fXrNl5n8yE+139jXDY+ar+Y+sJv575ApjfnjJTffkayJAWJT4D4Ce3hoA0EEeXQb2FwBgZQSAQFMEgM4NFEQAuEwiwOYNk3957ZaZ/4+ZaL9xxH+PXGUs5JkiQDgk8R8AAAXe/gMAzsEAjFjlCWiKANC5gYIIAFdABNigYf6F+K8bxhn/PXKlsZBn3nRP9bVhstMMwyPEfwAAQNdY0QwAAFxDA+3UhwCwlB96EQCyJAHgCokAJ38ArpJf23rhzP/XVLTfJOK/R642FobPvOme6usiQEgi/gMAq5NAuXy4Zfs6D4H9BQDHbWwToHl9CABLuc+aiffQWIIAcBU+dkH199XC4OURAY79grZK/sk1W2b+N1PRfpOM/x654lgYPvN79+TbC8PqITNOj4n/AAAo+r0AUwAAAOAeCWjcnGNqZ1TRd7EEL5BVuuai6jMiwPEeeIfJr4n/uuHsa4bHzGf+o5OM//ZZWMiWm+4ZfmdhGBEgfST+A4DR/YIpgGL56WWch8DxEAAAaN4eU9ApHgPMogSAayACHJthhvnVa7fM/O+mov0eif+q6jlN/Z0Lw2y56Z6IAOkb8R8AANB1giYAJkmgDfYj2wRg9ceaedPQKbOmgMUIANdIBDiGE8swv7r1wpl/byrabxrx3z4Lw2y5+Z58VwRIT4j/AAAAoF8EswAAQFP2RnDcNQJAFiUAHAMR4KoNU+VXxH/dMM34b5/5YTaLAOkB8R8AAAAAAPSTFbmAJnj8b/d4BDCLEgCOiQhwxYZVlV/eunnmP5iK9mtD/PfIXc8wm2/enu8Oh3nQlqFAt4r/AODg9w+mAKCTrGgG9hcAYGX2mgLAsYaDsAIgixIAjpEIcNmGVZVfvmbzzP9hKtqvTfHfPvML2XzT9nxPBEhhbk0l/gMAAACgEX7IBqCdRDmAYw0HYwVAFiUAHLNrLqo+k+HgFREBHspwmPyS+K8b2hj/7TO/kM03/TA3iQApxK2pBi/Zurn6nqkAgIPfR5gCgE4qZUUz5yGwvzhGA47bNGUhHgMMTJ5HAHePFQDxAmna1gurT19x3fAVqRY+nORIM/LoTcQw+aVrt8z8R1PRfm2O//aZTy646Yf5ylkn5Kyqsq/RWeI/AAAAQIxF00Q/gPNPe+2NlZ4o89pjV8/nYHfqyLcN7vGS7BznBRYlAJyQUQT4chHgY07ov3jtlpnfMhXt14X4b5/55ILv3ZOvnH28CJBOEv8BAAAAADAtYuB22ptkQ8e//397kN9vU/w0DXPx2FVoWkmhu74LL5BpEQE+evNQDfML11w485+8KtqvS/HfPgvDOgI88/icOVPlKFuRjhD/AcAK7ilMAUAnWVEGAPcJACvX9UhsXZKHY7U3gHGyAiCLGpiCydp6YfXpDAcvT/JgX2/AxX/d0cX4b5+FYS64eXtumR/mAVuSDhD/AcAK7ytMAUAnlRIAOg9hfwEAmrSzgDEcbTMCjJUF3liUALABPY4AF6pq+JPiv27ocvz3yAtuIc+4+Ye5fX6Ye21RWkz8BwAA9EUp4ZwwCwCAJpUQAB5jMwJAcwSADelhBLgwzPAnr9k8+/u2fvuVEP898sJLnnbzD3OHCJCWEv8BwOpYeQmgm6wACP3bXwBwncPaWQEQwH3WgTxWnUUJABu09cLq08MMXpHyI8D5YYY/ee2W2f/TVm+/kuK/fR6JABeywxamRcR/AABAn4iZoJ+EJACwdg8XMAYrAAJtUNJ7EzttThYjAGzYtVuqTxUeAc5H/NcZJcZ/+ywkT7t5e7aJAGkJ8R8AAADQB+JfAFg7KwACcCArALIoAeAUFBwBzlfD4Xu2bpn9v2zl9is5/ttnYZjzRIC0gPgPANbOSjKA41T3iIBgZUp5r97xEK83gLUrIQC0AiCAcwMNEgBOSYER4Hw1HL7nmgtn/8DWbb+zrxkeM1fNX11y/LfPwjDn3bQj2+aH1XZbnikQ/wEAAAAAACvxUAFjsAIgwPgsJNltGliMAHCKCooA56vh8N3iv27YF/9VqZ7dlzEPF3LeTduHd4kAaZj4DwAA+sMKRAA4dwGOBYzLAwWMYZPNCDA2u52zWYoAcMoKiAD3xX9/aGu2Xx/jv0fuYBdy3k33DO8WAdIQ8R8AjPlyzhQAjlOdU9m+0Nt9Bq85wHUOa3N/AWM4KskGmxJwzTsWHv/LkgSALdDhCHB+WA3fJf7rhj7Hf4/cxQ7zVBEgDRD/AQAAACslwMBrDpgGMXA7PVDIOE6wKQHGQgDIkgSALXHtlupTg2rwynQnApwfVsN3Xbt59o9svfYT/z3q0QgwIkAmQfwHABO6jDMFgONU5/gwGVZmwRQA4DqWkQcLuTY40aYEGIvdpoClCABb5OrN1Sc7EgHOpxq+U/zXDeK/g9zNDvPUm36YH4oAGTPxHwBM8BLOFACOU4DjiHGA1xvQEwtJHi5gHFYABKatlB9OnLcpWYoAsGX2iwAfauuBpcrwJ7Zunv1jW6v9xH+HNkyeIgJkjMR/ADBZVpECAEpXygqArtvwegMYj/sKGMPJNiPAWAgAWZIAsIVGEeAr0r4IcL7K8Ceu2TL7Plup/cR/SxtFgPfOL+Qus8EaiP8AoJFLNwDHqY6pbF/o5T5jf8HrDexHjMe9BYzhFJsRYCwEgCxJANhSLYwA91bD4ZvFf90g/lvRne3ZN92TB0WArJL4DwAau2wDACjarCkAAPZTwhOsjk+y3qYEWDMBIEsSALZYiyLAvdVw+NZrLpz9oK3Sfmd+fLhJ/Lcyw+Tsm7bnwbmFapvZYAXEfwDQ6CUbgONUx3gsI6zMjCkAAPazo5B7Ao8BBqZ9HCqBAJAlCQBb7urN1SeHg4XXJ9k5pW9hz7AavkX81w1nfny4aWF+/qPiv5UbDnP2zduHD4kAWSbxHwAAADBOVscBAPa3vZBxnGpTAqzZgilgKQLADrj2gnXXDAcLr03zEeCeYTV867WbZ//SVmg/8d/aDYc5++Z7hg+LAFnCrYMMLhX/AQAAAGN0pCkAAPazo5BxnG5TAqyZFQBZkgCwI6YQAe5JNXyL+K8bxH/jM0zOqiPAiAA5mFsHGVx69ZbqJlMBAAA89naSA1TGAisiAAQA9ldKAHiGTQmwZgJAliQA7JAGI8A9qYZv2bp59q/MevuJ/8avjgAjAuRA4j8AmOolGoDjVMcIAGH5NiRZZxoAgP3sSvJgAeM4aXStA+B+fvU8ApglCQA7poEIcE+V4ZvFf90g/pucYXLWTduzUwTIiPgPAKZ+eQbgOMXUeA+VSStp9T/HQ7zewH7E+NxVwBiqeAwwwDiOpbAob1510AQjwD1Vhm++ZsvsX5vl9jvz48NNmZ+/Wvw30dveM2/anp1z87nTZPSa+A8AAGDlSnpz2nuoTJrH/wIAB3NXIePwGGCAtREAsiRvXnXUtResu6YaLrwu44sA9wwyfJP4rxv2xX/DVM8yGxM2zJk37cguEWBvif8AAIDl3T1SMm+0M2lHmQIA4CDuLmQcT7YpAffzxsFkCQA77JoL1109igB3rfGP2jPI8E1Xb5n9G7PafuK/KRAB9pX4DwAAgMR7qEzeMaaAKRCvA7RfKSsAnplk1uYEWDUBIEvy5lXHjSLA12b1EeDu4XD4RvFfR66OxX/TM4oA9y7kDpPRC+I/AGjb1RiA41TXeAQwLN8TTAGO04DrWA6ilBUAZ+MxwIBrXuNgorx5VYA1RIC7h8Phm669cPZvzWL7if9acRt85s33ZH7vQm43GUUT/wEAAIzjLroc3kNl0k42BThOA3AQO5LsLmQsHgMMsHrel8CLpC9WEQHuzsLwjeK/bhD/tcrpN9+TSgRYLPEfALSTDycBx6nu2VvQWNbbnExQFSsAgvMvwKGPc6V8HvVUmxMAJkcAWJAVRIA7Uy28autFsx8ya+0n/mul026+J9Weueo2U1EU8R8AAMD4zCVZKGQsG2xOJmhTYa8xQRYAjFcpAeDpSY6yOQFWxSOAWZIAsDDLiAAfTrXwmq2b1201W+0n/mu1027ZMRyIAIsh/gMAABi/PYWMY6NNyQR5/C8AsJhSPoeqYhVAYDrHnhJou/Ai6aNrLlx3dYYLr8vjI8CHq4j/ukL81wmn3bJjOLNnLiLAbhP/AUD7WUkGcJzqplICQCsAMkkCQHD+BfsRiynpM6in2ZwAq6Ltwoukr7ZeuO6jB0SAD1dZeM01W9Zda3baT/zXKafesiMiwO66RfwHAAAwMVYAhKWdbgoAgEXsSPJgIWM5N8msTQqwYo6dLEkAWLD9IsDtgyy8WvzXDeK/TtoXAd5qKjrllkEGLxH/AUAnWJEAaPsxynHq4KwACIurkpxtGgCAJZSyCMWGeAwwwGrMmAKWIgAs3NYL13103c7BWVdvWfcxs9F+4r9OO/WWHVm3Zz63m4pOuGlhfvBi8R8AdIKoBqC7rAAIizs5yRGmAQBYQkmfPW2xOYEGVYWMwwqALEkA2AMffm51v1loP/FfEU65ZUcGVgJsvVsGGVz+sYurW0wFAAAwBkLlQxMAwuLOMQUAwDKU9LnT+UnW2aQAK2IFQJYkAIQWEP8VZJhTb7k3s7vnIy5rJ4/9BQAAaE4pAaAV2pgUj/8FYNr8MEs33JRkvpCxrE9ynk0KsCICQJYkAIQpE/8Vebt86m3bs14E2DriPwDo6tUVULISHsXiOHVoDxcyjsOSHG5zMmaDlBkAOiYCOG4zfnuSoj5zutgmBRpSyiOABYAsSQAIUyT+K/qO+ZTbtmfj7r35ntloBfEfAAC09vaJgj1c0FiOtTkZs1Pj8dI4BwPTV5mCzrixoLE8LclRNinAss2aApYiAIQpOfPjw03D+flrxH/lGiYn3XZvjhQBTp34DwA6f1kF4DjVUQ8VNBYBION2vikA52CwH7ECJQWAgyTPtEkBls0KgCzr5Ao0bF/8l1SXmI3i75zrCHAu3zUbUyH+AwCAdrPiSNmsAAiHtsUUAAArcHuSnQWN51nuBwGWTQDIkgSA0DDxX/+MIsCjRYCNE/8BAEAnbpmMoWBWAISDOy3JiaYBAFiBhaSoz5lOTHKWzQqwLAJAliQAhAaJ//prOMyJt92bo3fPV98xG40Q/wFAQZdSpgCKZsWHsgkA4eBKXv3PtRuA4zaTc2Nh43mBTQpMWCnvOwkAWZIAEBoi/mM4zIm37RgeIwKcOPEfAAB06FbJGIrmEcDweFWSzaYBgBadl+iObxc2nvNdZwMsiwCQJQkAoQHiP/YZDnPirTuGm3bujQhwMsR/AFDgJZQpAOisklYAPC4+IGc8Th+9ngDAPTcrdU+SOwsazyDJj9isAEsSALKskyowQeI/DnI7fcLt90UEOH7iPwAAYDp3eRzKziQLhYxlQ5JNNiljcJEpAADW4CuFjedZSQ6zWQEWJQBkSQJAmCDxH4ckAhw38R8AADC9OzwWm5uSVgE8xSZljdYneaZpAOdggDW4obDxbEzyfJsVYFGDeCoBy3iRABMg/mNJowhw11xuNBlrIv4DgNKvmoCSefOyfPcWNJaTbU7W6JmpP+QGAPfcrNa2JHcVNqYXp/5BCQAOTd+FFwg07UmfGh4r/mOZt9Yn3Lojx4kAV+2W2YXBpeI/AADo8F2RMZRuR0FjsQIga/U8U4DzF9AyfiCnm0p7DPDhrpPoqM1JzncspSEeA8yiBIAwZk/61PDYavf81eI/VnB3ffytO3Lc7r3Vt83GitwyuzC49CMXVTebCgAomg8mofhbIgpXUgB4hs3JGjw5VpEEwD034/GVAsf04iTrbFo65Kgkb0ry7iS/nuSSCLSYLK8vFiUAhDES/7FaVXL8rfcOT3p4rvqG2VgW8R8AANAWPjRd3L0FjWVTkmNsUlbpRxwTaRkRPkB3/SDJ3YWN6cgkL7Rp6ZBXJtkw+ucnJHlLkn+Z5MokG00PEyAAZFECQBgT8R9jsOn7O4anPLwnIsDFif8AoF98iAzQbTsKG8+TbFJWYVPqR4OB62wAxuWrBY7p0tQhILTd2UkuOsjvH5U6APxvkrzM65kxEwCyKAEgjIH4jzHa9P37IgI8NPEfAKycD/YAHGenqbQA8EyblFV4SbwXDwCM1xcKvBfZkDqegjabSfL6LL6a8sYkl6VeEfANSY43bYzptQeH5E0HWCPxHxOw6fv35dSde/N1U/EY4j8A6CdhDUC33VvYeM6xSVmhY5M82zTQQiU8Ati9AtiP+uzuJDcXOK7nJDnJ5qXFLk/9yN/lmE3y3CT/PMk7kpxi+lgDASCLEgDCGoj/mKBjbr83p4kAHyH+AwAA2sqHpovbmWRXQeM5OR7jxMpcGR/U0E4lBIA+4wL67vMFjmmQ5LU2LS11SurVvVdz3bUlya8leXeSJ5pKVsF9JW6OYBLq+G/hGvEfE3TM7ffmtF17q6/1fB7EfwAAAN1W0mOAqyTn2qQs04lJLjYNMDGHpYyQEWC1bkhZP2yzz7lJLrR5aZlBkjdnbRFWleT8JL+c5KeTnG1aJ66kH9oUALLkQQpYoUfjvzzTbDBhx9x27/D0HkeA4j8AwMpagONU991V2HieYpOyTFfGe/C0VykrAK6zKYEe25vkukLH9uokG21iWuTSJKeP8c87N8nPJfl595gskwCQJW+OgBUQ/zEFx9x27/CJO/embxGg+A8AAOgCAeDS7ixsPE+LN95Z2smpH/MFTNYGUwBrYhXN7vt8oeM6KsnLbF5a4vTUP9wzCWcleW/qVQHPd1xmEfouvEBgXMR/TNHRt9+bPkWA4j8AYB9hDUD3lRYAHp7kyTYrS3hV+vnhnWu37ijl9SkAhLWximb33Z7kB4WO7blJzrGJmbL1Sd6Wyf8Q2BOTvDvJr6X+QSIhILAiAkBYJvEfLdCXCFD8BwAAdInYZWl3FjimZ9isLGJLPMYLmiIAhLURAJbhc4WOq0rylngUMNP1miQnNvj3nZLkHUn+aZKLo+kBlsnBApZB/EeLHH37vXniw3uqrxY6PvEfAABAebYn2VPYmJ4RjwHm4A5LvfoftF0pq8ocblPCmggAy/DFJA8XOrZNSV5rEzMlFyR59pT+7pOS/FiSf5bkWe4/iR9AZQkCQFiC+I8WOvr79w/PKDACFP8BAAfjjQ3AcaqMOdpW2JiOTHKeTctB/GiSY0wDNGaTKYA1mTUFRdiT5LMFj+/i1CssQ5NOSPLmFnwfx4++j3+e5HmO273m/ScWJQCERYj/aPHp/ajv3zc868Fdub6Qq5WbxX8AAEB3b2lYhjsKHNMlNisHODXJj5gGOqKUz4c22ZSwJutNQTE+k2Su4PG9MXWQBU1Yl+Qnkmxo0fd0bJLXJ/nNJC+IFVz7yPtP9OIGD8ZO/EcHHHHHAzmn6xHgMLl53cLgJeI/AODQlwsAFGBbgWM6L/VKgJDUj1N9Q7znDk3bZApgTY4yBcV4MMmXCh7fhiTvjGiVZrw+ySkt/d6OSfKaJP8iyaVpV6TIZHmfnEV5MwIOQvxHhxxxxwM556E9ua6jVyniPwBgGZcMAI5TBShxBcCZJM+2aRl5YZInmQacvxq3yaYE+xCP+GTh9ycnp14JECbpuenGau9HJnlF6hDwpUmOsOlcv9NvAkA4gPiPDjriB/fl3K5FgOI/AACAXvlBynyz+vlJZm3e3jstyctMA0zFsaYA1mSTKSjKXUm+UfgYL0r9+FOYhHOSvLZj3/PGJJcn+ZepVwZ0XC/XgilgMQJA2I/4jw6rI8Dd3YgAxX8AAEBB/AT28jyc5IcFjuvoJBfavL22PsnbIwR1TLStpuUY+x+sySZTUJxP9mCMr0pyvk3NmJ2Y5MdTr/TeRetSx7G/meQtSU6ySV2/0y8CQBg556rhidXuhU9E/Ed3HfGD+/OUtkeA4j8AYOWXDwAU4tZCx/WiJJXN21uvTf1hITAdgySnmAZYtU2moDjfS3JzD479b0/yRJubMdmY5N1JDi9gLDOpH2H8T5O8M8npNm8x5k0BS50coffOuWp44t71C1uTbDYbdNzhP7g/T3lwT77cxm9O/AcAABRIqLx8txQ6rpOTPMPm7aUtSZ5lGnD+mrpTbU5YteNMQZE+0oMxrk/yHq9hxmA2ybtS3g/1VKP71F9JvSKga97u22N3ZTECQHpP/EeBDr/jvjy1bRGg+A8AWP1lBIDjVCFuKXhsL433WvvmuCRvMA04f7XCaTYnrNrRoy/K8r0k3+7BOI9M8lOjX2E19q0meXbh4/yOTV0EASBLHtCgt865anji3PqFayP+ozx1BLi7HRGg+A8AAIAkdyZ5uNCxnZTkYpu4Nw5L/YiwjaaCDttb0FgEgLA2HqNapo+kHz+sdGLqCHCDTc4qvC7lr+Z+e9LOJ8exYgJAFiUApLf2xX/D5AKzQaEOv+P+PPXB3fnSNL8J8R8AAFA4KwCubK6+V/D4rkyyzmYu3r5VQk42FXTcXEFjOSXJjE1Kg3YXNh4BYJluT/K1noz1tNSPA3Ytzkr8aJLn9mCcfxvvW5RgfvQFhyQApJfEf/TI4Xfcn6dNKwIU/wEA47mkAKAgJT966Ngkl9nExXtFkqeZBgpQUgA4mzoChKbsLGw8AsByfTTJQk/GelaSn4ggnOW5PMkVPRjn11L2D+H1idX/WJIAkN4R/9FDG++4P097oOkIcJjvzGfwQvEfAExdZQoAJnz3w0p8t/DxXZr6ccCU6ZIkLzINjomFmCtsPOfapDSoxADQewdl2pbkuh6N97wk74gGgsW9KMlLezDO+SRX2dzFEACyJCc/ekX8R49tvPP+PP3+XcN/bORvG+Y7c9XgJZ/YUt1u6gFg6oa+fwBa5K4k9xc8vpkkr7OZi/TkJG80DRRkb2HjEQDSpF2FjWdDrKJZsqvTr8dGPiPJm6KD4OBenORVPRnrZ5PcbZMXQwDIkpz46A3xH+SwbQ9UmyceAYr/AACAfhEqr3y+vln4GM9J8lybuiinJ3lnPFKOsuwubDxnpo6YoAkPFzgmj7cv1/Ykn+zZmC8ZXbuts/nZzxVJXtmTsT6UZKtNXhQBIEsSANIL4j94xGHbHqi23L97YhHgjeI/AAAAlvCNHozx1fEo4FKckuS9STaaCgrzUGHjmU1yvs1KQ+4rcEwCwLJdW+jrdjHnu4ZjpBrdn/1oj8b8NykzVgcWIQCkeOI/eJz12+6vtty3u/r8mP/cGxeG4j8AaKGq49+/lbUAx6ny3JhkrvAxrkvytlgxrutOSvLTSQ43FRSoxA+FN9usNOT+JAuFjemJSY6zaYu1J8mHejjus5L8QpJjvAR6a5DkjUle2KMxfzfJl2364ljRlGUd8KBY4j84pPV33T+88L7dw3FFgDcuDAcv+diF1fdNLQC0jjAFgLbZk/pDidKdluRVNndnnZTk55IcaSooVIkB4FOSHGHT0oCF1BFgSaokF9m0RbuuJ9fgB3pCkp9PcoKXQO+sT/KuJM/u0Zj3JvnzeD+41NczLEoASLHEf7D0hcJd91fjiADFfwDAJHnDCnCcKtNXejLOH0m/PnAqxYlJfibiP8q2K+WtYDab5BKbloaU+DjVi9P9pwiwuL8s8Ni/HMcl+aXUoTj9sCnJL6Z/jzffmuQem79IAkCWJACkSOI/WP7Fwl33Vxfev7P63Cr/e/EfAADQdwLA1flqkvmejPX1Sc62yTvj9NQr/x1tKujB+WtngeN6TgRMNGN7gWM6Mcm5Nm3RtiX5TE/HfniSn0pyhfNE8Z6U5JeTnNKzcd+Z5JM2f7EEgCxJAEhxxH+w8guGbQ8OL7p/53ClEaD4DwBogrAGoEwPJ7mxJ2OdSfIT8dixLjgvdfx3lKmgJ3YUOKYTkpxv09KAuwod1wtt2uJdk+SBno69SvKjSd6dZKOXQpGe2dPr+WGSv0h/fsiuj2aj72IJXiAURfwHq7Z+24PVSiJA8R8AAEBNqLx61/dorEck+dkkx9vsrfWc1B8GW1nBMbFPSn1E3OU2LQ3YVui4npLkVJu3aLtSPwq4z56W5FeTnOblUIzZJG9M8tbRP/fNp5Lc4mVQ/P3JOpuTxQgAKYb4D9Zs/bYHq4uXEQGK/wCAJvkQGaBcX0uyt0fjPSZ1BHicTd8qVZKXpv7A0Pvl9M32Qsd1euq4Ayap1ACwSvIym7d4X0lyXc/n4Lgkv5DkR+KRwF13fJJfTP0DPX10R5KPeBn0ggCQRXlDgyKI/2B8Fw7bHqwuvnfXISNA8R8AAMBjCZVXb1fqDx/7ZFPqR1KJANthXepVQqwWRl/dU/DYXpX6Eewwyf1nrtCxnZfkbJu4eH+Z/j4KeP9rwdeOrs+t1N1NF6bfqznOJfnjgs9HPJZrWxYlAKTzxH8w/hueux+oLr5vZ/UPB/y++A8AAIBx+3wPx7wp9UqAT7D5p+qkJL+U5GJTQY+VHACemOQFNjETtJDkzoLH97oIDUr3cJIPmIYkyVlJfj3JC2M1wK44PMk7krw9yYYez8NVKXdFWh5P34UXCOUS/8HErLvrweGz7t01/PvR/xb/AQDTYmUtwHGqbDel7ADlUI5N/Ziqp3oJTMXFSX4lySmmwjGx5+4ufHxXJjnBZmaCbit4bCcnebFNXLyvJfmSaUhSrwb46tSPBT7RdLTa01IHm1t6Pg/fTvIZL4deESizKAEgnfXkjw5P2nvYwsfEfzAxM3c/UD1r+8PV34r/AAAAmJBh+rkKYFKvVPGeWKGqSeuSvCXJjyVZbzog9ye5r+DxrU/ytljFjMm5tfDxXZH+PlazT/5qdD6gdkaSf5LkpUkOMx2tctTovP6eJEf3fC4eSvL++OGbvhEAsigBIJ01vz6DJLNmAiZq3R033XX2Z/7Nf/E4HABgWryRBThOle/zSeZ6OvZBktckeUO8zzVpJ6de9e8SUwGPcVvh43tikpfZzExI6QHgbJIfT78fr9kHO5P8hWl43Gv/8iS/meQ50VS04Z7p+Ul+I8lFpiPDJH8W4W5f9wXwAqE8N7+kunN2bvDi1MtTAxOw5667vr3jrz90cjXMXxz+tt99nRkBAAB4HAHg2j0Ujx57bpJfTh2pMV7rUq/g8qtJnmA64HFu7cEYX5zkWTY1E/DD1PFUyY5PveKWz5TL9o0knzYNj3NkkjemXhHwqaZjKs5I8ktJXpdko+lIknwiyddNQy9ZAZBFuVij07770uqu2fnBZREBwtjtvWvbt3b89VUnJMPjkqxbGOZPRYAAAABMyKcjpjwl9Qp1L4o39sfl3CS/nnoFF48AhYO7rSfjfEOSp9jcjNkwyfd6MM6nJXmT65PifahH54SVekKSn0ry3tQry9LMnL8ryS8mOd10POLGJB81Db3lPMyiBIB03ndfWt01yODyiABhbPbete1b2//6qhNH8d8+60WAAMAUWFkLcJzqhzuTfNc0ZDbJq5L8dJJjTceqHZnkx0bzeLzpgEXdnmShB+OcSfLu1CETjNONPRnnJUlenf7FB2f06JpsPskfJnnYbn1IT0m9avfPRFQ+KZuSvDn1qotPNx2PcW+SP+7JdRsHJwBkUQJAinDTFdU2ESCMx9677vpmHf/luIP83+sXhvnT9W/9ndeaKQAAgCQCwHH6uCl4xDlJfiP1o2vXm45lG6R+nPJvJLnYdMCy7E5/VnyaTfLOJBf2ZLzPSPJ2L/GJu7FHY31B6sC+D6vqHjvaf34hyVE92sY7krzfPc6yrtXfm+RXk2yJ5mIcnpDkLUl+M8mzzOnjzCX5gyQPmYoVGxoLfeHASTFEgLB2e+/c9s3tf/OhJ+Tg8d8+6wdV9X4RIADQEG9sAPTHjUluMQ2PWJf60bX/LMlF8dP+i6lShy7/NPVjPg83JbAiX+3RWGeSvC31aqulRkxnpX5k4juTnODlPXF3p16VqS8uSh0+HV3o+I4YHR9+I3Us3Mfrr68n+aRde1lOS/KO0fX685NsNCUrdkbqR/3+euqVRmdMyUH9ZTyie7VKWjFx3uZkMQJAiiIChNXbe+e2b2z/0FVPyHBZy9mLAAGApggAAcepftlqCh7nmNSxyi8mOS9CwP1VSc5P8kupQ5cTTYljIqvSt/fTqyQvSvJzKesx4Wcn+dkkP586qKA53+7ZeJ+c5NdG1yWlOCLJy5P8i9HxYV3PX9MfTnKzXXvZjk/yuiT/anTdfo5r9kVtSPK80XHkF1M/6td8HdrnknzeNLg/icc/s4RZU0Bpbrqi2nbW1uHlC1n4WOo3AIEl7L1z2zfu+dCHT6mG2bSC/2xfBPiWPX/6039lFgEAABiDbyW5NcmTTMXjPCnJTya5I/Xjkm9Ifz8AGKRe8e+yJKd6acCa/TDJttSP3+uTM1KvHPqJ0XF1b0ePh+enDpbO9FKemq8meXbPxnxkkvckuS7JVUnu6+g4jh/tP5dE9Le/hSR/lPoRt0eajmVbl3qVzItSP075C0n+Mf1aJfRQqtQr1F6S+rHJ9rfl+Xbq1f9YPQEgvSEApEijCPAyESAsbe/t3//K9o9efWY1zFGr+M9FgAAAQN9Z7Wr8rk79aDkO7pQkb0/y0tSPZ7suyc6ejH1j6sDi+cmynmDQRXcmOdnLnCn4WvoXACb152RXJHlmkmuSfCnd+HD1iNQRRcnHwy75TpJdqVe16pMqdej09CR/l+TTHbkmqZKcm+S5qT9D9MS8g7svye+nXllUrLVyxya5cnSOuSX1o5W/nuSuHs3BIHX0tzn1D+8c5WWxInck+cN47OtaCQDp1Y0NFEkECEvbF/9luKaL7vWDqnr/YT/2X968+09+6q/NKv93e3f6LNdd33n8031lSZZZbBZjYsxiGwj7DtlBxsAMCamZmgID82AKMElN1UzV/Al5MFUzk2SyMIQEbAwhYFuWhFlsEi+yJO+b8C7ZlhdZljdZ69VyF6m758E5F8mylrv1ds7rVXXqSsLG6m93nz7d592/AwDzTFgDUD+Plts7jOK4XpvkPyb5QpIHUqww8lgFXzsbKVa1+niKk4dVPgH9fJKVKS6FBr32YIpVNevqtCRfKmdwfYq4etBOsjaTvDNF+PfuJCMetgPjYJINKWK4OlqYInT6wyS3JLkpyf4B/Hu+pryPPlb+errq/LnE5iRXpPjyiUu0zu1Y9q1JPp9ke4rofn2KyyxXLeh5Rfk+bmqzguTs7E5ySYq4nLmp0j5cDMpxCQCpNBEgHNvE01se2HXtdW9LZ14Ovhc20lkuAgQAAGpIqNwdVyX5H7Eiy3QsyEsvNXZvihOKm4f48dlMcZL0nUnel+R1Nbgf96dYZccKO/TLlhSXAn5dzefwuiRfThFp3JXkznLf2i8jSc4t94XvSbHyH4PpgdQ3AJyyOMmnU4SA95fPoU19Ph45rXz+vD/JWRGxzcZ95b7xc0YxL6YuO/1H5fHfpsO2LSmC4mF7L/K2HAr+zvA8m7PxFPHfbqOYF223hboQAFJ5IkB4uYktz9y/69rrzp6n+G+KCBAA6AZhDUA9PZ/ipPEnjGJGTkuytNz2JXk4RQy4MYO/esRrk5yTIvp7e+p1GcV2ist77Ug9L8HK4LgnxSpeJK9KETKdl+TxFKu7rU+xclO3nZ4i+ntHkrNTv8vKDqtHUlz+9mSjyMIUK1V+NEVYfF95TPJ0uh8vLEzxJYJ3JPnt8vnE3K1KEQF+xCjm1ZIU566nzl+3UkSAT5Xb8+XrzqBEPwtSBH5nHra9MZqT+dRK8i8pLv/L/HAJYGrDzphaEAHCIRNPb75/1zU3nJPufFtUBAgAANSNULl7rk3ywSSLjGJWTklxkvYj5eP0hRw6mfhUihPy/Xr8Lk7yW0necthW51Wtfpni8s32KfTbvREAHqmRIsY7N8Ul17emWKXp6RQrrW7N7C/H1kxxGdLTU0QUZ5WbVf6G04EUodvvGMVLvC5FTPvpFKudbSyfP8+U21y+oLC4fP5MBUlvTRHSW0G6O1ak+LLJ2UbRNSOHHRtPaZXH7VsP27YlGU2yN/N/SdCRJKeW9/XUz9eUx+6nx+Xnu/3ZwopyP8n8zrUqBIAclwCQ2hABwuHxX6ebHyKJAAEAAJgPe1KsNvJ5o5izRoqT42fk0KqKY0lePMq2J8XqgXN1SpJXplhF67UpTsifXm6vcpf8xp1JbqnQ7REwDrcXU6w89CajOKap/djHy9+3U0QYO1JcKngsyUSKqKmdQ6HEghQrPZ2S5BUpoorXREhRNXdHAHg8S5J8oNymXjP2lM+d3eU2kWSy/NlOsaLfSJKTyufPq8vn0GmOJ3quleRHSf57eWxHb4yUx9HHWiV6/2HH71M/J4/433PYa9ZIipVKF6b4otXCFDHtovK16ZVxCd9+HUP/LMk6o5h3VYrmWu5OjkcASK2IAKmz8aeevm/3dTec2+X4b4oIEACYL04iA/ZT9XZzimDNScb5d3KSN5fbkdopVhTZV/4cK/+8lZeeUBxJcdLwpBSfNS9KcdLwlfHZ83RsSnKlfQoD5tcRAM5EM0UwcapRkGJVyBficu7T1UgR8Qn5hsf+JBcl+a8pYkz6b0m5MdyuSnKbMXRFx22hTm9MoFaePL/xQjPN85KsNw3qYnzz5vt2X3d9r+K/KVMR4J+6BwAAgArzAWx3HUxxeVR6q5niZPwbk7w9yfvL7UMpgsyp7aPln7+r/OfenGJFHvHfie1KsYqOVRwYNHflUPQLzO45BFW2I0UEuNcoYF78a5KbjKFrqvKZTTs+f+IEBIDUkgiQOhl/4sl1u6+9/h0plsfvNREgADBXPtgAYH2SDcZAhRxI8s85+olzxz7020SSO4wBZu2uvHS1XIaf1+aX25oiAtxvFDAn1ydZbQxd13YbqAMBILUlAqQOxh9/Yt3uG9a8J2mc3Me/hggQAAA4lkYFboMTgr2xMlakoho6SZYnecY+hQF2S6xOCbM1luRuY6AGnksRATpGh9m5Kcm1xsA0OTbnhASA1JoIkCobf/zJu3evXvueJIsH4K9TRIBfufgL7hkAAABmYTTFpZFg2F2f5N7j/O8CQAbB7iT3GQPM2s3259TEMylWNT5gFDAjq5P80hh6xgqA1IIAkNoTAVJF4489cffu1Wvem8GI/6YsbHSyQgQIAMyQkyaA/RRT7kjyuDEwxO5OEQDCMLghTjTCbG1LssEYqIknUkSAB40CTqiT5Or4cls/5j7sHJdzQgJAiAiQahl/7Im7d69ZO2jx3xQRIAAAALPVSbIsLjPGcNqY4lLWnWk8zmEQbE0RXgOzc719OjXyaJIfJpk0Cjimdvl+YK1R9FzHbaAOBIBQEgFSBeMbH79r95q178tgxn9TRIAAwEz4cAOwn+Jwu5IsNwaGzAtJfpykZZ/IkLk2ybgxwKxsSXKPMVAjjyb5bpJ9RgEv00pyWZI7jaIvXAKYWhAAwmFEgAyz8Y2P3bV77Y3vT7JoCP66IkAAAABm68FYlYrhsSvJxZn+ypUCOgbJvlilBubi35IcMAZq5OkUEeCoUcBvTCa5JMl9RtE3VgCkFgSAcAQRIMNobMPDt+9ee9MHMxzx3xQRIAAwHT7cAOynOJpfJHnWGBhwe1PEf7uNgiF2Y4qQFZi5XeVzCOrk+STfSbLdKCB7k3wvyUaj6KsqfG5jBUBOSAAIRyECZJiMPbT+9tFbbvtIkpOG8K8vAgQAAIadALA/DiT557jEGINrPMVKH1vtU6jA/vYKj02YtRsihHK8Xz87UkSAzxkFNfZ8km8n2WwU9uNuA70gAIRjEAEyDMYeWn/76G13DGv8N0UECAAcjw83ADiWnUkujW/CM3imLvO1xbEPFfFYkruNAWblQJIV9u/U0J4k/5Rkk1FQQxuS/EOKGJb+q8JnBo4jOCEBIByHCJBBNrZ+/W2jt93x0Qx3/DeliAAv+N6fuGcBAACYgY1JrjYGBsjBJD+Kk91Uzy/jctYwW48nud0YqKGxFJc/XWcU1MjaFKvVTxjFwHAJYGpBAAgnIAJkIN8xrV9/2+itd3wsyYIK3ayFjUZzpQgQADiCbzcCg86HsP13U5KbjYEBcDDJj5M86tiHChpPstJjFGbtVylWL4Y6Hh8tS3KV905UXCvJ8hRfUPNYHyxtt4E6EADCNBwWAW4wDfpt/4MPVTH+myICBAAAYDZ+meQBY6CPDiT5Yeb+JWJxFYPs4RTRNTBzE0kuTRGIQB3dmOSSFKsCQtWMpljt8i6jGEgdt4E6EADCND15fuOFxogIkP7a/+D6W/fcfmdV478pCxuNpssBAwAAw8KHsINzP1wel12lPyaSfD9zW/nPPpFh8askTxgDzMpTKVaGgrp6NMm3k7xoFFTIxiR/l+RJo/AexW2gnwSAMAObljaeFwHSL/vvf+DWPbff8YlUO/6bskgECACUfLgBwHQdSLGqyNNGQQ+NJbko8xdEOfZh0LWT/CTFSjfAzN0cqxZTby+miAAfNgoqcEx0TZKLk+w1joHWqcjjDY5LAAgzJAKkH/atu+fmPXfe/TtJRmp0s4sI8MsX/7FHAAAAMMDEOoNlPMUJmGeMgh6YutTXZqOgZvYk+XFcyhRma3mSrcbgeL/GxpL8MMm1EbUwnHYn+W6SVfYRQ6EK+xmPM05IAAizIAKkl/atu+fmvffc+3s13WcvaiQrRYAAUGs+3IBq89kU3TCWIgJ8zijooudSrF4z37GpYx+GxaYUEZPHLMzceIpLx1tJkzprJ7k+yT8m2WkcDJGH45K/w8YKgNSCD1lhlkSA9MK+dffcVOP4b4oIEAAAqqsK73WEDwP6ljrFigxWZqMbHk7ynSS77FOouV8n+ZUxwKzsTPKDJJNGQc09leRvk9xrFAy4ySQ/L/fd+4xjqHTcBupAAAhzIAKkm/asW3fT3nvu/X376iQiQAAAqKqGEdBF+1NcnvVRo2Ae3ZHiknUTRgFJkrVJbjQGmJVnkvxLrOoz6EQX3Tee5NIUl5cfMw4G0KYkf5/kFvsE+/E+cazACYlKYK6v9iJAumDPunU37b/nfvHfS4kAAaCefKgG1VaFANB+arBNpoi1HjAK5uhgkiuTrEx3T77YpzCMrk6xGiAwc48kuSxO7EOS3J/kW0meNgoG6P3kz1JcqvpF4xhaVXiP5Qu0nJCwBOaBCJD5tOeuu2/af8/9f2AffVQiQACoHyfBodq876EXDqZYTeQ6o2CWdib5pyS3GYVjN455v1+R5C6jgFm5L8lPkrSMArI9yT8k+UVcIpv+ejLJ3yW51THu0KtCZD/ibuREfMgK80QEyHzYc9e6G/ff98AfRMV/PCJAAACoDisA0sv76bokK+LkOjPz6yR/k2SzfQocV7vcxwplYXYeSHEJVMcpULym3Fwegz1iHPTY/hSrfv9Tkm3GUZnPA4adAJATEgDCPBIBMhd7b71j7f777v/DiP+mY1EjneWLv3TJ+UYBAABDzWdT9NqdSS5OstcoOIHJJMuSXJ5koof/XQEgw6yT4jJ5a40CZuWBJD+KVc9gyo4k308Rx+4xDrqsneKLDH+Z5A7H5ZU7Rh12AkBOyIesMM9EgMzG6C23r923fv0nI/6bgcbJabZ+IQIEgMrzYRtU/MDefoo+eDzJ3yd5yig4ho1J/jbJOvsUmNVj+Ookv/J4hlnZkGLVKV9WgEPuTfLXEWXRPU+U7xGvTLECINVShUsAL3A3ciICQOgCESAzMXrLrWvHNmz4pEnMhggQAACG/aC+ArfBCajhtDvFyfWbjILDjKZYYeaiJNuNA+ZkTaxkBrO1Jcm3k2w1CviNsRSXZf3H8jkC82FXkp+U7w2fM47KsgIgtSAAhC4RATIdozffsnZswyPivzkRAQJAxQlroNraRkAftZL8MskPY5Ud+6LklhQry9zr2AfmzUNJvpPi5DowMzuS/EOSh40CXmJTkv+XItryhQ1mazzJtUn+Ksl9xlGL93vDTtuFBwn09Qh0aeP5gyPNz6aTx0yDI43eeMvasYcfFf/NCxEgAAAMqSqsCiTWGX7rk/xN+ZP62ZxilaWfpzgRCMyvZ1OEGk8aBczYWJIfJLkmvjjjeJ8j75P7Unx542fxZR6mbyLJqiT/K8n1SQ4Yif34kHAJYE5IAAhd9szSxpaDC5pLRYAcbvTGm9eOPSr+m18iQAAAGEI+bGdQ7E2xEuDyFCfbqb7RJMtSrK40SJeRExlQRXuSfDfFiXYRE8z8dWFVku8n2Wcc8BKtJLcm+d9JrksRd8HRTCZZUz5WrvGer5avpcNuobuRExEAQg+IADnc6Nqb1449ulH81xUiQACoICfBodqqEADaT1XLXSkuA3WvUVRWK8naFCvGrPMchp5pp7jU3vfiksAwGxuT/G2SDUYBLzOZIgD8P0luTnLQSCgdSHJjivDvVxFS11VVVgA8yV3J8QgAoUdEgCRl/LdR/NddZQT45Ys/bRYAADDwDkR8w+DZm+TSFCvtbDeOSnk4xeWer87gXu532PeJ9umcyBNJ/i7J/UYBMzaa4pLAy+Oy9XCs4/hfpIi9hID2l9emuNTvVXGZ6LqrynuUxe5KjkcACD0kAqy3XatWrxH/9Urj5CQiQACoBieRofrP8T32UwyoR1KsEnd1XCJq2D2e5B+TXJLkRfsU6Lv9SX6c4tLru4wDZuyuFEH7I0YBRzUaIWBdbUlyeYrw7/oI/yi0K3I7TnZXcjwCQOgxEWA97Vq1es3Ek5s+ZRI9tSQiQAAAGAY7jYABNnW52L9Mcmv5e4bHk0m+W25PGgcMnPVJ/m+KOKNtHDAju1KsVvwjx9NwTIeHgGvjSz1V1U6xsvB3knwrya+9b+MIVgCkFgSA0AciwJq9C79e/NdHIkAAABh8O4b872+1rnrYl+RnSf4qyZ1xQmnQPZXkohSr/j1unwIDbSJFnPHtCHVhNh5MsWLxqljlDI5lNMWq3v8zycokzxtJJbyQ5F9TrPb34ySbjISKv8eyAiDHtcAIoD+eWdrYcubqztIFB9ur08i5JlJNu66/Yc3Epqc+ZRJ9NRUB/un45ReuMg4AGDpOgkP17TAChuzxuiLJDUnOS/Lh+Ix1ULSSPJBiJbHNFTj+aTh2o2a2pIh2353k80lONxKYtgNJrknxJYXzk3wkFoGBYz1X7ii3c5L8XpL3eL4Mlb1J7k2xyt8W46Bm71EEgByXD6egj0SA1bbrulVrJp7a/CmTGAhFBPiVi74wftk3bzAOAAAYKJuTbCx/PZlDK6u1yt9POdrlmg4e8c9M1+Ic/STPSJKFx/h3Fh3j33HSoZ6mQsBrkvxuuZ1iLH2xL8ntSW5LsbpLFfy03BeNdPG/sWgW///TOeFkn8hcrU/ycJKPpQiZXm0kMG07kyxPsibJZ5O8P8MblA8ScXs1PV5ur0rywSQfSnKmsQykyfL44J4kj6S45C/MxDA+Zg6k+Myrk2TcXch0OOiDAXDm6s6bRIDVsuuaVWsmnhb/DaD9aXREgADUzUl5+Ze/Ginil369D506eXx4aHP4Se7F5T/XTHEi/yF3IwBD8Hr7oSSfSHKWcXRdJ8Vlfu9MsQKISx5CNS1IsdLqJ5O83jhmZUuSbxlDbZ2R5I/KY5QR45i1v06y1Rhq4Q3l8+VDSU4zjr7akWRDuT3heJ85eksOfankyC+XHu330wm/F+TYXyCd7nvaqf/2gcMe42PuLmZLAAgDQgRYHeK/gScCBAAAoJvOSLFy1YdjVcD59mKKlT9+HZcPhzppJHlvkqVJ3mQc07Y5xUpwDxpF7RquYZ4AABQlSURBVL0qye8n+Z24fOB0HUjxJYNbkzxjHLV83XlzissDvytFGEh3tZM8mWIV4A0R3QLM6sULGBAiwCHXSWfXv/7bjRPPPvdJwxh4IkAAAAC6bSTJuUnelyJcWWIks7InyQMpor/NxgG19+YkH09xucaFxvEyk0nuTxEtuSQ3R1qY4rLAH0/yVuM4queS3J1kXZL9xkHpNUl+O8m7k5ydl19pg5kbL4/tn0qyqfz1hLEAzJ4AEAbMmas7b1rQaq9Jco5pDJFOOrt+9W83Tjwn/hsiIkAAAAB6pZnis553pogC3xifzR5LJ8mzOXTJry2Z3iWYgHpZlCIC/FiKKLDu+80nUkRLD6SIAOFETs+hmPZVNZ/FzhQrZf46VvvjxBamCGjfmiIGPCvJScZyXO0k25I8nUPB3wuO8QHmlw+ZYACdc03nrIMj7dURAQ6HTjq7rrr6pokXtv6RYQwdESAAAAD9cEqKEHBqe23t358Xl/x6JEX0t9tDBJiB03JotdW3pB7nvtpJHk8RLT2UZNTDgFlqlM+b95XbqTW4zZ0Uod9DSdanWPUPZmskRQT4thRB+m+Vr0t11EmyK0Xc93y5vVBuBz1UALp/UAcMIBHg0BzKdnZcdfVNB8R/w0wECAAAQL+9KsUJw7PKn29KsbpVVe1OsVrVpvLn1lgBBJi//em7k7w9xcpMp1Totu1M8mi5PZZkzN3NPGskOTPJO8rn0FtTxE1VsDfFymOPpoj+fNmAbjo5RQg4tZ2R5PWpzqXrR8vXpBfLbdth2wF3P0D/DuSAASUCHHCddHb88uqbDmwV/1WACBAAAIBB0kxxab6zkrwhxUnD0zN8q/J0UpwcfO6wbUv5ZwDd1ij3n+eU25lDtB8dL/eXW5JsLn/ucpfSYwvL585bcugLCouH4O/dTrHy2FOHbdvdnQyAVyR5XYrVv6e208o/f1X6Hwi2kuxLsqfc9pbH7TvL16CpzWp+AAP65gcYYCLAASX+q6L9aTf+ZPyKb6w2CgAAAAbU4hQh4BkpTh6eWm6npThp2K/Pe/cl2VFuO8ufU5f9Gne3AQNkSYrVmN5Ybq9J8upyW9CHv894ijBpZ/nz+SRPp1hRycqoDJpGeRxyZoovKJxe/nxNii8v9NrB8nnz4hHbc0km3V0MoYXlMf0rym1J+WeLym1x+XNqZc5Fx3nujZevI53Dfj2eYvXY8XKbKH/uSxH77XMXAAz3gRow4ESAA8Zlf6tMBAgAAMCwGkkRsJya4pKXSw7bTi5/LkpyUg5FLieV2+HGUpwgbKU4ed5Osj/FCcH9R2yjKWI/J9mBKnhFDsWAp5b7zanY4uRym/r9iWLBqaji8NBirNx2p4iWdpT7UqjCMcgrcyhcOqX89Snl709OESmdnOLc9NTvF5X/frt8zqQ8Bhk77Hk0FSVNbXvLbVe5tY0fAEAACENDBDgoOu0dV/7i1gPbd/yBWVSWCBAAAAAAAAAAGAoCQBgiIsA+63Ra26/8xW0Hd4j/akAECAAAAAAAAAAMPAEgDBkRYJ90Oq3tP/3Z7Qd37vp9w6gNESAAAAAAAAAAMNCaRgDD5fHPNZ5e0GouTfK4afRIp9Pa/tOfi//qZ0manasWf+n7S40CAAAAAAAAABhEVgCEIWUlwB75Tfy3U/xXX1YCBAAAAAAAAAAGkgAQhpgIsMtc9pdDRIAAAAAAAAAAwMARAMKQEwF2SafT2r7yyjsO7tr9e4ZBaX/S+ePxy7+5xigAAAAAAAAAgEHQNAIYbo9/rvH0glZzaZLHTWOedDqt7St/Jv7jSEuSxlWLv3zRp4wCAAAAAAAAABgEVgCEirAS4PzotNsHti1f8ev2nn2fMA2OYV/S+RMrAQIAAAAAAAAA/SYAhAoRAc5Np92e3LZ85T3tPXvFf5yICBAAAAAAAAAA6DsBIFSMCHB2xH/MgggQAAAAAAAAAOgrASBUkAhwZjrt9uT2K1bc29q77+OmwQyJAAEAAAAAAACAvhEAQkWJAKdH/Mc8EAECAAAAAAAAAH0hAIQKEwEeX6fdnty+bMW9rX3iP+ZMBAgAAAAAAAAA9JwAECpOBHh0nVZrYvvylfe39u77mGkwT0SAAAAAAAAAAEBPCQChBsoIcE2Ss00j6bRaY9suv2JDe2z8w6bBPNuXRvOPxy/7+lqjAAAAAAAAAAC6TQAINXH2dZ03txrt1al5BNg5eHD/tmXLHxb/0UUiQAAAAAAAAACgJwSAUCN1jwCL+O+KR9pjEx/yaKDLRIAAAAAAAAAAQNc1jQDq44nPNDaPdJpLkzxRt9texH8rxH/0yinptK9e/JVLPmkUAAAAAAAAAEC3WAEQaqhuKwF2Dh7cv+3yKx5tj0980L1Pj1kJEAAAAAAAAADoGgEg1FRdIsDOwda+bZcv2yj+o4/2pZ3Pj19x4Y1GAQAAAAAAAADMJ5cAhpqqw+WAi/jvCvEf/XZKmvnV4i9d/EdGAQAAAAAAAADMJysAQs1VdSXAzsHWvm2XLnusPTnxAfcyA8JKgAAAAAAAAADAvBIAApWLANuTk6PbL1++uT05+V73LgNGBAgAAAAAAAAAzBsBIJCkOhGg+I8hMNrodD43tuybtxsFAAAAAAAAADAXAkDgN4Y9Aizivyuebk8eeI97kwEnAgQAAAAAAAAA5kwACLzEsEaA7cnJ3S9edsWWHBD/MTREgAAAAAAAAADAnAgAgZcZtgiwiP+WP5MDk+927zFkRIAAAAAAAAAAwKwJAIGjGpYIUPxHBYgAAQAAAAAAAIBZEQACxzToEWBnfHzX1mUrnsuBA+9ybzHkL8a70+n8OxEgAAAAAAAAADATAkDguAY1AmyPjW3ftmzF9s7Bg+9wL1GRF2QRIAAAAAAAAAAwIwJA4ITKCHBNkrcNwt+nPTa2fdvly3d0Wq23u3eo2Ivy7qT5ubHLv36HaQAAAAAAAAAAJyIABKZlUCLA9tj+bdsuX7FT/EeFX5hFgAAAAAAAAADAtDSNAJiOJz7T2DzSaX4qyZP9+ju0x/Zv27Zs5S7xH1XWSV6dtK85+cuXfMI0AAAAAAAAAIDjsQIgMCP9WgmwNbb/xe2Xr9zdaR08171ATV6grQQIAAAAAAAAAByXABCYsV5HgOI/avwiLQIEAAAAAAAAAI5JAAjMSq8iwNa+/Vu3L1+xp3OwdY6pU9MXahEgAAAAAAAAAHBUAkBg1rodAbb27d+6/YoVezut1tmmTc1frEWAAAAAAAAAAMDLCACBOelWBNjeu/e5bctXTnZa7beYMogAAQAAAAAAAICXEwACczbfEWBr775nty9fcUD8By970d6dZj47dumFd5oGAAAAAAAAACAABObFfEWArdHRZ7ev/NnBTqv1ZlOFo75wiwABAAAAAAAAgCQCQGAezTUCbI2OPrt9+ZWtTqd9lmnCcV+8RYAAAAAAAAAAgAAQmF9vW9V5S7vTXp0ZRoDiP5jxC7gIEAAAAAAAAABqTgAIzLuZRoCt0dFntq+4st1pi/9ghi/iIkAAAAAAAAAAqDEBINAV040AW7tHt2xb+dOk3XmTqcGsXshFgAAAAAAAAABQUwJAoGtOFAGK/2DeXsxFgAAAAAAAAABQQwJAoKuOFQEe2L17044VVy5Op3OGKcHcdTrZ1RzJ50SAAAAAAAAAAFAfAkCg646MAA/s2Llpx5U/F//BPOt0smsk7c/uX/Znd5kGAAAAAAAAAFSfABDoiakI8MCOHdlx5S+WpNN5g6nA/BMBAgAAAAAAAEB9NI0A6IUnP914qpPm+Tt/ftVu8R90T6ORU9uN5jVLLrjkw6YBAAAAAAAAANUmAAR6ZvP5jSc6ndZ/SLLJNKCrTmulvWrJBd/7mFEAAAAAAAAAQHW5BDDQc4u/evFb0s6aJG81DegelwMGAAAAAAAAgGoTAAJ9IQKE3hABAgAAAAAAAEB1CQCBvhEBQm+IAAEAAAAAAACgmgSAQF+JAKE3RIAAAAAAAAAAUD0CQKDvRIDQG51Odo00Gp/Zf/k37jYNAAAAAAAAABh+AkBgIIgAoTdEgAAAAAAAAABQHQJAYGAs/vIP3pq0VkcECF0lAgQAAAAAAACAahAAAgNFBAi9IQIEAAAAAAAAgOEnAAQGjggQekMECAAAAAAAAADDTQAIDKRFX7z43MZIVid5k2lA94gAAQAAAAAAAGB4CQCBgVVEgJ01SeNM04DuEQECAAAAAAAAwHBqGgEwqCaWX/hYp7lgadJ5xjSgexqNnNpO59olX/7+R00DAAAAAAAAAIaHFQCBgbfoqz94e6N9cLWVAKHrdjbT+KyVAAEAAAAAAABgOFgBEBh4E5d+baOVAKEnTmunc+2Sr170EaMAAAAAAAAAgMFnBUBgaFgJEHpmZ7PZ+cz+S7+5zigAAAAAAAAAYHAJAIGhIgKEnhEBAgAAAAAAAMCAEwACQ0cECD0jAgQAAAAAAACAASYABIaSCBB6RgQIAAAAAAAAAANKAAgMLREg9IwIEAAAAAAAAAAGkAAQGGoiQOgZESAAAAAAAAAADBgBIDD0igiwtSbJb5kGdNWL7Ubn/MnLvnm/UQAAAAAAAABA/zWNABh2E5d+bWOn016a5FnTgK56fbPTuH7hf/7B+4wCAAAAAAAAAPrPCoBAZSy64HvvaDSaq2MlQOi2F9sjI5+e/MnXHjAKAAAAAAAAAOgfASBQKSJA6BkRIAAAAAAAAAD0mQAQqBwRIPSMCBAAAAAAAAAA+kgACFSSCBB6RgQIAAAAAAAAAH0iAAQqSwQIPSMCBAAAAAAAAIA+EAAClSYChJ4RAQIAAAAAAABAjwkAgcoTAULPiAABAAAAAAAAoIcEgEAtLPri99/ZGOncEBEgdJsIEAAAAAAAAAB6RAAI1IYIEHpGBAgAAAAAAAAAPSAABGpFBAg9IwIEAAAAAAAAgC4TAAK1IwKEnnmx3cl5k8sufNAoAAAAAAAAAGD+NY0AqJuJ5d94pNNqnJfkWdOArnp9s9FYtfCCi99rFAAAAAAAAAAw/6wACNRWuRLg6iRvNA3o6uHG1nan82krAQIAAAAAAADA/BIAArUmAoSeHXKIAAEAAAAAAABgngkAgdoTAULPDjtEgAAAAAAAAAAwjwSAABEBQg8PPUSAAAAAAAAAADBPBIAAJREg9OzwQwQIAAAAAAAAAPNAAAhwGBEg9OwQRAQIAAAAAAAAAHPUNAKAQyaWf+ORdqN1XpLnTAO6qXN6s9FYtfAr33uPWQAAAAAAAADA7FgBEOAoFn7lu7/d7IzcECsBQrcPRba2G63zJi/7s4fMAgAAAAAAAABmRgAIcAwiQOjZ4YgIEAAAAAAAAABmQQAIcBwiQOjZIYkIEAAAAAAAAABmSAAIcAJlBLg6yRmmAV09LBEBAgAAAAAAAMAMCAABpkEECD07NBEBAgAAAAAAAMA0CQABpkkECD3zQrvR/rQIEAAAAAAAAACOTwAIMAMiQOgZESAAAAAAAAAAnEDTCACmb/KyP3+43WgtTfK8aUBXvaHZaa5a+MVL3m0UAAAAAAAAAHB0VgAEmAUrAULPvNBuNc+bXP719UYBAAAAAAAAAC8lAASYpYUXXPSuZqNxQ0SA0G0iQAAAAAAAAAA4CgEgwByIAKFnRIAAAAAAAAAAcAQBIMAciQChZ0SAAAAAAAAAAHAYASDAPBABQs+IAAEAAAAAAACg1DQCgLmbXPbNDe1G53NJtpkGdNUbmiPtGxZ+8ZJ3GwUAAAAAAAAAdWcFQIB5tPArF72/2WmsSvI604CushIgAAAAAAAAALUnAASYZyJA6BkRIAAAAAAAAAC1JgAE6AIRIPSMCBAAAAAAAACA2hIAAnTJSRd8/wMjjc71EQFCt4kAAQAAAAAAAKglASBAF4kAoWdeaHc6SyeXfXODUQAAAAAAAABQF00jAOieA8u+cV+r0zg/yTbTgK56Q7PRuGHhBRe9yygAAAAAAAAAqAsrAAL0gJUAoWeeb3c651kJEAAAAAAAAIA6EAAC9IgIEHpGBAgAAAAAAABALQgAAXpIBAg9IwIEAAAAAAAAoPIEgAA9JgKEnhEBAgAAAAAAAFBpAkCAPigjwFVJXmsa0FUiQAAAAAAAAAAqq2kEAL13YNk37htpts9Pst00oKvOaDYa1y764sXnGgUAAAAAAAAAVWMFQIA+OuWr3/tgq928PlYChG7b0mll6cTyCx8zCgAAAAAAAACqQgAI0GciQOgZESAAAAAAAAAAlSIABBgAIkDoGREgAAAAAAAAAJUhAAQYECJA6BkRIAAAAAAAAACVIAAEGCAiQOgZESAAAAAAAAAAQ08ACDBgRIDQMyJAAAAAAAAAAIaaABBgAIkAoWe2dDqtT00s+/PHjQIAAAAAAACAYSMABBhQS7560Ufa7cZ1SU4zDeiqp9Nsfmr80q8/YRQAAAAAAAAADJOmEQAMpv2XfnPdSLN9XpIXTQO66qy022sWXfDdc4wCAAAAAAAAgGFiBUCAAbfwgovf22zkuiRnmAZ01eY0m0utBAgAAAAAAADAsLACIMCAm1x24YPJyO+mkUdMA7rqzVYCBAAAAAAAAGCYCAABhsD45V/btOBg8w/TyI2mAV11VqMxcsPir15ytlEAAAAAAAAAMOhcAhhgmPzFXzQXbzjzv3Qa+W+NND6QZCTJviSThjO0WklGjWHgbF7Yyn8aXX7hDqMAAAAAAAAAAADm17//1qJ84btLDAIAAAAAAAAAAAAAAAAAAAAAAAAAAAAAAAAAAAAAAAAAAAAAAAAAAAAAAAAAAAAAAAAAAAAAAAAAAAAAAAAAAAAAAAAAAAAAAAAAAAAAAAAAAAAAAAAAAAAAAAAAAAAAAAAAAAAAAAAAAAAAAAAAAAAAAAAAAIAB9f8BTddrXNqhxBcAAAAldEVYdGRhdGU6Y3JlYXRlADIwMjEtMDUtMjFUMTI6MTA6NDQrMDA6MDATsi/KAAAAJXRFWHRkYXRlOm1vZGlmeQAyMDIxLTA1LTIxVDEyOjEwOjQ0KzAwOjAwYu+XdgAAAABJRU5ErkJggg==;direction=north;" parent="VbjRo9HtqSkB1Ggf5Mw8-144" vertex="1">
          <mxGeometry y="7.960000000000008" width="20" height="70.04" as="geometry" />
        </mxCell>
        <mxCell id="VbjRo9HtqSkB1Ggf5Mw8-1" value="" style="sketch=0;outlineConnect=0;fontColor=#232F3E;gradientColor=none;fillColor=#232F3D;strokeColor=none;dashed=0;verticalLabelPosition=bottom;verticalAlign=top;align=center;html=1;fontSize=12;fontStyle=0;aspect=fixed;pointerEvents=1;shape=mxgraph.aws4.mobile_client;" parent="VbjRo9HtqSkB1Ggf5Mw8-144" vertex="1">
          <mxGeometry x="29.5" width="41" height="78" as="geometry" />
        </mxCell>
        <mxCell id="VbjRo9HtqSkB1Ggf5Mw8-2" value="Mobilna Aplikacija" style="text;html=1;align=center;verticalAlign=middle;whiteSpace=wrap;rounded=0;" parent="VbjRo9HtqSkB1Ggf5Mw8-144" vertex="1">
          <mxGeometry y="78" width="100" height="20" as="geometry" />
        </mxCell>
        <mxCell id="VbjRo9HtqSkB1Ggf5Mw8-142" value="" style="shape=image;verticalLabelPosition=bottom;labelBackgroundColor=default;verticalAlign=top;aspect=fixed;imageAspect=0;image=https://upload.wikimedia.org/wikipedia/commons/c/c2/Postman_%28software%29.png;" parent="VbjRo9HtqSkB1Ggf5Mw8-144" vertex="1">
          <mxGeometry y="114" width="118.62" height="36" as="geometry" />
        </mxCell>
        <mxCell id="VbjRo9HtqSkB1Ggf5Mw8-143" value="Testiranje API" style="text;html=1;align=center;verticalAlign=middle;whiteSpace=wrap;rounded=0;" parent="VbjRo9HtqSkB1Ggf5Mw8-144" vertex="1">
          <mxGeometry y="150" width="79.5" height="24" as="geometry" />
        </mxCell>
        <mxCell id="VbjRo9HtqSkB1Ggf5Mw8-148" style="edgeStyle=orthogonalEdgeStyle;rounded=0;orthogonalLoop=1;jettySize=auto;html=1;entryX=0;entryY=0.5;entryDx=0;entryDy=0;" parent="1" source="VbjRo9HtqSkB1Ggf5Mw8-145" target="VbjRo9HtqSkB1Ggf5Mw8-40" edge="1">
          <mxGeometry relative="1" as="geometry" />
        </mxCell>
        <mxCell id="VbjRo9HtqSkB1Ggf5Mw8-145" value="" style="shape=waypoint;sketch=0;fillStyle=solid;size=6;pointerEvents=1;points=[];fillColor=none;resizable=0;rotatable=0;perimeter=centerPerimeter;snapToPoint=1;" parent="1" vertex="1">
          <mxGeometry x="80" y="245" width="20" height="20" as="geometry" />
        </mxCell>
        <mxCell id="VbjRo9HtqSkB1Ggf5Mw8-146" style="edgeStyle=orthogonalEdgeStyle;rounded=0;orthogonalLoop=1;jettySize=auto;html=1;endArrow=none;endFill=0;" parent="1" source="VbjRo9HtqSkB1Ggf5Mw8-142" target="VbjRo9HtqSkB1Ggf5Mw8-145" edge="1">
          <mxGeometry relative="1" as="geometry" />
        </mxCell>
        <mxCell id="VbjRo9HtqSkB1Ggf5Mw8-147" style="edgeStyle=orthogonalEdgeStyle;rounded=0;orthogonalLoop=1;jettySize=auto;html=1;endArrow=none;endFill=0;" parent="1" source="VbjRo9HtqSkB1Ggf5Mw8-1" target="VbjRo9HtqSkB1Ggf5Mw8-145" edge="1">
          <mxGeometry relative="1" as="geometry" />
        </mxCell>
        <mxCell id="VbjRo9HtqSkB1Ggf5Mw8-149" value="HTTP klici" style="text;html=1;align=center;verticalAlign=middle;whiteSpace=wrap;rounded=0;" parent="1" vertex="1">
          <mxGeometry x="95" y="241" width="60" height="10" as="geometry" />
        </mxCell>
        <mxCell id="-vIotHG_nZlyd3AYU9EI-2" value="&lt;p style=&quot;line-height: 100%;&quot;&gt;&lt;font style=&quot;font-size: 8px;&quot; color=&quot;#f07d3e&quot;&gt;Arnes Shramba&lt;/font&gt;&lt;/p&gt;" style="text;html=1;align=center;verticalAlign=middle;whiteSpace=wrap;rounded=0;" vertex="1" parent="1">
          <mxGeometry x="322.5" y="300" width="55" height="30" as="geometry" />
        </mxCell>
        <mxCell id="-vIotHG_nZlyd3AYU9EI-3" value="" style="shape=image;verticalLabelPosition=bottom;labelBackgroundColor=default;verticalAlign=top;aspect=fixed;imageAspect=0;image=https://miro.medium.com/v2/resize:fit:1044/1*d2XUNgrLw7687CDfXx9-Dw.png;" vertex="1" parent="1">
          <mxGeometry x="407.28999999999996" y="306" width="25.41" height="24" as="geometry" />
        </mxCell>
        <mxCell id="-vIotHG_nZlyd3AYU9EI-4" value="" style="shape=image;verticalLabelPosition=bottom;labelBackgroundColor=default;verticalAlign=top;aspect=fixed;imageAspect=0;image=https://upload.wikimedia.org/wikipedia/commons/thumb/2/29/Postgresql_elephant.svg/993px-Postgresql_elephant.svg.png;" vertex="1" parent="1">
          <mxGeometry x="200.31" y="305" width="19.39" height="20" as="geometry" />
        </mxCell>
        <mxCell id="-vIotHG_nZlyd3AYU9EI-46" value="" style="shape=cylinder3;whiteSpace=wrap;html=1;boundedLbl=1;backgroundOutline=1;size=15;" vertex="1" parent="1">
          <mxGeometry x="250" y="300" width="60" height="80" as="geometry" />
        </mxCell>
        <mxCell id="-vIotHG_nZlyd3AYU9EI-5" value="" style="shape=image;verticalLabelPosition=bottom;labelBackgroundColor=default;verticalAlign=top;aspect=fixed;imageAspect=0;image=https://raw.githubusercontent.com/mlflow/mlflow/master/docs/source/_static/MLflow-logo-final-black.png;" vertex="1" parent="1">
          <mxGeometry x="260.90999999999997" y="346" width="38.18" height="14" as="geometry" />
        </mxCell>
        <mxCell id="-vIotHG_nZlyd3AYU9EI-47" value="" style="edgeStyle=orthogonalEdgeStyle;rounded=0;orthogonalLoop=1;jettySize=auto;html=1;endArrow=none;endFill=0;" edge="1" parent="1" source="VbjRo9HtqSkB1Ggf5Mw8-113" target="-vIotHG_nZlyd3AYU9EI-48">
          <mxGeometry relative="1" as="geometry">
            <mxPoint x="350" y="420" as="sourcePoint" />
            <mxPoint x="210" y="380" as="targetPoint" />
          </mxGeometry>
        </mxCell>
        <mxCell id="-vIotHG_nZlyd3AYU9EI-48" value="" style="shape=waypoint;sketch=0;fillStyle=solid;size=6;pointerEvents=1;points=[];fillColor=none;resizable=0;rotatable=0;perimeter=centerPerimeter;snapToPoint=1;" vertex="1" parent="1">
          <mxGeometry x="270" y="410" width="20" height="20" as="geometry" />
        </mxCell>
        <mxCell id="-vIotHG_nZlyd3AYU9EI-51" style="edgeStyle=orthogonalEdgeStyle;rounded=0;orthogonalLoop=1;jettySize=auto;html=1;entryX=0.5;entryY=1;entryDx=0;entryDy=0;entryPerimeter=0;" edge="1" parent="1" source="-vIotHG_nZlyd3AYU9EI-48" target="-vIotHG_nZlyd3AYU9EI-46">
          <mxGeometry relative="1" as="geometry" />
        </mxCell>
        <mxCell id="-vIotHG_nZlyd3AYU9EI-54" value="" style="edgeStyle=orthogonalEdgeStyle;rounded=0;orthogonalLoop=1;jettySize=auto;html=1;entryDx=0;entryDy=0;entryPerimeter=0;jumpStyle=none;endArrow=none;endFill=0;" edge="1" parent="1" source="VbjRo9HtqSkB1Ggf5Mw8-54" target="-vIotHG_nZlyd3AYU9EI-53">
          <mxGeometry relative="1" as="geometry">
            <mxPoint x="350" y="280" as="sourcePoint" />
            <mxPoint x="210" y="300" as="targetPoint" />
          </mxGeometry>
        </mxCell>
        <mxCell id="-vIotHG_nZlyd3AYU9EI-53" value="" style="shape=waypoint;sketch=0;fillStyle=solid;size=6;pointerEvents=1;points=[];fillColor=none;resizable=0;rotatable=0;perimeter=centerPerimeter;snapToPoint=1;" vertex="1" parent="1">
          <mxGeometry x="270" y="270" width="20" height="20" as="geometry" />
        </mxCell>
        <mxCell id="-vIotHG_nZlyd3AYU9EI-55" style="edgeStyle=orthogonalEdgeStyle;rounded=0;orthogonalLoop=1;jettySize=auto;html=1;entryX=0.5;entryY=0;entryDx=0;entryDy=0;entryPerimeter=0;" edge="1" parent="1" source="-vIotHG_nZlyd3AYU9EI-53" target="-vIotHG_nZlyd3AYU9EI-46">
          <mxGeometry relative="1" as="geometry" />
        </mxCell>
        <mxCell id="VbjRo9HtqSkB1Ggf5Mw8-135" value="" style="edgeStyle=orthogonalEdgeStyle;rounded=0;orthogonalLoop=1;jettySize=auto;html=1;endArrow=none;endFill=0;" parent="1" source="VbjRo9HtqSkB1Ggf5Mw8-6" target="VbjRo9HtqSkB1Ggf5Mw8-136" edge="1">
          <mxGeometry relative="1" as="geometry">
            <mxPoint x="300" y="280" as="targetPoint" />
            <mxPoint x="310" y="125" as="sourcePoint" />
            <Array as="points">
              <mxPoint x="390" y="125" />
              <mxPoint x="390" y="280" />
            </Array>
          </mxGeometry>
        </mxCell>
        <mxCell id="VbjRo9HtqSkB1Ggf5Mw8-130" style="edgeStyle=orthogonalEdgeStyle;rounded=0;orthogonalLoop=1;jettySize=auto;html=1;entryX=0;entryY=0.5;entryDx=0;entryDy=0;jumpStyle=arc;" parent="1" source="VbjRo9HtqSkB1Ggf5Mw8-65" target="VbjRo9HtqSkB1Ggf5Mw8-127" edge="1">
          <mxGeometry relative="1" as="geometry">
            <Array as="points">
              <mxPoint x="550" y="185" />
              <mxPoint x="550" y="435" />
            </Array>
          </mxGeometry>
        </mxCell>
        <mxCell id="VbjRo9HtqSkB1Ggf5Mw8-129" style="edgeStyle=orthogonalEdgeStyle;rounded=0;orthogonalLoop=1;jettySize=auto;html=1;exitX=1;exitY=0.75;exitDx=0;exitDy=0;entryX=0;entryY=0.5;entryDx=0;entryDy=0;jumpStyle=arc;" parent="1" source="VbjRo9HtqSkB1Ggf5Mw8-9" target="VbjRo9HtqSkB1Ggf5Mw8-128" edge="1">
          <mxGeometry relative="1" as="geometry">
            <Array as="points">
              <mxPoint x="530" y="218" />
              <mxPoint x="530" y="485" />
            </Array>
          </mxGeometry>
        </mxCell>
        <mxCell id="VbjRo9HtqSkB1Ggf5Mw8-132" style="edgeStyle=orthogonalEdgeStyle;rounded=0;orthogonalLoop=1;jettySize=auto;html=1;exitX=1;exitY=0.5;exitDx=0;exitDy=0;entryX=0;entryY=0.25;entryDx=0;entryDy=0;jumpStyle=arc;" parent="1" source="VbjRo9HtqSkB1Ggf5Mw8-10" target="VbjRo9HtqSkB1Ggf5Mw8-121" edge="1">
          <mxGeometry relative="1" as="geometry">
            <Array as="points">
              <mxPoint x="510" y="245" />
              <mxPoint x="510" y="528" />
            </Array>
          </mxGeometry>
        </mxCell>
        <mxCell id="VbjRo9HtqSkB1Ggf5Mw8-110" style="edgeStyle=orthogonalEdgeStyle;rounded=0;orthogonalLoop=1;jettySize=auto;html=1;exitX=1;exitY=0.5;exitDx=0;exitDy=0;jumpStyle=arc;" parent="1" source="VbjRo9HtqSkB1Ggf5Mw8-7" target="VbjRo9HtqSkB1Ggf5Mw8-25" edge="1">
          <mxGeometry relative="1" as="geometry">
            <Array as="points">
              <mxPoint x="520" y="155" />
              <mxPoint x="520" y="140" />
            </Array>
          </mxGeometry>
        </mxCell>
      </root>
    </mxGraphModel>
  </diagram>
</mxfile>
